G04 #@! TF.GenerationSoftware,KiCad,Pcbnew,5.0.2+dfsg1-1~bpo9+1*
G04 #@! TF.CreationDate,2021-01-26T10:03:55+00:00*
G04 #@! TF.ProjectId,ardubigboy,61726475-6269-4676-926f-792e6b696361,rev?*
G04 #@! TF.SameCoordinates,Original*
G04 #@! TF.FileFunction,Soldermask,Bot*
G04 #@! TF.FilePolarity,Negative*
%FSLAX46Y46*%
G04 Gerber Fmt 4.6, Leading zero omitted, Abs format (unit mm)*
G04 Created by KiCad (PCBNEW 5.0.2+dfsg1-1~bpo9+1) date Tue 26 Jan 2021 10:03:55 GMT*
%MOMM*%
%LPD*%
G01*
G04 APERTURE LIST*
%ADD10C,0.100000*%
G04 APERTURE END LIST*
D10*
G36*
X128594096Y-119047033D02*
X128594098Y-119047034D01*
X128594099Y-119047034D01*
X129058352Y-119239333D01*
X129271103Y-119381489D01*
X129476171Y-119518511D01*
X129831489Y-119873829D01*
X129831491Y-119873832D01*
X130110667Y-120291648D01*
X130293407Y-120732824D01*
X130302967Y-120755904D01*
X130401000Y-121248747D01*
X130401000Y-121751252D01*
X130302966Y-122244099D01*
X130110667Y-122708352D01*
X129976858Y-122908611D01*
X129831489Y-123126171D01*
X129476171Y-123481489D01*
X129476168Y-123481491D01*
X129058352Y-123760667D01*
X128594099Y-123952966D01*
X128594098Y-123952966D01*
X128594096Y-123952967D01*
X128101253Y-124051000D01*
X127598747Y-124051000D01*
X127105904Y-123952967D01*
X127105902Y-123952966D01*
X127105901Y-123952966D01*
X126641648Y-123760667D01*
X126223832Y-123481491D01*
X126223829Y-123481489D01*
X125868511Y-123126171D01*
X125723142Y-122908611D01*
X125589333Y-122708352D01*
X125397034Y-122244099D01*
X125299000Y-121751252D01*
X125299000Y-121248747D01*
X125397033Y-120755904D01*
X125406593Y-120732824D01*
X125589333Y-120291648D01*
X125868509Y-119873832D01*
X125868511Y-119873829D01*
X126223829Y-119518511D01*
X126428897Y-119381489D01*
X126641648Y-119239333D01*
X127105901Y-119047034D01*
X127105902Y-119047034D01*
X127105904Y-119047033D01*
X127598747Y-118949000D01*
X128101253Y-118949000D01*
X128594096Y-119047033D01*
X128594096Y-119047033D01*
G37*
G36*
X60094096Y-119047033D02*
X60094098Y-119047034D01*
X60094099Y-119047034D01*
X60558352Y-119239333D01*
X60771103Y-119381489D01*
X60976171Y-119518511D01*
X61331489Y-119873829D01*
X61331491Y-119873832D01*
X61610667Y-120291648D01*
X61793407Y-120732824D01*
X61802967Y-120755904D01*
X61901000Y-121248747D01*
X61901000Y-121751252D01*
X61802966Y-122244099D01*
X61610667Y-122708352D01*
X61476858Y-122908611D01*
X61331489Y-123126171D01*
X60976171Y-123481489D01*
X60976168Y-123481491D01*
X60558352Y-123760667D01*
X60094099Y-123952966D01*
X60094098Y-123952966D01*
X60094096Y-123952967D01*
X59601253Y-124051000D01*
X59098747Y-124051000D01*
X58605904Y-123952967D01*
X58605902Y-123952966D01*
X58605901Y-123952966D01*
X58141648Y-123760667D01*
X57723832Y-123481491D01*
X57723829Y-123481489D01*
X57368511Y-123126171D01*
X57223142Y-122908611D01*
X57089333Y-122708352D01*
X56897034Y-122244099D01*
X56799000Y-121751252D01*
X56799000Y-121248747D01*
X56897033Y-120755904D01*
X56906593Y-120732824D01*
X57089333Y-120291648D01*
X57368509Y-119873832D01*
X57368511Y-119873829D01*
X57723829Y-119518511D01*
X57928897Y-119381489D01*
X58141648Y-119239333D01*
X58605901Y-119047034D01*
X58605902Y-119047034D01*
X58605904Y-119047033D01*
X59098747Y-118949000D01*
X59601253Y-118949000D01*
X60094096Y-119047033D01*
X60094096Y-119047033D01*
G37*
G36*
X120298698Y-121246568D02*
X120366684Y-121267191D01*
X120429337Y-121300680D01*
X120484252Y-121345748D01*
X120529320Y-121400663D01*
X120562809Y-121463316D01*
X120583432Y-121531302D01*
X120591000Y-121608140D01*
X120591000Y-122571860D01*
X120583432Y-122648698D01*
X120562809Y-122716684D01*
X120529320Y-122779337D01*
X120484252Y-122834252D01*
X120429337Y-122879320D01*
X120366684Y-122912809D01*
X120298698Y-122933432D01*
X120221860Y-122941000D01*
X119258140Y-122941000D01*
X119181302Y-122933432D01*
X119113316Y-122912809D01*
X119050663Y-122879320D01*
X118995748Y-122834252D01*
X118950680Y-122779337D01*
X118917191Y-122716684D01*
X118896568Y-122648698D01*
X118889000Y-122571860D01*
X118889000Y-121608140D01*
X118896568Y-121531302D01*
X118917191Y-121463316D01*
X118950680Y-121400663D01*
X118995748Y-121345748D01*
X119050663Y-121300680D01*
X119113316Y-121267191D01*
X119181302Y-121246568D01*
X119258140Y-121239000D01*
X120221860Y-121239000D01*
X120298698Y-121246568D01*
X120298698Y-121246568D01*
G37*
G36*
X84398698Y-119046568D02*
X84466684Y-119067191D01*
X84529337Y-119100680D01*
X84584252Y-119145748D01*
X84629320Y-119200663D01*
X84662809Y-119263316D01*
X84683432Y-119331302D01*
X84691000Y-119408140D01*
X84691000Y-120371860D01*
X84683432Y-120448698D01*
X84662809Y-120516684D01*
X84629320Y-120579337D01*
X84584252Y-120634252D01*
X84529337Y-120679320D01*
X84466684Y-120712809D01*
X84398698Y-120733432D01*
X84321860Y-120741000D01*
X83358140Y-120741000D01*
X83281302Y-120733432D01*
X83213316Y-120712809D01*
X83150663Y-120679320D01*
X83095748Y-120634252D01*
X83050680Y-120579337D01*
X83017191Y-120516684D01*
X82996568Y-120448698D01*
X82989000Y-120371860D01*
X82989000Y-119408140D01*
X82996568Y-119331302D01*
X83017191Y-119263316D01*
X83050680Y-119200663D01*
X83095748Y-119145748D01*
X83150663Y-119100680D01*
X83213316Y-119067191D01*
X83281302Y-119046568D01*
X83358140Y-119039000D01*
X84321860Y-119039000D01*
X84398698Y-119046568D01*
X84398698Y-119046568D01*
G37*
G36*
X69158698Y-119046568D02*
X69226684Y-119067191D01*
X69289337Y-119100680D01*
X69344252Y-119145748D01*
X69389320Y-119200663D01*
X69422809Y-119263316D01*
X69443432Y-119331302D01*
X69451000Y-119408140D01*
X69451000Y-120371860D01*
X69443432Y-120448698D01*
X69422809Y-120516684D01*
X69389320Y-120579337D01*
X69344252Y-120634252D01*
X69289337Y-120679320D01*
X69226684Y-120712809D01*
X69158698Y-120733432D01*
X69081860Y-120741000D01*
X68118140Y-120741000D01*
X68041302Y-120733432D01*
X67973316Y-120712809D01*
X67910663Y-120679320D01*
X67855748Y-120634252D01*
X67810680Y-120579337D01*
X67777191Y-120516684D01*
X67756568Y-120448698D01*
X67749000Y-120371860D01*
X67749000Y-119408140D01*
X67756568Y-119331302D01*
X67777191Y-119263316D01*
X67810680Y-119200663D01*
X67855748Y-119145748D01*
X67910663Y-119100680D01*
X67973316Y-119067191D01*
X68041302Y-119046568D01*
X68118140Y-119039000D01*
X69081860Y-119039000D01*
X69158698Y-119046568D01*
X69158698Y-119046568D01*
G37*
G36*
X120298698Y-118706568D02*
X120366684Y-118727191D01*
X120429337Y-118760680D01*
X120484252Y-118805748D01*
X120529320Y-118860663D01*
X120562809Y-118923316D01*
X120583432Y-118991302D01*
X120591000Y-119068140D01*
X120591000Y-120031860D01*
X120583432Y-120108698D01*
X120562809Y-120176684D01*
X120529320Y-120239337D01*
X120484252Y-120294252D01*
X120429337Y-120339320D01*
X120366684Y-120372809D01*
X120298698Y-120393432D01*
X120221860Y-120401000D01*
X119258140Y-120401000D01*
X119181302Y-120393432D01*
X119113316Y-120372809D01*
X119050663Y-120339320D01*
X118995748Y-120294252D01*
X118950680Y-120239337D01*
X118917191Y-120176684D01*
X118896568Y-120108698D01*
X118889000Y-120031860D01*
X118889000Y-119068140D01*
X118896568Y-118991302D01*
X118917191Y-118923316D01*
X118950680Y-118860663D01*
X118995748Y-118805748D01*
X119050663Y-118760680D01*
X119113316Y-118727191D01*
X119181302Y-118706568D01*
X119258140Y-118699000D01*
X120221860Y-118699000D01*
X120298698Y-118706568D01*
X120298698Y-118706568D01*
G37*
G36*
X89417998Y-118319268D02*
X89485984Y-118339891D01*
X89548637Y-118373380D01*
X89603552Y-118418448D01*
X89648620Y-118473363D01*
X89682109Y-118536016D01*
X89702732Y-118604002D01*
X89710300Y-118680840D01*
X89710300Y-119644560D01*
X89702732Y-119721398D01*
X89682109Y-119789384D01*
X89648620Y-119852037D01*
X89603552Y-119906952D01*
X89548637Y-119952020D01*
X89485984Y-119985509D01*
X89417998Y-120006132D01*
X89341160Y-120013700D01*
X88377440Y-120013700D01*
X88300602Y-120006132D01*
X88232616Y-119985509D01*
X88169963Y-119952020D01*
X88115048Y-119906952D01*
X88069980Y-119852037D01*
X88036491Y-119789384D01*
X88015868Y-119721398D01*
X88008300Y-119644560D01*
X88008300Y-118680840D01*
X88015868Y-118604002D01*
X88036491Y-118536016D01*
X88069980Y-118473363D01*
X88115048Y-118418448D01*
X88169963Y-118373380D01*
X88232616Y-118339891D01*
X88300602Y-118319268D01*
X88377440Y-118311700D01*
X89341160Y-118311700D01*
X89417998Y-118319268D01*
X89417998Y-118319268D01*
G37*
G36*
X103133998Y-118306568D02*
X103201984Y-118327191D01*
X103264637Y-118360680D01*
X103319552Y-118405748D01*
X103364620Y-118460663D01*
X103398109Y-118523316D01*
X103418732Y-118591302D01*
X103426300Y-118668140D01*
X103426300Y-119631860D01*
X103418732Y-119708698D01*
X103398109Y-119776684D01*
X103364620Y-119839337D01*
X103319552Y-119894252D01*
X103264637Y-119939320D01*
X103201984Y-119972809D01*
X103133998Y-119993432D01*
X103057160Y-120001000D01*
X102093440Y-120001000D01*
X102016602Y-119993432D01*
X101948616Y-119972809D01*
X101885963Y-119939320D01*
X101831048Y-119894252D01*
X101785980Y-119839337D01*
X101752491Y-119776684D01*
X101731868Y-119708698D01*
X101724300Y-119631860D01*
X101724300Y-118668140D01*
X101731868Y-118591302D01*
X101752491Y-118523316D01*
X101785980Y-118460663D01*
X101831048Y-118405748D01*
X101885963Y-118360680D01*
X101948616Y-118327191D01*
X102016602Y-118306568D01*
X102093440Y-118299000D01*
X103057160Y-118299000D01*
X103133998Y-118306568D01*
X103133998Y-118306568D01*
G37*
G36*
X69158698Y-116506568D02*
X69226684Y-116527191D01*
X69289337Y-116560680D01*
X69344252Y-116605748D01*
X69389320Y-116660663D01*
X69422809Y-116723316D01*
X69443432Y-116791302D01*
X69451000Y-116868140D01*
X69451000Y-117831860D01*
X69443432Y-117908698D01*
X69422809Y-117976684D01*
X69389320Y-118039337D01*
X69344252Y-118094252D01*
X69289337Y-118139320D01*
X69226684Y-118172809D01*
X69158698Y-118193432D01*
X69081860Y-118201000D01*
X68118140Y-118201000D01*
X68041302Y-118193432D01*
X67973316Y-118172809D01*
X67910663Y-118139320D01*
X67855748Y-118094252D01*
X67810680Y-118039337D01*
X67777191Y-117976684D01*
X67756568Y-117908698D01*
X67749000Y-117831860D01*
X67749000Y-116868140D01*
X67756568Y-116791302D01*
X67777191Y-116723316D01*
X67810680Y-116660663D01*
X67855748Y-116605748D01*
X67910663Y-116560680D01*
X67973316Y-116527191D01*
X68041302Y-116506568D01*
X68118140Y-116499000D01*
X69081860Y-116499000D01*
X69158698Y-116506568D01*
X69158698Y-116506568D01*
G37*
G36*
X84398698Y-116506568D02*
X84466684Y-116527191D01*
X84529337Y-116560680D01*
X84584252Y-116605748D01*
X84629320Y-116660663D01*
X84662809Y-116723316D01*
X84683432Y-116791302D01*
X84691000Y-116868140D01*
X84691000Y-117831860D01*
X84683432Y-117908698D01*
X84662809Y-117976684D01*
X84629320Y-118039337D01*
X84584252Y-118094252D01*
X84529337Y-118139320D01*
X84466684Y-118172809D01*
X84398698Y-118193432D01*
X84321860Y-118201000D01*
X83358140Y-118201000D01*
X83281302Y-118193432D01*
X83213316Y-118172809D01*
X83150663Y-118139320D01*
X83095748Y-118094252D01*
X83050680Y-118039337D01*
X83017191Y-117976684D01*
X82996568Y-117908698D01*
X82989000Y-117831860D01*
X82989000Y-116868140D01*
X82996568Y-116791302D01*
X83017191Y-116723316D01*
X83050680Y-116660663D01*
X83095748Y-116605748D01*
X83150663Y-116560680D01*
X83213316Y-116527191D01*
X83281302Y-116506568D01*
X83358140Y-116499000D01*
X84321860Y-116499000D01*
X84398698Y-116506568D01*
X84398698Y-116506568D01*
G37*
G36*
X120298698Y-116166568D02*
X120366684Y-116187191D01*
X120429337Y-116220680D01*
X120484252Y-116265748D01*
X120529320Y-116320663D01*
X120562809Y-116383316D01*
X120583432Y-116451302D01*
X120591000Y-116528140D01*
X120591000Y-117491860D01*
X120583432Y-117568698D01*
X120562809Y-117636684D01*
X120529320Y-117699337D01*
X120484252Y-117754252D01*
X120429337Y-117799320D01*
X120366684Y-117832809D01*
X120298698Y-117853432D01*
X120221860Y-117861000D01*
X119258140Y-117861000D01*
X119181302Y-117853432D01*
X119113316Y-117832809D01*
X119050663Y-117799320D01*
X118995748Y-117754252D01*
X118950680Y-117699337D01*
X118917191Y-117636684D01*
X118896568Y-117568698D01*
X118889000Y-117491860D01*
X118889000Y-116528140D01*
X118896568Y-116451302D01*
X118917191Y-116383316D01*
X118950680Y-116320663D01*
X118995748Y-116265748D01*
X119050663Y-116220680D01*
X119113316Y-116187191D01*
X119181302Y-116166568D01*
X119258140Y-116159000D01*
X120221860Y-116159000D01*
X120298698Y-116166568D01*
X120298698Y-116166568D01*
G37*
G36*
X69158698Y-113966568D02*
X69226684Y-113987191D01*
X69289337Y-114020680D01*
X69344252Y-114065748D01*
X69389320Y-114120663D01*
X69422809Y-114183316D01*
X69443432Y-114251302D01*
X69451000Y-114328140D01*
X69451000Y-115291860D01*
X69443432Y-115368698D01*
X69422809Y-115436684D01*
X69389320Y-115499337D01*
X69344252Y-115554252D01*
X69289337Y-115599320D01*
X69226684Y-115632809D01*
X69158698Y-115653432D01*
X69081860Y-115661000D01*
X68118140Y-115661000D01*
X68041302Y-115653432D01*
X67973316Y-115632809D01*
X67910663Y-115599320D01*
X67855748Y-115554252D01*
X67810680Y-115499337D01*
X67777191Y-115436684D01*
X67756568Y-115368698D01*
X67749000Y-115291860D01*
X67749000Y-114328140D01*
X67756568Y-114251302D01*
X67777191Y-114183316D01*
X67810680Y-114120663D01*
X67855748Y-114065748D01*
X67910663Y-114020680D01*
X67973316Y-113987191D01*
X68041302Y-113966568D01*
X68118140Y-113959000D01*
X69081860Y-113959000D01*
X69158698Y-113966568D01*
X69158698Y-113966568D01*
G37*
G36*
X84398698Y-113966568D02*
X84466684Y-113987191D01*
X84529337Y-114020680D01*
X84584252Y-114065748D01*
X84629320Y-114120663D01*
X84662809Y-114183316D01*
X84683432Y-114251302D01*
X84691000Y-114328140D01*
X84691000Y-115291860D01*
X84683432Y-115368698D01*
X84662809Y-115436684D01*
X84629320Y-115499337D01*
X84584252Y-115554252D01*
X84529337Y-115599320D01*
X84466684Y-115632809D01*
X84398698Y-115653432D01*
X84321860Y-115661000D01*
X83358140Y-115661000D01*
X83281302Y-115653432D01*
X83213316Y-115632809D01*
X83150663Y-115599320D01*
X83095748Y-115554252D01*
X83050680Y-115499337D01*
X83017191Y-115436684D01*
X82996568Y-115368698D01*
X82989000Y-115291860D01*
X82989000Y-114328140D01*
X82996568Y-114251302D01*
X83017191Y-114183316D01*
X83050680Y-114120663D01*
X83095748Y-114065748D01*
X83150663Y-114020680D01*
X83213316Y-113987191D01*
X83281302Y-113966568D01*
X83358140Y-113959000D01*
X84321860Y-113959000D01*
X84398698Y-113966568D01*
X84398698Y-113966568D01*
G37*
G36*
X120298698Y-113626568D02*
X120366684Y-113647191D01*
X120429337Y-113680680D01*
X120484252Y-113725748D01*
X120529320Y-113780663D01*
X120562809Y-113843316D01*
X120583432Y-113911302D01*
X120591000Y-113988140D01*
X120591000Y-114951860D01*
X120583432Y-115028698D01*
X120562809Y-115096684D01*
X120529320Y-115159337D01*
X120484252Y-115214252D01*
X120429337Y-115259320D01*
X120366684Y-115292809D01*
X120298698Y-115313432D01*
X120221860Y-115321000D01*
X119258140Y-115321000D01*
X119181302Y-115313432D01*
X119113316Y-115292809D01*
X119050663Y-115259320D01*
X118995748Y-115214252D01*
X118950680Y-115159337D01*
X118917191Y-115096684D01*
X118896568Y-115028698D01*
X118889000Y-114951860D01*
X118889000Y-113988140D01*
X118896568Y-113911302D01*
X118917191Y-113843316D01*
X118950680Y-113780663D01*
X118995748Y-113725748D01*
X119050663Y-113680680D01*
X119113316Y-113647191D01*
X119181302Y-113626568D01*
X119258140Y-113619000D01*
X120221860Y-113619000D01*
X120298698Y-113626568D01*
X120298698Y-113626568D01*
G37*
G36*
X84398698Y-111426568D02*
X84466684Y-111447191D01*
X84529337Y-111480680D01*
X84584252Y-111525748D01*
X84629320Y-111580663D01*
X84662809Y-111643316D01*
X84683432Y-111711302D01*
X84691000Y-111788140D01*
X84691000Y-112751860D01*
X84683432Y-112828698D01*
X84662809Y-112896684D01*
X84629320Y-112959337D01*
X84584252Y-113014252D01*
X84529337Y-113059320D01*
X84466684Y-113092809D01*
X84398698Y-113113432D01*
X84321860Y-113121000D01*
X83358140Y-113121000D01*
X83281302Y-113113432D01*
X83213316Y-113092809D01*
X83150663Y-113059320D01*
X83095748Y-113014252D01*
X83050680Y-112959337D01*
X83017191Y-112896684D01*
X82996568Y-112828698D01*
X82989000Y-112751860D01*
X82989000Y-111788140D01*
X82996568Y-111711302D01*
X83017191Y-111643316D01*
X83050680Y-111580663D01*
X83095748Y-111525748D01*
X83150663Y-111480680D01*
X83213316Y-111447191D01*
X83281302Y-111426568D01*
X83358140Y-111419000D01*
X84321860Y-111419000D01*
X84398698Y-111426568D01*
X84398698Y-111426568D01*
G37*
G36*
X69158698Y-111426568D02*
X69226684Y-111447191D01*
X69289337Y-111480680D01*
X69344252Y-111525748D01*
X69389320Y-111580663D01*
X69422809Y-111643316D01*
X69443432Y-111711302D01*
X69451000Y-111788140D01*
X69451000Y-112751860D01*
X69443432Y-112828698D01*
X69422809Y-112896684D01*
X69389320Y-112959337D01*
X69344252Y-113014252D01*
X69289337Y-113059320D01*
X69226684Y-113092809D01*
X69158698Y-113113432D01*
X69081860Y-113121000D01*
X68118140Y-113121000D01*
X68041302Y-113113432D01*
X67973316Y-113092809D01*
X67910663Y-113059320D01*
X67855748Y-113014252D01*
X67810680Y-112959337D01*
X67777191Y-112896684D01*
X67756568Y-112828698D01*
X67749000Y-112751860D01*
X67749000Y-111788140D01*
X67756568Y-111711302D01*
X67777191Y-111643316D01*
X67810680Y-111580663D01*
X67855748Y-111525748D01*
X67910663Y-111480680D01*
X67973316Y-111447191D01*
X68041302Y-111426568D01*
X68118140Y-111419000D01*
X69081860Y-111419000D01*
X69158698Y-111426568D01*
X69158698Y-111426568D01*
G37*
G36*
X120298698Y-111086568D02*
X120366684Y-111107191D01*
X120429337Y-111140680D01*
X120484252Y-111185748D01*
X120529320Y-111240663D01*
X120562809Y-111303316D01*
X120583432Y-111371302D01*
X120591000Y-111448140D01*
X120591000Y-112411860D01*
X120583432Y-112488698D01*
X120562809Y-112556684D01*
X120529320Y-112619337D01*
X120484252Y-112674252D01*
X120429337Y-112719320D01*
X120366684Y-112752809D01*
X120298698Y-112773432D01*
X120221860Y-112781000D01*
X119258140Y-112781000D01*
X119181302Y-112773432D01*
X119113316Y-112752809D01*
X119050663Y-112719320D01*
X118995748Y-112674252D01*
X118950680Y-112619337D01*
X118917191Y-112556684D01*
X118896568Y-112488698D01*
X118889000Y-112411860D01*
X118889000Y-111448140D01*
X118896568Y-111371302D01*
X118917191Y-111303316D01*
X118950680Y-111240663D01*
X118995748Y-111185748D01*
X119050663Y-111140680D01*
X119113316Y-111107191D01*
X119181302Y-111086568D01*
X119258140Y-111079000D01*
X120221860Y-111079000D01*
X120298698Y-111086568D01*
X120298698Y-111086568D01*
G37*
G36*
X84398698Y-108886568D02*
X84466684Y-108907191D01*
X84529337Y-108940680D01*
X84584252Y-108985748D01*
X84629320Y-109040663D01*
X84662809Y-109103316D01*
X84683432Y-109171302D01*
X84691000Y-109248140D01*
X84691000Y-110211860D01*
X84683432Y-110288698D01*
X84662809Y-110356684D01*
X84629320Y-110419337D01*
X84584252Y-110474252D01*
X84529337Y-110519320D01*
X84466684Y-110552809D01*
X84398698Y-110573432D01*
X84321860Y-110581000D01*
X83358140Y-110581000D01*
X83281302Y-110573432D01*
X83213316Y-110552809D01*
X83150663Y-110519320D01*
X83095748Y-110474252D01*
X83050680Y-110419337D01*
X83017191Y-110356684D01*
X82996568Y-110288698D01*
X82989000Y-110211860D01*
X82989000Y-109248140D01*
X82996568Y-109171302D01*
X83017191Y-109103316D01*
X83050680Y-109040663D01*
X83095748Y-108985748D01*
X83150663Y-108940680D01*
X83213316Y-108907191D01*
X83281302Y-108886568D01*
X83358140Y-108879000D01*
X84321860Y-108879000D01*
X84398698Y-108886568D01*
X84398698Y-108886568D01*
G37*
G36*
X69158698Y-108886568D02*
X69226684Y-108907191D01*
X69289337Y-108940680D01*
X69344252Y-108985748D01*
X69389320Y-109040663D01*
X69422809Y-109103316D01*
X69443432Y-109171302D01*
X69451000Y-109248140D01*
X69451000Y-110211860D01*
X69443432Y-110288698D01*
X69422809Y-110356684D01*
X69389320Y-110419337D01*
X69344252Y-110474252D01*
X69289337Y-110519320D01*
X69226684Y-110552809D01*
X69158698Y-110573432D01*
X69081860Y-110581000D01*
X68118140Y-110581000D01*
X68041302Y-110573432D01*
X67973316Y-110552809D01*
X67910663Y-110519320D01*
X67855748Y-110474252D01*
X67810680Y-110419337D01*
X67777191Y-110356684D01*
X67756568Y-110288698D01*
X67749000Y-110211860D01*
X67749000Y-109248140D01*
X67756568Y-109171302D01*
X67777191Y-109103316D01*
X67810680Y-109040663D01*
X67855748Y-108985748D01*
X67910663Y-108940680D01*
X67973316Y-108907191D01*
X68041302Y-108886568D01*
X68118140Y-108879000D01*
X69081860Y-108879000D01*
X69158698Y-108886568D01*
X69158698Y-108886568D01*
G37*
G36*
X120298698Y-108546568D02*
X120366684Y-108567191D01*
X120429337Y-108600680D01*
X120484252Y-108645748D01*
X120529320Y-108700663D01*
X120562809Y-108763316D01*
X120583432Y-108831302D01*
X120591000Y-108908140D01*
X120591000Y-109871860D01*
X120583432Y-109948698D01*
X120562809Y-110016684D01*
X120529320Y-110079337D01*
X120484252Y-110134252D01*
X120429337Y-110179320D01*
X120366684Y-110212809D01*
X120298698Y-110233432D01*
X120221860Y-110241000D01*
X119258140Y-110241000D01*
X119181302Y-110233432D01*
X119113316Y-110212809D01*
X119050663Y-110179320D01*
X118995748Y-110134252D01*
X118950680Y-110079337D01*
X118917191Y-110016684D01*
X118896568Y-109948698D01*
X118889000Y-109871860D01*
X118889000Y-108908140D01*
X118896568Y-108831302D01*
X118917191Y-108763316D01*
X118950680Y-108700663D01*
X118995748Y-108645748D01*
X119050663Y-108600680D01*
X119113316Y-108567191D01*
X119181302Y-108546568D01*
X119258140Y-108539000D01*
X120221860Y-108539000D01*
X120298698Y-108546568D01*
X120298698Y-108546568D01*
G37*
G36*
X84398698Y-106346568D02*
X84466684Y-106367191D01*
X84529337Y-106400680D01*
X84584252Y-106445748D01*
X84629320Y-106500663D01*
X84662809Y-106563316D01*
X84683432Y-106631302D01*
X84691000Y-106708140D01*
X84691000Y-107671860D01*
X84683432Y-107748698D01*
X84662809Y-107816684D01*
X84629320Y-107879337D01*
X84584252Y-107934252D01*
X84529337Y-107979320D01*
X84466684Y-108012809D01*
X84398698Y-108033432D01*
X84321860Y-108041000D01*
X83358140Y-108041000D01*
X83281302Y-108033432D01*
X83213316Y-108012809D01*
X83150663Y-107979320D01*
X83095748Y-107934252D01*
X83050680Y-107879337D01*
X83017191Y-107816684D01*
X82996568Y-107748698D01*
X82989000Y-107671860D01*
X82989000Y-106708140D01*
X82996568Y-106631302D01*
X83017191Y-106563316D01*
X83050680Y-106500663D01*
X83095748Y-106445748D01*
X83150663Y-106400680D01*
X83213316Y-106367191D01*
X83281302Y-106346568D01*
X83358140Y-106339000D01*
X84321860Y-106339000D01*
X84398698Y-106346568D01*
X84398698Y-106346568D01*
G37*
G36*
X69158698Y-106346568D02*
X69226684Y-106367191D01*
X69289337Y-106400680D01*
X69344252Y-106445748D01*
X69389320Y-106500663D01*
X69422809Y-106563316D01*
X69443432Y-106631302D01*
X69451000Y-106708140D01*
X69451000Y-107671860D01*
X69443432Y-107748698D01*
X69422809Y-107816684D01*
X69389320Y-107879337D01*
X69344252Y-107934252D01*
X69289337Y-107979320D01*
X69226684Y-108012809D01*
X69158698Y-108033432D01*
X69081860Y-108041000D01*
X68118140Y-108041000D01*
X68041302Y-108033432D01*
X67973316Y-108012809D01*
X67910663Y-107979320D01*
X67855748Y-107934252D01*
X67810680Y-107879337D01*
X67777191Y-107816684D01*
X67756568Y-107748698D01*
X67749000Y-107671860D01*
X67749000Y-106708140D01*
X67756568Y-106631302D01*
X67777191Y-106563316D01*
X67810680Y-106500663D01*
X67855748Y-106445748D01*
X67910663Y-106400680D01*
X67973316Y-106367191D01*
X68041302Y-106346568D01*
X68118140Y-106339000D01*
X69081860Y-106339000D01*
X69158698Y-106346568D01*
X69158698Y-106346568D01*
G37*
G36*
X123561000Y-106881000D02*
X118959000Y-106881000D01*
X118959000Y-105779000D01*
X123561000Y-105779000D01*
X123561000Y-106881000D01*
X123561000Y-106881000D01*
G37*
G36*
X110403062Y-104908181D02*
X110437977Y-104918773D01*
X110470165Y-104935978D01*
X110498373Y-104959127D01*
X110521522Y-104987335D01*
X110538727Y-105019523D01*
X110549319Y-105054438D01*
X110553500Y-105096895D01*
X110553500Y-106563105D01*
X110549319Y-106605562D01*
X110538727Y-106640477D01*
X110521522Y-106672665D01*
X110498373Y-106700873D01*
X110470165Y-106724022D01*
X110437977Y-106741227D01*
X110403062Y-106751819D01*
X110360605Y-106756000D01*
X109219395Y-106756000D01*
X109176938Y-106751819D01*
X109142023Y-106741227D01*
X109109835Y-106724022D01*
X109081627Y-106700873D01*
X109058478Y-106672665D01*
X109041273Y-106640477D01*
X109030681Y-106605562D01*
X109026500Y-106563105D01*
X109026500Y-105096895D01*
X109030681Y-105054438D01*
X109041273Y-105019523D01*
X109058478Y-104987335D01*
X109081627Y-104959127D01*
X109109835Y-104935978D01*
X109142023Y-104918773D01*
X109176938Y-104908181D01*
X109219395Y-104904000D01*
X110360605Y-104904000D01*
X110403062Y-104908181D01*
X110403062Y-104908181D01*
G37*
G36*
X107428062Y-104908181D02*
X107462977Y-104918773D01*
X107495165Y-104935978D01*
X107523373Y-104959127D01*
X107546522Y-104987335D01*
X107563727Y-105019523D01*
X107574319Y-105054438D01*
X107578500Y-105096895D01*
X107578500Y-106563105D01*
X107574319Y-106605562D01*
X107563727Y-106640477D01*
X107546522Y-106672665D01*
X107523373Y-106700873D01*
X107495165Y-106724022D01*
X107462977Y-106741227D01*
X107428062Y-106751819D01*
X107385605Y-106756000D01*
X106244395Y-106756000D01*
X106201938Y-106751819D01*
X106167023Y-106741227D01*
X106134835Y-106724022D01*
X106106627Y-106700873D01*
X106083478Y-106672665D01*
X106066273Y-106640477D01*
X106055681Y-106605562D01*
X106051500Y-106563105D01*
X106051500Y-105096895D01*
X106055681Y-105054438D01*
X106066273Y-105019523D01*
X106083478Y-104987335D01*
X106106627Y-104959127D01*
X106134835Y-104935978D01*
X106167023Y-104918773D01*
X106201938Y-104908181D01*
X106244395Y-104904000D01*
X107385605Y-104904000D01*
X107428062Y-104908181D01*
X107428062Y-104908181D01*
G37*
G36*
X113161000Y-106121000D02*
X112159000Y-106121000D01*
X112159000Y-105219000D01*
X113161000Y-105219000D01*
X113161000Y-106121000D01*
X113161000Y-106121000D01*
G37*
G36*
X69158698Y-103806568D02*
X69226684Y-103827191D01*
X69289337Y-103860680D01*
X69344252Y-103905748D01*
X69389320Y-103960663D01*
X69422809Y-104023316D01*
X69443432Y-104091302D01*
X69451000Y-104168140D01*
X69451000Y-105131860D01*
X69443432Y-105208698D01*
X69422809Y-105276684D01*
X69389320Y-105339337D01*
X69344252Y-105394252D01*
X69289337Y-105439320D01*
X69226684Y-105472809D01*
X69158698Y-105493432D01*
X69081860Y-105501000D01*
X68118140Y-105501000D01*
X68041302Y-105493432D01*
X67973316Y-105472809D01*
X67910663Y-105439320D01*
X67855748Y-105394252D01*
X67810680Y-105339337D01*
X67777191Y-105276684D01*
X67756568Y-105208698D01*
X67749000Y-105131860D01*
X67749000Y-104168140D01*
X67756568Y-104091302D01*
X67777191Y-104023316D01*
X67810680Y-103960663D01*
X67855748Y-103905748D01*
X67910663Y-103860680D01*
X67973316Y-103827191D01*
X68041302Y-103806568D01*
X68118140Y-103799000D01*
X69081860Y-103799000D01*
X69158698Y-103806568D01*
X69158698Y-103806568D01*
G37*
G36*
X84398698Y-103806568D02*
X84466684Y-103827191D01*
X84529337Y-103860680D01*
X84584252Y-103905748D01*
X84629320Y-103960663D01*
X84662809Y-104023316D01*
X84683432Y-104091302D01*
X84691000Y-104168140D01*
X84691000Y-105131860D01*
X84683432Y-105208698D01*
X84662809Y-105276684D01*
X84629320Y-105339337D01*
X84584252Y-105394252D01*
X84529337Y-105439320D01*
X84466684Y-105472809D01*
X84398698Y-105493432D01*
X84321860Y-105501000D01*
X83358140Y-105501000D01*
X83281302Y-105493432D01*
X83213316Y-105472809D01*
X83150663Y-105439320D01*
X83095748Y-105394252D01*
X83050680Y-105339337D01*
X83017191Y-105276684D01*
X82996568Y-105208698D01*
X82989000Y-105131860D01*
X82989000Y-104168140D01*
X82996568Y-104091302D01*
X83017191Y-104023316D01*
X83050680Y-103960663D01*
X83095748Y-103905748D01*
X83150663Y-103860680D01*
X83213316Y-103827191D01*
X83281302Y-103806568D01*
X83358140Y-103799000D01*
X84321860Y-103799000D01*
X84398698Y-103806568D01*
X84398698Y-103806568D01*
G37*
G36*
X115161000Y-105171000D02*
X114159000Y-105171000D01*
X114159000Y-104269000D01*
X115161000Y-104269000D01*
X115161000Y-105171000D01*
X115161000Y-105171000D01*
G37*
G36*
X123561000Y-104341000D02*
X118959000Y-104341000D01*
X118959000Y-103239000D01*
X123561000Y-103239000D01*
X123561000Y-104341000D01*
X123561000Y-104341000D01*
G37*
G36*
X113161000Y-104221000D02*
X112159000Y-104221000D01*
X112159000Y-103319000D01*
X113161000Y-103319000D01*
X113161000Y-104221000D01*
X113161000Y-104221000D01*
G37*
G36*
X110313062Y-102048181D02*
X110347977Y-102058773D01*
X110380165Y-102075978D01*
X110408373Y-102099127D01*
X110431522Y-102127335D01*
X110448727Y-102159523D01*
X110459319Y-102194438D01*
X110463500Y-102236895D01*
X110463500Y-103703105D01*
X110459319Y-103745562D01*
X110448727Y-103780477D01*
X110431522Y-103812665D01*
X110408373Y-103840873D01*
X110380165Y-103864022D01*
X110347977Y-103881227D01*
X110313062Y-103891819D01*
X110270605Y-103896000D01*
X109129395Y-103896000D01*
X109086938Y-103891819D01*
X109052023Y-103881227D01*
X109019835Y-103864022D01*
X108991627Y-103840873D01*
X108968478Y-103812665D01*
X108951273Y-103780477D01*
X108940681Y-103745562D01*
X108936500Y-103703105D01*
X108936500Y-102236895D01*
X108940681Y-102194438D01*
X108951273Y-102159523D01*
X108968478Y-102127335D01*
X108991627Y-102099127D01*
X109019835Y-102075978D01*
X109052023Y-102058773D01*
X109086938Y-102048181D01*
X109129395Y-102044000D01*
X110270605Y-102044000D01*
X110313062Y-102048181D01*
X110313062Y-102048181D01*
G37*
G36*
X107338062Y-102048181D02*
X107372977Y-102058773D01*
X107405165Y-102075978D01*
X107433373Y-102099127D01*
X107456522Y-102127335D01*
X107473727Y-102159523D01*
X107484319Y-102194438D01*
X107488500Y-102236895D01*
X107488500Y-103703105D01*
X107484319Y-103745562D01*
X107473727Y-103780477D01*
X107456522Y-103812665D01*
X107433373Y-103840873D01*
X107405165Y-103864022D01*
X107372977Y-103881227D01*
X107338062Y-103891819D01*
X107295605Y-103896000D01*
X106154395Y-103896000D01*
X106111938Y-103891819D01*
X106077023Y-103881227D01*
X106044835Y-103864022D01*
X106016627Y-103840873D01*
X105993478Y-103812665D01*
X105976273Y-103780477D01*
X105965681Y-103745562D01*
X105961500Y-103703105D01*
X105961500Y-102236895D01*
X105965681Y-102194438D01*
X105976273Y-102159523D01*
X105993478Y-102127335D01*
X106016627Y-102099127D01*
X106044835Y-102075978D01*
X106077023Y-102058773D01*
X106111938Y-102048181D01*
X106154395Y-102044000D01*
X107295605Y-102044000D01*
X107338062Y-102048181D01*
X107338062Y-102048181D01*
G37*
G36*
X84398698Y-101266568D02*
X84466684Y-101287191D01*
X84529337Y-101320680D01*
X84584252Y-101365748D01*
X84629320Y-101420663D01*
X84662809Y-101483316D01*
X84683432Y-101551302D01*
X84691000Y-101628140D01*
X84691000Y-102591860D01*
X84683432Y-102668698D01*
X84662809Y-102736684D01*
X84629320Y-102799337D01*
X84584252Y-102854252D01*
X84529337Y-102899320D01*
X84466684Y-102932809D01*
X84398698Y-102953432D01*
X84321860Y-102961000D01*
X83358140Y-102961000D01*
X83281302Y-102953432D01*
X83213316Y-102932809D01*
X83150663Y-102899320D01*
X83095748Y-102854252D01*
X83050680Y-102799337D01*
X83017191Y-102736684D01*
X82996568Y-102668698D01*
X82989000Y-102591860D01*
X82989000Y-101628140D01*
X82996568Y-101551302D01*
X83017191Y-101483316D01*
X83050680Y-101420663D01*
X83095748Y-101365748D01*
X83150663Y-101320680D01*
X83213316Y-101287191D01*
X83281302Y-101266568D01*
X83358140Y-101259000D01*
X84321860Y-101259000D01*
X84398698Y-101266568D01*
X84398698Y-101266568D01*
G37*
G36*
X69158698Y-101266568D02*
X69226684Y-101287191D01*
X69289337Y-101320680D01*
X69344252Y-101365748D01*
X69389320Y-101420663D01*
X69422809Y-101483316D01*
X69443432Y-101551302D01*
X69451000Y-101628140D01*
X69451000Y-102591860D01*
X69443432Y-102668698D01*
X69422809Y-102736684D01*
X69389320Y-102799337D01*
X69344252Y-102854252D01*
X69289337Y-102899320D01*
X69226684Y-102932809D01*
X69158698Y-102953432D01*
X69081860Y-102961000D01*
X68118140Y-102961000D01*
X68041302Y-102953432D01*
X67973316Y-102932809D01*
X67910663Y-102899320D01*
X67855748Y-102854252D01*
X67810680Y-102799337D01*
X67777191Y-102736684D01*
X67756568Y-102668698D01*
X67749000Y-102591860D01*
X67749000Y-101628140D01*
X67756568Y-101551302D01*
X67777191Y-101483316D01*
X67810680Y-101420663D01*
X67855748Y-101365748D01*
X67910663Y-101320680D01*
X67973316Y-101287191D01*
X68041302Y-101266568D01*
X68118140Y-101259000D01*
X69081860Y-101259000D01*
X69158698Y-101266568D01*
X69158698Y-101266568D01*
G37*
G36*
X123561000Y-101801000D02*
X118959000Y-101801000D01*
X118959000Y-100699000D01*
X123561000Y-100699000D01*
X123561000Y-101801000D01*
X123561000Y-101801000D01*
G37*
G36*
X84398698Y-98726568D02*
X84466684Y-98747191D01*
X84529337Y-98780680D01*
X84584252Y-98825748D01*
X84629320Y-98880663D01*
X84662809Y-98943316D01*
X84683432Y-99011302D01*
X84691000Y-99088140D01*
X84691000Y-100051860D01*
X84683432Y-100128698D01*
X84662809Y-100196684D01*
X84629320Y-100259337D01*
X84584252Y-100314252D01*
X84529337Y-100359320D01*
X84466684Y-100392809D01*
X84398698Y-100413432D01*
X84321860Y-100421000D01*
X83358140Y-100421000D01*
X83281302Y-100413432D01*
X83213316Y-100392809D01*
X83150663Y-100359320D01*
X83095748Y-100314252D01*
X83050680Y-100259337D01*
X83017191Y-100196684D01*
X82996568Y-100128698D01*
X82989000Y-100051860D01*
X82989000Y-99088140D01*
X82996568Y-99011302D01*
X83017191Y-98943316D01*
X83050680Y-98880663D01*
X83095748Y-98825748D01*
X83150663Y-98780680D01*
X83213316Y-98747191D01*
X83281302Y-98726568D01*
X83358140Y-98719000D01*
X84321860Y-98719000D01*
X84398698Y-98726568D01*
X84398698Y-98726568D01*
G37*
G36*
X69158698Y-98726568D02*
X69226684Y-98747191D01*
X69289337Y-98780680D01*
X69344252Y-98825748D01*
X69389320Y-98880663D01*
X69422809Y-98943316D01*
X69443432Y-99011302D01*
X69451000Y-99088140D01*
X69451000Y-100051860D01*
X69443432Y-100128698D01*
X69422809Y-100196684D01*
X69389320Y-100259337D01*
X69344252Y-100314252D01*
X69289337Y-100359320D01*
X69226684Y-100392809D01*
X69158698Y-100413432D01*
X69081860Y-100421000D01*
X68118140Y-100421000D01*
X68041302Y-100413432D01*
X67973316Y-100392809D01*
X67910663Y-100359320D01*
X67855748Y-100314252D01*
X67810680Y-100259337D01*
X67777191Y-100196684D01*
X67756568Y-100128698D01*
X67749000Y-100051860D01*
X67749000Y-99088140D01*
X67756568Y-99011302D01*
X67777191Y-98943316D01*
X67810680Y-98880663D01*
X67855748Y-98825748D01*
X67910663Y-98780680D01*
X67973316Y-98747191D01*
X68041302Y-98726568D01*
X68118140Y-98719000D01*
X69081860Y-98719000D01*
X69158698Y-98726568D01*
X69158698Y-98726568D01*
G37*
G36*
X109758698Y-96766568D02*
X109826684Y-96787191D01*
X109889337Y-96820680D01*
X109944252Y-96865748D01*
X109989320Y-96920663D01*
X110022809Y-96983316D01*
X110043432Y-97051302D01*
X110051000Y-97128140D01*
X110051000Y-98091860D01*
X110043432Y-98168698D01*
X110022809Y-98236684D01*
X109989320Y-98299337D01*
X109944252Y-98354252D01*
X109889337Y-98399320D01*
X109826684Y-98432809D01*
X109758698Y-98453432D01*
X109681860Y-98461000D01*
X108718140Y-98461000D01*
X108641302Y-98453432D01*
X108573316Y-98432809D01*
X108510663Y-98399320D01*
X108455748Y-98354252D01*
X108410680Y-98299337D01*
X108377191Y-98236684D01*
X108356568Y-98168698D01*
X108349000Y-98091860D01*
X108349000Y-97128140D01*
X108356568Y-97051302D01*
X108377191Y-96983316D01*
X108410680Y-96920663D01*
X108455748Y-96865748D01*
X108510663Y-96820680D01*
X108573316Y-96787191D01*
X108641302Y-96766568D01*
X108718140Y-96759000D01*
X109681860Y-96759000D01*
X109758698Y-96766568D01*
X109758698Y-96766568D01*
G37*
G36*
X84398698Y-96186568D02*
X84466684Y-96207191D01*
X84529337Y-96240680D01*
X84584252Y-96285748D01*
X84629320Y-96340663D01*
X84662809Y-96403316D01*
X84683432Y-96471302D01*
X84691000Y-96548140D01*
X84691000Y-97511860D01*
X84683432Y-97588698D01*
X84662809Y-97656684D01*
X84629320Y-97719337D01*
X84584252Y-97774252D01*
X84529337Y-97819320D01*
X84466684Y-97852809D01*
X84398698Y-97873432D01*
X84321860Y-97881000D01*
X83358140Y-97881000D01*
X83281302Y-97873432D01*
X83213316Y-97852809D01*
X83150663Y-97819320D01*
X83095748Y-97774252D01*
X83050680Y-97719337D01*
X83017191Y-97656684D01*
X82996568Y-97588698D01*
X82989000Y-97511860D01*
X82989000Y-96548140D01*
X82996568Y-96471302D01*
X83017191Y-96403316D01*
X83050680Y-96340663D01*
X83095748Y-96285748D01*
X83150663Y-96240680D01*
X83213316Y-96207191D01*
X83281302Y-96186568D01*
X83358140Y-96179000D01*
X84321860Y-96179000D01*
X84398698Y-96186568D01*
X84398698Y-96186568D01*
G37*
G36*
X69158698Y-96186568D02*
X69226684Y-96207191D01*
X69289337Y-96240680D01*
X69344252Y-96285748D01*
X69389320Y-96340663D01*
X69422809Y-96403316D01*
X69443432Y-96471302D01*
X69451000Y-96548140D01*
X69451000Y-97511860D01*
X69443432Y-97588698D01*
X69422809Y-97656684D01*
X69389320Y-97719337D01*
X69344252Y-97774252D01*
X69289337Y-97819320D01*
X69226684Y-97852809D01*
X69158698Y-97873432D01*
X69081860Y-97881000D01*
X68118140Y-97881000D01*
X68041302Y-97873432D01*
X67973316Y-97852809D01*
X67910663Y-97819320D01*
X67855748Y-97774252D01*
X67810680Y-97719337D01*
X67777191Y-97656684D01*
X67756568Y-97588698D01*
X67749000Y-97511860D01*
X67749000Y-96548140D01*
X67756568Y-96471302D01*
X67777191Y-96403316D01*
X67810680Y-96340663D01*
X67855748Y-96285748D01*
X67910663Y-96240680D01*
X67973316Y-96207191D01*
X68041302Y-96186568D01*
X68118140Y-96179000D01*
X69081860Y-96179000D01*
X69158698Y-96186568D01*
X69158698Y-96186568D01*
G37*
G36*
X99958998Y-95522768D02*
X100026984Y-95543391D01*
X100089637Y-95576880D01*
X100144552Y-95621948D01*
X100189620Y-95676863D01*
X100223109Y-95739516D01*
X100243732Y-95807502D01*
X100251300Y-95884340D01*
X100251300Y-96848060D01*
X100243732Y-96924898D01*
X100223109Y-96992884D01*
X100189620Y-97055537D01*
X100144552Y-97110452D01*
X100089637Y-97155520D01*
X100026984Y-97189009D01*
X99958998Y-97209632D01*
X99882160Y-97217200D01*
X98918440Y-97217200D01*
X98841602Y-97209632D01*
X98773616Y-97189009D01*
X98710963Y-97155520D01*
X98656048Y-97110452D01*
X98610980Y-97055537D01*
X98577491Y-96992884D01*
X98556868Y-96924898D01*
X98549300Y-96848060D01*
X98549300Y-95884340D01*
X98556868Y-95807502D01*
X98577491Y-95739516D01*
X98610980Y-95676863D01*
X98656048Y-95621948D01*
X98710963Y-95576880D01*
X98773616Y-95543391D01*
X98841602Y-95522768D01*
X98918440Y-95515200D01*
X99882160Y-95515200D01*
X99958998Y-95522768D01*
X99958998Y-95522768D01*
G37*
G36*
X103210198Y-95522768D02*
X103278184Y-95543391D01*
X103340837Y-95576880D01*
X103395752Y-95621948D01*
X103440820Y-95676863D01*
X103474309Y-95739516D01*
X103494932Y-95807502D01*
X103502500Y-95884340D01*
X103502500Y-96848060D01*
X103494932Y-96924898D01*
X103474309Y-96992884D01*
X103440820Y-97055537D01*
X103395752Y-97110452D01*
X103340837Y-97155520D01*
X103278184Y-97189009D01*
X103210198Y-97209632D01*
X103133360Y-97217200D01*
X102169640Y-97217200D01*
X102092802Y-97209632D01*
X102024816Y-97189009D01*
X101962163Y-97155520D01*
X101907248Y-97110452D01*
X101862180Y-97055537D01*
X101828691Y-96992884D01*
X101808068Y-96924898D01*
X101800500Y-96848060D01*
X101800500Y-95884340D01*
X101808068Y-95807502D01*
X101828691Y-95739516D01*
X101862180Y-95676863D01*
X101907248Y-95621948D01*
X101962163Y-95576880D01*
X102024816Y-95543391D01*
X102092802Y-95522768D01*
X102169640Y-95515200D01*
X103133360Y-95515200D01*
X103210198Y-95522768D01*
X103210198Y-95522768D01*
G37*
G36*
X89354498Y-95459268D02*
X89422484Y-95479891D01*
X89485137Y-95513380D01*
X89540052Y-95558448D01*
X89585120Y-95613363D01*
X89618609Y-95676016D01*
X89639232Y-95744002D01*
X89646800Y-95820840D01*
X89646800Y-96784560D01*
X89639232Y-96861398D01*
X89618609Y-96929384D01*
X89585120Y-96992037D01*
X89540052Y-97046952D01*
X89485137Y-97092020D01*
X89422484Y-97125509D01*
X89354498Y-97146132D01*
X89277660Y-97153700D01*
X88313940Y-97153700D01*
X88237102Y-97146132D01*
X88169116Y-97125509D01*
X88106463Y-97092020D01*
X88051548Y-97046952D01*
X88006480Y-96992037D01*
X87972991Y-96929384D01*
X87952368Y-96861398D01*
X87944800Y-96784560D01*
X87944800Y-95820840D01*
X87952368Y-95744002D01*
X87972991Y-95676016D01*
X88006480Y-95613363D01*
X88051548Y-95558448D01*
X88106463Y-95513380D01*
X88169116Y-95479891D01*
X88237102Y-95459268D01*
X88313940Y-95451700D01*
X89277660Y-95451700D01*
X89354498Y-95459268D01*
X89354498Y-95459268D01*
G37*
G36*
X92973998Y-95459268D02*
X93041984Y-95479891D01*
X93104637Y-95513380D01*
X93159552Y-95558448D01*
X93204620Y-95613363D01*
X93238109Y-95676016D01*
X93258732Y-95744002D01*
X93266300Y-95820840D01*
X93266300Y-96784560D01*
X93258732Y-96861398D01*
X93238109Y-96929384D01*
X93204620Y-96992037D01*
X93159552Y-97046952D01*
X93104637Y-97092020D01*
X93041984Y-97125509D01*
X92973998Y-97146132D01*
X92897160Y-97153700D01*
X91933440Y-97153700D01*
X91856602Y-97146132D01*
X91788616Y-97125509D01*
X91725963Y-97092020D01*
X91671048Y-97046952D01*
X91625980Y-96992037D01*
X91592491Y-96929384D01*
X91571868Y-96861398D01*
X91564300Y-96784560D01*
X91564300Y-95820840D01*
X91571868Y-95744002D01*
X91592491Y-95676016D01*
X91625980Y-95613363D01*
X91671048Y-95558448D01*
X91725963Y-95513380D01*
X91788616Y-95479891D01*
X91856602Y-95459268D01*
X91933440Y-95451700D01*
X92897160Y-95451700D01*
X92973998Y-95459268D01*
X92973998Y-95459268D01*
G37*
G36*
X109758698Y-94226568D02*
X109826684Y-94247191D01*
X109889337Y-94280680D01*
X109944252Y-94325748D01*
X109989320Y-94380663D01*
X110022809Y-94443316D01*
X110043432Y-94511302D01*
X110051000Y-94588140D01*
X110051000Y-95551860D01*
X110043432Y-95628698D01*
X110022809Y-95696684D01*
X109989320Y-95759337D01*
X109944252Y-95814252D01*
X109889337Y-95859320D01*
X109826684Y-95892809D01*
X109758698Y-95913432D01*
X109681860Y-95921000D01*
X108718140Y-95921000D01*
X108641302Y-95913432D01*
X108573316Y-95892809D01*
X108510663Y-95859320D01*
X108455748Y-95814252D01*
X108410680Y-95759337D01*
X108377191Y-95696684D01*
X108356568Y-95628698D01*
X108349000Y-95551860D01*
X108349000Y-94588140D01*
X108356568Y-94511302D01*
X108377191Y-94443316D01*
X108410680Y-94380663D01*
X108455748Y-94325748D01*
X108510663Y-94280680D01*
X108573316Y-94247191D01*
X108641302Y-94226568D01*
X108718140Y-94219000D01*
X109681860Y-94219000D01*
X109758698Y-94226568D01*
X109758698Y-94226568D01*
G37*
G36*
X84398698Y-93646568D02*
X84466684Y-93667191D01*
X84529337Y-93700680D01*
X84584252Y-93745748D01*
X84629320Y-93800663D01*
X84662809Y-93863316D01*
X84683432Y-93931302D01*
X84691000Y-94008140D01*
X84691000Y-94971860D01*
X84683432Y-95048698D01*
X84662809Y-95116684D01*
X84629320Y-95179337D01*
X84584252Y-95234252D01*
X84529337Y-95279320D01*
X84466684Y-95312809D01*
X84398698Y-95333432D01*
X84321860Y-95341000D01*
X83358140Y-95341000D01*
X83281302Y-95333432D01*
X83213316Y-95312809D01*
X83150663Y-95279320D01*
X83095748Y-95234252D01*
X83050680Y-95179337D01*
X83017191Y-95116684D01*
X82996568Y-95048698D01*
X82989000Y-94971860D01*
X82989000Y-94008140D01*
X82996568Y-93931302D01*
X83017191Y-93863316D01*
X83050680Y-93800663D01*
X83095748Y-93745748D01*
X83150663Y-93700680D01*
X83213316Y-93667191D01*
X83281302Y-93646568D01*
X83358140Y-93639000D01*
X84321860Y-93639000D01*
X84398698Y-93646568D01*
X84398698Y-93646568D01*
G37*
G36*
X69158698Y-93646568D02*
X69226684Y-93667191D01*
X69289337Y-93700680D01*
X69344252Y-93745748D01*
X69389320Y-93800663D01*
X69422809Y-93863316D01*
X69443432Y-93931302D01*
X69451000Y-94008140D01*
X69451000Y-94971860D01*
X69443432Y-95048698D01*
X69422809Y-95116684D01*
X69389320Y-95179337D01*
X69344252Y-95234252D01*
X69289337Y-95279320D01*
X69226684Y-95312809D01*
X69158698Y-95333432D01*
X69081860Y-95341000D01*
X68118140Y-95341000D01*
X68041302Y-95333432D01*
X67973316Y-95312809D01*
X67910663Y-95279320D01*
X67855748Y-95234252D01*
X67810680Y-95179337D01*
X67777191Y-95116684D01*
X67756568Y-95048698D01*
X67749000Y-94971860D01*
X67749000Y-94008140D01*
X67756568Y-93931302D01*
X67777191Y-93863316D01*
X67810680Y-93800663D01*
X67855748Y-93745748D01*
X67910663Y-93700680D01*
X67973316Y-93667191D01*
X68041302Y-93646568D01*
X68118140Y-93639000D01*
X69081860Y-93639000D01*
X69158698Y-93646568D01*
X69158698Y-93646568D01*
G37*
G36*
X109758698Y-91686568D02*
X109826684Y-91707191D01*
X109889337Y-91740680D01*
X109944252Y-91785748D01*
X109989320Y-91840663D01*
X110022809Y-91903316D01*
X110043432Y-91971302D01*
X110051000Y-92048140D01*
X110051000Y-93011860D01*
X110043432Y-93088698D01*
X110022809Y-93156684D01*
X109989320Y-93219337D01*
X109944252Y-93274252D01*
X109889337Y-93319320D01*
X109826684Y-93352809D01*
X109758698Y-93373432D01*
X109681860Y-93381000D01*
X108718140Y-93381000D01*
X108641302Y-93373432D01*
X108573316Y-93352809D01*
X108510663Y-93319320D01*
X108455748Y-93274252D01*
X108410680Y-93219337D01*
X108377191Y-93156684D01*
X108356568Y-93088698D01*
X108349000Y-93011860D01*
X108349000Y-92048140D01*
X108356568Y-91971302D01*
X108377191Y-91903316D01*
X108410680Y-91840663D01*
X108455748Y-91785748D01*
X108510663Y-91740680D01*
X108573316Y-91707191D01*
X108641302Y-91686568D01*
X108718140Y-91679000D01*
X109681860Y-91679000D01*
X109758698Y-91686568D01*
X109758698Y-91686568D01*
G37*
G36*
X84398698Y-91106568D02*
X84466684Y-91127191D01*
X84529337Y-91160680D01*
X84584252Y-91205748D01*
X84629320Y-91260663D01*
X84662809Y-91323316D01*
X84683432Y-91391302D01*
X84691000Y-91468140D01*
X84691000Y-92431860D01*
X84683432Y-92508698D01*
X84662809Y-92576684D01*
X84629320Y-92639337D01*
X84584252Y-92694252D01*
X84529337Y-92739320D01*
X84466684Y-92772809D01*
X84398698Y-92793432D01*
X84321860Y-92801000D01*
X83358140Y-92801000D01*
X83281302Y-92793432D01*
X83213316Y-92772809D01*
X83150663Y-92739320D01*
X83095748Y-92694252D01*
X83050680Y-92639337D01*
X83017191Y-92576684D01*
X82996568Y-92508698D01*
X82989000Y-92431860D01*
X82989000Y-91468140D01*
X82996568Y-91391302D01*
X83017191Y-91323316D01*
X83050680Y-91260663D01*
X83095748Y-91205748D01*
X83150663Y-91160680D01*
X83213316Y-91127191D01*
X83281302Y-91106568D01*
X83358140Y-91099000D01*
X84321860Y-91099000D01*
X84398698Y-91106568D01*
X84398698Y-91106568D01*
G37*
G36*
X69158698Y-91106568D02*
X69226684Y-91127191D01*
X69289337Y-91160680D01*
X69344252Y-91205748D01*
X69389320Y-91260663D01*
X69422809Y-91323316D01*
X69443432Y-91391302D01*
X69451000Y-91468140D01*
X69451000Y-92431860D01*
X69443432Y-92508698D01*
X69422809Y-92576684D01*
X69389320Y-92639337D01*
X69344252Y-92694252D01*
X69289337Y-92739320D01*
X69226684Y-92772809D01*
X69158698Y-92793432D01*
X69081860Y-92801000D01*
X68118140Y-92801000D01*
X68041302Y-92793432D01*
X67973316Y-92772809D01*
X67910663Y-92739320D01*
X67855748Y-92694252D01*
X67810680Y-92639337D01*
X67777191Y-92576684D01*
X67756568Y-92508698D01*
X67749000Y-92431860D01*
X67749000Y-91468140D01*
X67756568Y-91391302D01*
X67777191Y-91323316D01*
X67810680Y-91260663D01*
X67855748Y-91205748D01*
X67910663Y-91160680D01*
X67973316Y-91127191D01*
X68041302Y-91106568D01*
X68118140Y-91099000D01*
X69081860Y-91099000D01*
X69158698Y-91106568D01*
X69158698Y-91106568D01*
G37*
G36*
X95208228Y-90001703D02*
X95363100Y-90065853D01*
X95502481Y-90158985D01*
X95621015Y-90277519D01*
X95714147Y-90416900D01*
X95778297Y-90571772D01*
X95811000Y-90736184D01*
X95811000Y-90903816D01*
X95778297Y-91068228D01*
X95714147Y-91223100D01*
X95621015Y-91362481D01*
X95502481Y-91481015D01*
X95363100Y-91574147D01*
X95208228Y-91638297D01*
X95043816Y-91671000D01*
X94876184Y-91671000D01*
X94711772Y-91638297D01*
X94556900Y-91574147D01*
X94417519Y-91481015D01*
X94298985Y-91362481D01*
X94205853Y-91223100D01*
X94141703Y-91068228D01*
X94109000Y-90903816D01*
X94109000Y-90736184D01*
X94141703Y-90571772D01*
X94205853Y-90416900D01*
X94298985Y-90277519D01*
X94417519Y-90158985D01*
X94556900Y-90065853D01*
X94711772Y-90001703D01*
X94876184Y-89969000D01*
X95043816Y-89969000D01*
X95208228Y-90001703D01*
X95208228Y-90001703D01*
G37*
G36*
X92668228Y-90001703D02*
X92823100Y-90065853D01*
X92962481Y-90158985D01*
X93081015Y-90277519D01*
X93174147Y-90416900D01*
X93238297Y-90571772D01*
X93271000Y-90736184D01*
X93271000Y-90903816D01*
X93238297Y-91068228D01*
X93174147Y-91223100D01*
X93081015Y-91362481D01*
X92962481Y-91481015D01*
X92823100Y-91574147D01*
X92668228Y-91638297D01*
X92503816Y-91671000D01*
X92336184Y-91671000D01*
X92171772Y-91638297D01*
X92016900Y-91574147D01*
X91877519Y-91481015D01*
X91758985Y-91362481D01*
X91665853Y-91223100D01*
X91601703Y-91068228D01*
X91569000Y-90903816D01*
X91569000Y-90736184D01*
X91601703Y-90571772D01*
X91665853Y-90416900D01*
X91758985Y-90277519D01*
X91877519Y-90158985D01*
X92016900Y-90065853D01*
X92171772Y-90001703D01*
X92336184Y-89969000D01*
X92503816Y-89969000D01*
X92668228Y-90001703D01*
X92668228Y-90001703D01*
G37*
G36*
X58944320Y-77424600D02*
X55842320Y-77424600D01*
X55842320Y-75322600D01*
X58944320Y-75322600D01*
X58944320Y-77424600D01*
X58944320Y-77424600D01*
G37*
G36*
X61324300Y-74791000D02*
X58222300Y-74791000D01*
X58222300Y-73689000D01*
X61324300Y-73689000D01*
X61324300Y-74791000D01*
X61324300Y-74791000D01*
G37*
G36*
X61324300Y-71781100D02*
X58222300Y-71781100D01*
X58222300Y-70679100D01*
X61324300Y-70679100D01*
X61324300Y-71781100D01*
X61324300Y-71781100D01*
G37*
G36*
X61324300Y-70079300D02*
X58222300Y-70079300D01*
X58222300Y-68977300D01*
X61324300Y-68977300D01*
X61324300Y-70079300D01*
X61324300Y-70079300D01*
G37*
G36*
X58974800Y-68458400D02*
X55872800Y-68458400D01*
X55872800Y-66356400D01*
X58974800Y-66356400D01*
X58974800Y-68458400D01*
X58974800Y-68458400D01*
G37*
G36*
X127944096Y-59047033D02*
X127944098Y-59047034D01*
X127944099Y-59047034D01*
X128408352Y-59239333D01*
X128751338Y-59468509D01*
X128826171Y-59518511D01*
X129181489Y-59873829D01*
X129181491Y-59873832D01*
X129460667Y-60291648D01*
X129652966Y-60755901D01*
X129652967Y-60755904D01*
X129751000Y-61248747D01*
X129751000Y-61751253D01*
X129662913Y-62194096D01*
X129652966Y-62244099D01*
X129460667Y-62708352D01*
X129214900Y-63076168D01*
X129181489Y-63126171D01*
X128826171Y-63481489D01*
X128826168Y-63481491D01*
X128408352Y-63760667D01*
X127944099Y-63952966D01*
X127944098Y-63952966D01*
X127944096Y-63952967D01*
X127451253Y-64051000D01*
X126948747Y-64051000D01*
X126455904Y-63952967D01*
X126455902Y-63952966D01*
X126455901Y-63952966D01*
X125991648Y-63760667D01*
X125573832Y-63481491D01*
X125573829Y-63481489D01*
X125218511Y-63126171D01*
X125185100Y-63076168D01*
X124939333Y-62708352D01*
X124747034Y-62244099D01*
X124737088Y-62194096D01*
X124649000Y-61751253D01*
X124649000Y-61248747D01*
X124747033Y-60755904D01*
X124747034Y-60755901D01*
X124939333Y-60291648D01*
X125218509Y-59873832D01*
X125218511Y-59873829D01*
X125573829Y-59518511D01*
X125648662Y-59468509D01*
X125991648Y-59239333D01*
X126455901Y-59047034D01*
X126455902Y-59047034D01*
X126455904Y-59047033D01*
X126948747Y-58949000D01*
X127451253Y-58949000D01*
X127944096Y-59047033D01*
X127944096Y-59047033D01*
G37*
G36*
X61544096Y-58997033D02*
X61544098Y-58997034D01*
X61544099Y-58997034D01*
X62008352Y-59189333D01*
X62424284Y-59467250D01*
X62426171Y-59468511D01*
X62781489Y-59823829D01*
X62781491Y-59823832D01*
X63060667Y-60241648D01*
X63252966Y-60705901D01*
X63252967Y-60705904D01*
X63351000Y-61198747D01*
X63351000Y-61701253D01*
X63274291Y-62086895D01*
X63252966Y-62194099D01*
X63060667Y-62658352D01*
X62782750Y-63074284D01*
X62781489Y-63076171D01*
X62426171Y-63431489D01*
X62426168Y-63431491D01*
X62008352Y-63710667D01*
X61544099Y-63902966D01*
X61544098Y-63902966D01*
X61544096Y-63902967D01*
X61051253Y-64001000D01*
X60548747Y-64001000D01*
X60055904Y-63902967D01*
X60055902Y-63902966D01*
X60055901Y-63902966D01*
X59591648Y-63710667D01*
X59173832Y-63431491D01*
X59173829Y-63431489D01*
X58818511Y-63076171D01*
X58817250Y-63074284D01*
X58539333Y-62658352D01*
X58347034Y-62194099D01*
X58325710Y-62086895D01*
X58249000Y-61701253D01*
X58249000Y-61198747D01*
X58347033Y-60705904D01*
X58347034Y-60705901D01*
X58539333Y-60241648D01*
X58818509Y-59823832D01*
X58818511Y-59823829D01*
X59173829Y-59468511D01*
X59175716Y-59467250D01*
X59591648Y-59189333D01*
X60055901Y-58997034D01*
X60055902Y-58997034D01*
X60055904Y-58997033D01*
X60548747Y-58899000D01*
X61051253Y-58899000D01*
X61544096Y-58997033D01*
X61544096Y-58997033D01*
G37*
G36*
X87985562Y-61898181D02*
X88020477Y-61908773D01*
X88052665Y-61925978D01*
X88080873Y-61949127D01*
X88104022Y-61977335D01*
X88121227Y-62009523D01*
X88131819Y-62044438D01*
X88136000Y-62086895D01*
X88136000Y-63228105D01*
X88131819Y-63270562D01*
X88121227Y-63305477D01*
X88104022Y-63337665D01*
X88080873Y-63365873D01*
X88052665Y-63389022D01*
X88020477Y-63406227D01*
X87985562Y-63416819D01*
X87943105Y-63421000D01*
X86476895Y-63421000D01*
X86434438Y-63416819D01*
X86399523Y-63406227D01*
X86367335Y-63389022D01*
X86339127Y-63365873D01*
X86315978Y-63337665D01*
X86298773Y-63305477D01*
X86288181Y-63270562D01*
X86284000Y-63228105D01*
X86284000Y-62086895D01*
X86288181Y-62044438D01*
X86298773Y-62009523D01*
X86315978Y-61977335D01*
X86339127Y-61949127D01*
X86367335Y-61925978D01*
X86399523Y-61908773D01*
X86434438Y-61898181D01*
X86476895Y-61894000D01*
X87943105Y-61894000D01*
X87985562Y-61898181D01*
X87985562Y-61898181D01*
G37*
G36*
X84155562Y-61898181D02*
X84190477Y-61908773D01*
X84222665Y-61925978D01*
X84250873Y-61949127D01*
X84274022Y-61977335D01*
X84291227Y-62009523D01*
X84301819Y-62044438D01*
X84306000Y-62086895D01*
X84306000Y-63228105D01*
X84301819Y-63270562D01*
X84291227Y-63305477D01*
X84274022Y-63337665D01*
X84250873Y-63365873D01*
X84222665Y-63389022D01*
X84190477Y-63406227D01*
X84155562Y-63416819D01*
X84113105Y-63421000D01*
X82646895Y-63421000D01*
X82604438Y-63416819D01*
X82569523Y-63406227D01*
X82537335Y-63389022D01*
X82509127Y-63365873D01*
X82485978Y-63337665D01*
X82468773Y-63305477D01*
X82458181Y-63270562D01*
X82454000Y-63228105D01*
X82454000Y-62086895D01*
X82458181Y-62044438D01*
X82468773Y-62009523D01*
X82485978Y-61977335D01*
X82509127Y-61949127D01*
X82537335Y-61925978D01*
X82569523Y-61908773D01*
X82604438Y-61898181D01*
X82646895Y-61894000D01*
X84113105Y-61894000D01*
X84155562Y-61898181D01*
X84155562Y-61898181D01*
G37*
G36*
X87985562Y-58923181D02*
X88020477Y-58933773D01*
X88052665Y-58950978D01*
X88080873Y-58974127D01*
X88104022Y-59002335D01*
X88121227Y-59034523D01*
X88131819Y-59069438D01*
X88136000Y-59111895D01*
X88136000Y-60253105D01*
X88131819Y-60295562D01*
X88121227Y-60330477D01*
X88104022Y-60362665D01*
X88080873Y-60390873D01*
X88052665Y-60414022D01*
X88020477Y-60431227D01*
X87985562Y-60441819D01*
X87943105Y-60446000D01*
X86476895Y-60446000D01*
X86434438Y-60441819D01*
X86399523Y-60431227D01*
X86367335Y-60414022D01*
X86339127Y-60390873D01*
X86315978Y-60362665D01*
X86298773Y-60330477D01*
X86288181Y-60295562D01*
X86284000Y-60253105D01*
X86284000Y-59111895D01*
X86288181Y-59069438D01*
X86298773Y-59034523D01*
X86315978Y-59002335D01*
X86339127Y-58974127D01*
X86367335Y-58950978D01*
X86399523Y-58933773D01*
X86434438Y-58923181D01*
X86476895Y-58919000D01*
X87943105Y-58919000D01*
X87985562Y-58923181D01*
X87985562Y-58923181D01*
G37*
G36*
X84155562Y-58923181D02*
X84190477Y-58933773D01*
X84222665Y-58950978D01*
X84250873Y-58974127D01*
X84274022Y-59002335D01*
X84291227Y-59034523D01*
X84301819Y-59069438D01*
X84306000Y-59111895D01*
X84306000Y-60253105D01*
X84301819Y-60295562D01*
X84291227Y-60330477D01*
X84274022Y-60362665D01*
X84250873Y-60390873D01*
X84222665Y-60414022D01*
X84190477Y-60431227D01*
X84155562Y-60441819D01*
X84113105Y-60446000D01*
X82646895Y-60446000D01*
X82604438Y-60441819D01*
X82569523Y-60431227D01*
X82537335Y-60414022D01*
X82509127Y-60390873D01*
X82485978Y-60362665D01*
X82468773Y-60330477D01*
X82458181Y-60295562D01*
X82454000Y-60253105D01*
X82454000Y-59111895D01*
X82458181Y-59069438D01*
X82468773Y-59034523D01*
X82485978Y-59002335D01*
X82509127Y-58974127D01*
X82537335Y-58950978D01*
X82569523Y-58933773D01*
X82604438Y-58923181D01*
X82646895Y-58919000D01*
X84113105Y-58919000D01*
X84155562Y-58923181D01*
X84155562Y-58923181D01*
G37*
G36*
X94794096Y-53247033D02*
X94794098Y-53247034D01*
X94794099Y-53247034D01*
X95258352Y-53439333D01*
X95573881Y-53650163D01*
X95676171Y-53718511D01*
X96031489Y-54073829D01*
X96031491Y-54073832D01*
X96310667Y-54491648D01*
X96467638Y-54870611D01*
X96502967Y-54955904D01*
X96601000Y-55448747D01*
X96601000Y-55951253D01*
X96503583Y-56441000D01*
X96502966Y-56444099D01*
X96310667Y-56908352D01*
X96032750Y-57324284D01*
X96031489Y-57326171D01*
X95676171Y-57681489D01*
X95676168Y-57681491D01*
X95258352Y-57960667D01*
X94794099Y-58152966D01*
X94794098Y-58152966D01*
X94794096Y-58152967D01*
X94301253Y-58251000D01*
X93798747Y-58251000D01*
X93305904Y-58152967D01*
X93305902Y-58152966D01*
X93305901Y-58152966D01*
X92841648Y-57960667D01*
X92423832Y-57681491D01*
X92423829Y-57681489D01*
X92068511Y-57326171D01*
X92067250Y-57324284D01*
X91789333Y-56908352D01*
X91597034Y-56444099D01*
X91596418Y-56441000D01*
X91499000Y-55951253D01*
X91499000Y-55448747D01*
X91597033Y-54955904D01*
X91632362Y-54870611D01*
X91789333Y-54491648D01*
X92068509Y-54073832D01*
X92068511Y-54073829D01*
X92423829Y-53718511D01*
X92526119Y-53650163D01*
X92841648Y-53439333D01*
X93305901Y-53247034D01*
X93305902Y-53247034D01*
X93305904Y-53247033D01*
X93798747Y-53149000D01*
X94301253Y-53149000D01*
X94794096Y-53247033D01*
X94794096Y-53247033D01*
G37*
G36*
X101568228Y-54771703D02*
X101723100Y-54835853D01*
X101862481Y-54928985D01*
X101981015Y-55047519D01*
X102074147Y-55186900D01*
X102138297Y-55341772D01*
X102171000Y-55506184D01*
X102171000Y-55673816D01*
X102138297Y-55838228D01*
X102074147Y-55993100D01*
X101981015Y-56132481D01*
X101862481Y-56251015D01*
X101723100Y-56344147D01*
X101568228Y-56408297D01*
X101403816Y-56441000D01*
X101236184Y-56441000D01*
X101071772Y-56408297D01*
X100916900Y-56344147D01*
X100777519Y-56251015D01*
X100658985Y-56132481D01*
X100565853Y-55993100D01*
X100501703Y-55838228D01*
X100469000Y-55673816D01*
X100469000Y-55506184D01*
X100501703Y-55341772D01*
X100565853Y-55186900D01*
X100658985Y-55047519D01*
X100777519Y-54928985D01*
X100916900Y-54835853D01*
X101071772Y-54771703D01*
X101236184Y-54739000D01*
X101403816Y-54739000D01*
X101568228Y-54771703D01*
X101568228Y-54771703D01*
G37*
G36*
X104108228Y-54771703D02*
X104263100Y-54835853D01*
X104402481Y-54928985D01*
X104521015Y-55047519D01*
X104614147Y-55186900D01*
X104678297Y-55341772D01*
X104711000Y-55506184D01*
X104711000Y-55673816D01*
X104678297Y-55838228D01*
X104614147Y-55993100D01*
X104521015Y-56132481D01*
X104402481Y-56251015D01*
X104263100Y-56344147D01*
X104108228Y-56408297D01*
X103943816Y-56441000D01*
X103776184Y-56441000D01*
X103611772Y-56408297D01*
X103456900Y-56344147D01*
X103317519Y-56251015D01*
X103198985Y-56132481D01*
X103105853Y-55993100D01*
X103041703Y-55838228D01*
X103009000Y-55673816D01*
X103009000Y-55506184D01*
X103041703Y-55341772D01*
X103105853Y-55186900D01*
X103198985Y-55047519D01*
X103317519Y-54928985D01*
X103456900Y-54835853D01*
X103611772Y-54771703D01*
X103776184Y-54739000D01*
X103943816Y-54739000D01*
X104108228Y-54771703D01*
X104108228Y-54771703D01*
G37*
G36*
X99028228Y-54771703D02*
X99183100Y-54835853D01*
X99322481Y-54928985D01*
X99441015Y-55047519D01*
X99534147Y-55186900D01*
X99598297Y-55341772D01*
X99631000Y-55506184D01*
X99631000Y-55673816D01*
X99598297Y-55838228D01*
X99534147Y-55993100D01*
X99441015Y-56132481D01*
X99322481Y-56251015D01*
X99183100Y-56344147D01*
X99028228Y-56408297D01*
X98863816Y-56441000D01*
X98696184Y-56441000D01*
X98531772Y-56408297D01*
X98376900Y-56344147D01*
X98237519Y-56251015D01*
X98118985Y-56132481D01*
X98025853Y-55993100D01*
X97961703Y-55838228D01*
X97929000Y-55673816D01*
X97929000Y-55506184D01*
X97961703Y-55341772D01*
X98025853Y-55186900D01*
X98118985Y-55047519D01*
X98237519Y-54928985D01*
X98376900Y-54835853D01*
X98531772Y-54771703D01*
X98696184Y-54739000D01*
X98863816Y-54739000D01*
X99028228Y-54771703D01*
X99028228Y-54771703D01*
G37*
G36*
X106648228Y-54771703D02*
X106803100Y-54835853D01*
X106942481Y-54928985D01*
X107061015Y-55047519D01*
X107154147Y-55186900D01*
X107218297Y-55341772D01*
X107251000Y-55506184D01*
X107251000Y-55673816D01*
X107218297Y-55838228D01*
X107154147Y-55993100D01*
X107061015Y-56132481D01*
X106942481Y-56251015D01*
X106803100Y-56344147D01*
X106648228Y-56408297D01*
X106483816Y-56441000D01*
X106316184Y-56441000D01*
X106151772Y-56408297D01*
X105996900Y-56344147D01*
X105857519Y-56251015D01*
X105738985Y-56132481D01*
X105645853Y-55993100D01*
X105581703Y-55838228D01*
X105549000Y-55673816D01*
X105549000Y-55506184D01*
X105581703Y-55341772D01*
X105645853Y-55186900D01*
X105738985Y-55047519D01*
X105857519Y-54928985D01*
X105996900Y-54835853D01*
X106151772Y-54771703D01*
X106316184Y-54739000D01*
X106483816Y-54739000D01*
X106648228Y-54771703D01*
X106648228Y-54771703D01*
G37*
G36*
X109188228Y-54771703D02*
X109343100Y-54835853D01*
X109482481Y-54928985D01*
X109601015Y-55047519D01*
X109694147Y-55186900D01*
X109758297Y-55341772D01*
X109791000Y-55506184D01*
X109791000Y-55673816D01*
X109758297Y-55838228D01*
X109694147Y-55993100D01*
X109601015Y-56132481D01*
X109482481Y-56251015D01*
X109343100Y-56344147D01*
X109188228Y-56408297D01*
X109023816Y-56441000D01*
X108856184Y-56441000D01*
X108691772Y-56408297D01*
X108536900Y-56344147D01*
X108397519Y-56251015D01*
X108278985Y-56132481D01*
X108185853Y-55993100D01*
X108121703Y-55838228D01*
X108089000Y-55673816D01*
X108089000Y-55506184D01*
X108121703Y-55341772D01*
X108185853Y-55186900D01*
X108278985Y-55047519D01*
X108397519Y-54928985D01*
X108536900Y-54835853D01*
X108691772Y-54771703D01*
X108856184Y-54739000D01*
X109023816Y-54739000D01*
X109188228Y-54771703D01*
X109188228Y-54771703D01*
G37*
G36*
X111728228Y-54771703D02*
X111883100Y-54835853D01*
X112022481Y-54928985D01*
X112141015Y-55047519D01*
X112234147Y-55186900D01*
X112298297Y-55341772D01*
X112331000Y-55506184D01*
X112331000Y-55673816D01*
X112298297Y-55838228D01*
X112234147Y-55993100D01*
X112141015Y-56132481D01*
X112022481Y-56251015D01*
X111883100Y-56344147D01*
X111728228Y-56408297D01*
X111563816Y-56441000D01*
X111396184Y-56441000D01*
X111231772Y-56408297D01*
X111076900Y-56344147D01*
X110937519Y-56251015D01*
X110818985Y-56132481D01*
X110725853Y-55993100D01*
X110661703Y-55838228D01*
X110629000Y-55673816D01*
X110629000Y-55506184D01*
X110661703Y-55341772D01*
X110725853Y-55186900D01*
X110818985Y-55047519D01*
X110937519Y-54928985D01*
X111076900Y-54835853D01*
X111231772Y-54771703D01*
X111396184Y-54739000D01*
X111563816Y-54739000D01*
X111728228Y-54771703D01*
X111728228Y-54771703D01*
G37*
G36*
X114268228Y-54771703D02*
X114423100Y-54835853D01*
X114562481Y-54928985D01*
X114681015Y-55047519D01*
X114774147Y-55186900D01*
X114838297Y-55341772D01*
X114871000Y-55506184D01*
X114871000Y-55673816D01*
X114838297Y-55838228D01*
X114774147Y-55993100D01*
X114681015Y-56132481D01*
X114562481Y-56251015D01*
X114423100Y-56344147D01*
X114268228Y-56408297D01*
X114103816Y-56441000D01*
X113936184Y-56441000D01*
X113771772Y-56408297D01*
X113616900Y-56344147D01*
X113477519Y-56251015D01*
X113358985Y-56132481D01*
X113265853Y-55993100D01*
X113201703Y-55838228D01*
X113169000Y-55673816D01*
X113169000Y-55506184D01*
X113201703Y-55341772D01*
X113265853Y-55186900D01*
X113358985Y-55047519D01*
X113477519Y-54928985D01*
X113616900Y-54835853D01*
X113771772Y-54771703D01*
X113936184Y-54739000D01*
X114103816Y-54739000D01*
X114268228Y-54771703D01*
X114268228Y-54771703D01*
G37*
G36*
X81445643Y-53589781D02*
X81591415Y-53650162D01*
X81722611Y-53737824D01*
X81834176Y-53849389D01*
X81921838Y-53980585D01*
X81982219Y-54126357D01*
X82013000Y-54281107D01*
X82013000Y-54438893D01*
X81982219Y-54593643D01*
X81921838Y-54739415D01*
X81834176Y-54870611D01*
X81722611Y-54982176D01*
X81591415Y-55069838D01*
X81445643Y-55130219D01*
X81290893Y-55161000D01*
X81133107Y-55161000D01*
X80978357Y-55130219D01*
X80832585Y-55069838D01*
X80701389Y-54982176D01*
X80589824Y-54870611D01*
X80502162Y-54739415D01*
X80441781Y-54593643D01*
X80411000Y-54438893D01*
X80411000Y-54281107D01*
X80441781Y-54126357D01*
X80502162Y-53980585D01*
X80589824Y-53849389D01*
X80701389Y-53737824D01*
X80832585Y-53650162D01*
X80978357Y-53589781D01*
X81133107Y-53559000D01*
X81290893Y-53559000D01*
X81445643Y-53589781D01*
X81445643Y-53589781D01*
G37*
G36*
X90081643Y-53589781D02*
X90227415Y-53650162D01*
X90358611Y-53737824D01*
X90470176Y-53849389D01*
X90557838Y-53980585D01*
X90618219Y-54126357D01*
X90649000Y-54281107D01*
X90649000Y-54438893D01*
X90618219Y-54593643D01*
X90557838Y-54739415D01*
X90470176Y-54870611D01*
X90358611Y-54982176D01*
X90227415Y-55069838D01*
X90081643Y-55130219D01*
X89926893Y-55161000D01*
X89769107Y-55161000D01*
X89614357Y-55130219D01*
X89468585Y-55069838D01*
X89337389Y-54982176D01*
X89225824Y-54870611D01*
X89138162Y-54739415D01*
X89077781Y-54593643D01*
X89047000Y-54438893D01*
X89047000Y-54281107D01*
X89077781Y-54126357D01*
X89138162Y-53980585D01*
X89225824Y-53849389D01*
X89337389Y-53737824D01*
X89468585Y-53650162D01*
X89614357Y-53589781D01*
X89769107Y-53559000D01*
X89926893Y-53559000D01*
X90081643Y-53589781D01*
X90081643Y-53589781D01*
G37*
G36*
X87365000Y-54911000D02*
X86743000Y-54911000D01*
X86743000Y-53809000D01*
X87365000Y-53809000D01*
X87365000Y-54911000D01*
X87365000Y-54911000D01*
G37*
G36*
X88636900Y-54911000D02*
X87934900Y-54911000D01*
X87934900Y-53809000D01*
X88636900Y-53809000D01*
X88636900Y-54911000D01*
X88636900Y-54911000D01*
G37*
G36*
X83125100Y-54911000D02*
X82423100Y-54911000D01*
X82423100Y-53809000D01*
X83125100Y-53809000D01*
X83125100Y-54911000D01*
X83125100Y-54911000D01*
G37*
G36*
X85333000Y-54911000D02*
X84711000Y-54911000D01*
X84711000Y-53809000D01*
X85333000Y-53809000D01*
X85333000Y-54911000D01*
X85333000Y-54911000D01*
G37*
G36*
X84317000Y-54911000D02*
X83695000Y-54911000D01*
X83695000Y-53809000D01*
X84317000Y-53809000D01*
X84317000Y-54911000D01*
X84317000Y-54911000D01*
G37*
G36*
X86349000Y-54911000D02*
X85727000Y-54911000D01*
X85727000Y-53809000D01*
X86349000Y-53809000D01*
X86349000Y-54911000D01*
X86349000Y-54911000D01*
G37*
G36*
X81445643Y-49792481D02*
X81591415Y-49852862D01*
X81722611Y-49940524D01*
X81834176Y-50052089D01*
X81921838Y-50183285D01*
X81982219Y-50329057D01*
X82013000Y-50483807D01*
X82013000Y-50641593D01*
X81982219Y-50796343D01*
X81921838Y-50942115D01*
X81834176Y-51073311D01*
X81722611Y-51184876D01*
X81591415Y-51272538D01*
X81445643Y-51332919D01*
X81290893Y-51363700D01*
X81133107Y-51363700D01*
X80978357Y-51332919D01*
X80832585Y-51272538D01*
X80701389Y-51184876D01*
X80589824Y-51073311D01*
X80502162Y-50942115D01*
X80441781Y-50796343D01*
X80411000Y-50641593D01*
X80411000Y-50483807D01*
X80441781Y-50329057D01*
X80502162Y-50183285D01*
X80589824Y-50052089D01*
X80701389Y-49940524D01*
X80832585Y-49852862D01*
X80978357Y-49792481D01*
X81133107Y-49761700D01*
X81290893Y-49761700D01*
X81445643Y-49792481D01*
X81445643Y-49792481D01*
G37*
G36*
X90081643Y-49792481D02*
X90227415Y-49852862D01*
X90358611Y-49940524D01*
X90470176Y-50052089D01*
X90557838Y-50183285D01*
X90618219Y-50329057D01*
X90649000Y-50483807D01*
X90649000Y-50641593D01*
X90618219Y-50796343D01*
X90557838Y-50942115D01*
X90470176Y-51073311D01*
X90358611Y-51184876D01*
X90227415Y-51272538D01*
X90081643Y-51332919D01*
X89926893Y-51363700D01*
X89769107Y-51363700D01*
X89614357Y-51332919D01*
X89468585Y-51272538D01*
X89337389Y-51184876D01*
X89225824Y-51073311D01*
X89138162Y-50942115D01*
X89077781Y-50796343D01*
X89047000Y-50641593D01*
X89047000Y-50483807D01*
X89077781Y-50329057D01*
X89138162Y-50183285D01*
X89225824Y-50052089D01*
X89337389Y-49940524D01*
X89468585Y-49852862D01*
X89614357Y-49792481D01*
X89769107Y-49761700D01*
X89926893Y-49761700D01*
X90081643Y-49792481D01*
X90081643Y-49792481D01*
G37*
M02*
