G04 #@! TF.GenerationSoftware,KiCad,Pcbnew,5.0.2+dfsg1-1~bpo9+1*
G04 #@! TF.CreationDate,2021-01-26T10:03:55+00:00*
G04 #@! TF.ProjectId,ardubigboy,61726475-6269-4676-926f-792e6b696361,rev?*
G04 #@! TF.SameCoordinates,Original*
G04 #@! TF.FileFunction,Legend,Bot*
G04 #@! TF.FilePolarity,Positive*
%FSLAX46Y46*%
G04 Gerber Fmt 4.6, Leading zero omitted, Abs format (unit mm)*
G04 Created by KiCad (PCBNEW 5.0.2+dfsg1-1~bpo9+1) date Tue 26 Jan 2021 10:03:55 GMT*
%MOMM*%
%LPD*%
G01*
G04 APERTURE LIST*
%ADD10C,0.250000*%
%ADD11C,0.300000*%
%ADD12C,0.150000*%
%ADD13C,0.120000*%
G04 APERTURE END LIST*
D10*
X114430000Y-58921904D02*
X114477619Y-59017142D01*
X114477619Y-59160000D01*
X114430000Y-59302857D01*
X114334761Y-59398095D01*
X114239523Y-59445714D01*
X114049047Y-59493333D01*
X113906190Y-59493333D01*
X113715714Y-59445714D01*
X113620476Y-59398095D01*
X113525238Y-59302857D01*
X113477619Y-59160000D01*
X113477619Y-59064761D01*
X113525238Y-58921904D01*
X113572857Y-58874285D01*
X113906190Y-58874285D01*
X113906190Y-59064761D01*
X113477619Y-58445714D02*
X114477619Y-58445714D01*
X113477619Y-57874285D01*
X114477619Y-57874285D01*
X113477619Y-57398095D02*
X114477619Y-57398095D01*
X114477619Y-57160000D01*
X114430000Y-57017142D01*
X114334761Y-56921904D01*
X114239523Y-56874285D01*
X114049047Y-56826666D01*
X113906190Y-56826666D01*
X113715714Y-56874285D01*
X113620476Y-56921904D01*
X113525238Y-57017142D01*
X113477619Y-57160000D01*
X113477619Y-57398095D01*
X111867619Y-59523333D02*
X110867619Y-59190000D01*
X111867619Y-58856666D01*
X110962857Y-57951904D02*
X110915238Y-57999523D01*
X110867619Y-58142380D01*
X110867619Y-58237619D01*
X110915238Y-58380476D01*
X111010476Y-58475714D01*
X111105714Y-58523333D01*
X111296190Y-58570952D01*
X111439047Y-58570952D01*
X111629523Y-58523333D01*
X111724761Y-58475714D01*
X111820000Y-58380476D01*
X111867619Y-58237619D01*
X111867619Y-58142380D01*
X111820000Y-57999523D01*
X111772380Y-57951904D01*
X110962857Y-56951904D02*
X110915238Y-56999523D01*
X110867619Y-57142380D01*
X110867619Y-57237619D01*
X110915238Y-57380476D01*
X111010476Y-57475714D01*
X111105714Y-57523333D01*
X111296190Y-57570952D01*
X111439047Y-57570952D01*
X111629523Y-57523333D01*
X111724761Y-57475714D01*
X111820000Y-57380476D01*
X111867619Y-57237619D01*
X111867619Y-57142380D01*
X111820000Y-56999523D01*
X111772380Y-56951904D01*
X108425238Y-59430476D02*
X108377619Y-59287619D01*
X108377619Y-59049523D01*
X108425238Y-58954285D01*
X108472857Y-58906666D01*
X108568095Y-58859047D01*
X108663333Y-58859047D01*
X108758571Y-58906666D01*
X108806190Y-58954285D01*
X108853809Y-59049523D01*
X108901428Y-59240000D01*
X108949047Y-59335238D01*
X108996666Y-59382857D01*
X109091904Y-59430476D01*
X109187142Y-59430476D01*
X109282380Y-59382857D01*
X109330000Y-59335238D01*
X109377619Y-59240000D01*
X109377619Y-59001904D01*
X109330000Y-58859047D01*
X108472857Y-57859047D02*
X108425238Y-57906666D01*
X108377619Y-58049523D01*
X108377619Y-58144761D01*
X108425238Y-58287619D01*
X108520476Y-58382857D01*
X108615714Y-58430476D01*
X108806190Y-58478095D01*
X108949047Y-58478095D01*
X109139523Y-58430476D01*
X109234761Y-58382857D01*
X109330000Y-58287619D01*
X109377619Y-58144761D01*
X109377619Y-58049523D01*
X109330000Y-57906666D01*
X109282380Y-57859047D01*
X108377619Y-56954285D02*
X108377619Y-57430476D01*
X109377619Y-57430476D01*
X105905238Y-59454285D02*
X105857619Y-59311428D01*
X105857619Y-59073333D01*
X105905238Y-58978095D01*
X105952857Y-58930476D01*
X106048095Y-58882857D01*
X106143333Y-58882857D01*
X106238571Y-58930476D01*
X106286190Y-58978095D01*
X106333809Y-59073333D01*
X106381428Y-59263809D01*
X106429047Y-59359047D01*
X106476666Y-59406666D01*
X106571904Y-59454285D01*
X106667142Y-59454285D01*
X106762380Y-59406666D01*
X106810000Y-59359047D01*
X106857619Y-59263809D01*
X106857619Y-59025714D01*
X106810000Y-58882857D01*
X105857619Y-58454285D02*
X106857619Y-58454285D01*
X106857619Y-58216190D01*
X106810000Y-58073333D01*
X106714761Y-57978095D01*
X106619523Y-57930476D01*
X106429047Y-57882857D01*
X106286190Y-57882857D01*
X106095714Y-57930476D01*
X106000476Y-57978095D01*
X105905238Y-58073333D01*
X105857619Y-58216190D01*
X105857619Y-58454285D01*
X106143333Y-57501904D02*
X106143333Y-57025714D01*
X105857619Y-57597142D02*
X106857619Y-57263809D01*
X105857619Y-56930476D01*
X103367619Y-58699047D02*
X103843809Y-59032380D01*
X103367619Y-59270476D02*
X104367619Y-59270476D01*
X104367619Y-58889523D01*
X104320000Y-58794285D01*
X104272380Y-58746666D01*
X104177142Y-58699047D01*
X104034285Y-58699047D01*
X103939047Y-58746666D01*
X103891428Y-58794285D01*
X103843809Y-58889523D01*
X103843809Y-59270476D01*
X103891428Y-58270476D02*
X103891428Y-57937142D01*
X103367619Y-57794285D02*
X103367619Y-58270476D01*
X104367619Y-58270476D01*
X104367619Y-57794285D01*
X103415238Y-57413333D02*
X103367619Y-57270476D01*
X103367619Y-57032380D01*
X103415238Y-56937142D01*
X103462857Y-56889523D01*
X103558095Y-56841904D01*
X103653333Y-56841904D01*
X103748571Y-56889523D01*
X103796190Y-56937142D01*
X103843809Y-57032380D01*
X103891428Y-57222857D01*
X103939047Y-57318095D01*
X103986666Y-57365714D01*
X104081904Y-57413333D01*
X104177142Y-57413333D01*
X104272380Y-57365714D01*
X104320000Y-57318095D01*
X104367619Y-57222857D01*
X104367619Y-56984761D01*
X104320000Y-56841904D01*
X100877619Y-58611904D02*
X101877619Y-58611904D01*
X101877619Y-58373809D01*
X101830000Y-58230952D01*
X101734761Y-58135714D01*
X101639523Y-58088095D01*
X101449047Y-58040476D01*
X101306190Y-58040476D01*
X101115714Y-58088095D01*
X101020476Y-58135714D01*
X100925238Y-58230952D01*
X100877619Y-58373809D01*
X100877619Y-58611904D01*
X100972857Y-57040476D02*
X100925238Y-57088095D01*
X100877619Y-57230952D01*
X100877619Y-57326190D01*
X100925238Y-57469047D01*
X101020476Y-57564285D01*
X101115714Y-57611904D01*
X101306190Y-57659523D01*
X101449047Y-57659523D01*
X101639523Y-57611904D01*
X101734761Y-57564285D01*
X101830000Y-57469047D01*
X101877619Y-57326190D01*
X101877619Y-57230952D01*
X101830000Y-57088095D01*
X101782380Y-57040476D01*
X98382857Y-57936666D02*
X98335238Y-57984285D01*
X98287619Y-58127142D01*
X98287619Y-58222380D01*
X98335238Y-58365238D01*
X98430476Y-58460476D01*
X98525714Y-58508095D01*
X98716190Y-58555714D01*
X98859047Y-58555714D01*
X99049523Y-58508095D01*
X99144761Y-58460476D01*
X99240000Y-58365238D01*
X99287619Y-58222380D01*
X99287619Y-58127142D01*
X99240000Y-57984285D01*
X99192380Y-57936666D01*
X98335238Y-57555714D02*
X98287619Y-57412857D01*
X98287619Y-57174761D01*
X98335238Y-57079523D01*
X98382857Y-57031904D01*
X98478095Y-56984285D01*
X98573333Y-56984285D01*
X98668571Y-57031904D01*
X98716190Y-57079523D01*
X98763809Y-57174761D01*
X98811428Y-57365238D01*
X98859047Y-57460476D01*
X98906666Y-57508095D01*
X99001904Y-57555714D01*
X99097142Y-57555714D01*
X99192380Y-57508095D01*
X99240000Y-57460476D01*
X99287619Y-57365238D01*
X99287619Y-57127142D01*
X99240000Y-56984285D01*
D11*
X122901428Y-68320000D02*
X122187142Y-68320000D01*
X123044285Y-68748571D02*
X122544285Y-67248571D01*
X122044285Y-68748571D01*
X121544285Y-68748571D02*
X121544285Y-67748571D01*
X121544285Y-68034285D02*
X121472857Y-67891428D01*
X121401428Y-67820000D01*
X121258571Y-67748571D01*
X121115714Y-67748571D01*
X119972857Y-68748571D02*
X119972857Y-67248571D01*
X119972857Y-68677142D02*
X120115714Y-68748571D01*
X120401428Y-68748571D01*
X120544285Y-68677142D01*
X120615714Y-68605714D01*
X120687142Y-68462857D01*
X120687142Y-68034285D01*
X120615714Y-67891428D01*
X120544285Y-67820000D01*
X120401428Y-67748571D01*
X120115714Y-67748571D01*
X119972857Y-67820000D01*
X118615714Y-67748571D02*
X118615714Y-68748571D01*
X119258571Y-67748571D02*
X119258571Y-68534285D01*
X119187142Y-68677142D01*
X119044285Y-68748571D01*
X118829999Y-68748571D01*
X118687142Y-68677142D01*
X118615714Y-68605714D01*
X117901428Y-68748571D02*
X117901428Y-67248571D01*
X117901428Y-67820000D02*
X117758571Y-67748571D01*
X117472857Y-67748571D01*
X117329999Y-67820000D01*
X117258571Y-67891428D01*
X117187142Y-68034285D01*
X117187142Y-68462857D01*
X117258571Y-68605714D01*
X117329999Y-68677142D01*
X117472857Y-68748571D01*
X117758571Y-68748571D01*
X117901428Y-68677142D01*
X116544285Y-68748571D02*
X116544285Y-67748571D01*
X116544285Y-67248571D02*
X116615714Y-67320000D01*
X116544285Y-67391428D01*
X116472857Y-67320000D01*
X116544285Y-67248571D01*
X116544285Y-67391428D01*
X115187142Y-67748571D02*
X115187142Y-68962857D01*
X115258571Y-69105714D01*
X115329999Y-69177142D01*
X115472857Y-69248571D01*
X115687142Y-69248571D01*
X115829999Y-69177142D01*
X115187142Y-68677142D02*
X115329999Y-68748571D01*
X115615714Y-68748571D01*
X115758571Y-68677142D01*
X115829999Y-68605714D01*
X115901428Y-68462857D01*
X115901428Y-68034285D01*
X115829999Y-67891428D01*
X115758571Y-67820000D01*
X115615714Y-67748571D01*
X115329999Y-67748571D01*
X115187142Y-67820000D01*
X114472857Y-68748571D02*
X114472857Y-67248571D01*
X114472857Y-67820000D02*
X114329999Y-67748571D01*
X114044285Y-67748571D01*
X113901428Y-67820000D01*
X113829999Y-67891428D01*
X113758571Y-68034285D01*
X113758571Y-68462857D01*
X113829999Y-68605714D01*
X113901428Y-68677142D01*
X114044285Y-68748571D01*
X114329999Y-68748571D01*
X114472857Y-68677142D01*
X112901428Y-68748571D02*
X113044285Y-68677142D01*
X113115714Y-68605714D01*
X113187142Y-68462857D01*
X113187142Y-68034285D01*
X113115714Y-67891428D01*
X113044285Y-67820000D01*
X112901428Y-67748571D01*
X112687142Y-67748571D01*
X112544285Y-67820000D01*
X112472857Y-67891428D01*
X112401428Y-68034285D01*
X112401428Y-68462857D01*
X112472857Y-68605714D01*
X112544285Y-68677142D01*
X112687142Y-68748571D01*
X112901428Y-68748571D01*
X111901428Y-67748571D02*
X111544285Y-68748571D01*
X111187142Y-67748571D02*
X111544285Y-68748571D01*
X111687142Y-69105714D01*
X111758571Y-69177142D01*
X111901428Y-69248571D01*
X110972857Y-68891428D02*
X109829999Y-68891428D01*
X108687142Y-67320000D02*
X108829999Y-67248571D01*
X109044285Y-67248571D01*
X109258571Y-67320000D01*
X109401428Y-67462857D01*
X109472857Y-67605714D01*
X109544285Y-67891428D01*
X109544285Y-68105714D01*
X109472857Y-68391428D01*
X109401428Y-68534285D01*
X109258571Y-68677142D01*
X109044285Y-68748571D01*
X108901428Y-68748571D01*
X108687142Y-68677142D01*
X108615714Y-68605714D01*
X108615714Y-68105714D01*
X108901428Y-68105714D01*
X107472857Y-67962857D02*
X107258571Y-68034285D01*
X107187142Y-68105714D01*
X107115714Y-68248571D01*
X107115714Y-68462857D01*
X107187142Y-68605714D01*
X107258571Y-68677142D01*
X107401428Y-68748571D01*
X107972857Y-68748571D01*
X107972857Y-67248571D01*
X107472857Y-67248571D01*
X107329999Y-67320000D01*
X107258571Y-67391428D01*
X107187142Y-67534285D01*
X107187142Y-67677142D01*
X107258571Y-67820000D01*
X107329999Y-67891428D01*
X107472857Y-67962857D01*
X107972857Y-67962857D01*
X106544285Y-68320000D02*
X105829999Y-68320000D01*
X106687142Y-68748571D02*
X106187142Y-67248571D01*
X105687142Y-68748571D01*
X105544285Y-68891428D02*
X104401428Y-68891428D01*
X104115714Y-68677142D02*
X103901428Y-68748571D01*
X103544285Y-68748571D01*
X103401428Y-68677142D01*
X103329999Y-68605714D01*
X103258571Y-68462857D01*
X103258571Y-68320000D01*
X103329999Y-68177142D01*
X103401428Y-68105714D01*
X103544285Y-68034285D01*
X103829999Y-67962857D01*
X103972857Y-67891428D01*
X104044285Y-67820000D01*
X104115714Y-67677142D01*
X104115714Y-67534285D01*
X104044285Y-67391428D01*
X103972857Y-67320000D01*
X103829999Y-67248571D01*
X103472857Y-67248571D01*
X103258571Y-67320000D01*
X102615714Y-68748571D02*
X102615714Y-67248571D01*
X102044285Y-67248571D01*
X101901428Y-67320000D01*
X101829999Y-67391428D01*
X101758571Y-67534285D01*
X101758571Y-67748571D01*
X101829999Y-67891428D01*
X101901428Y-67962857D01*
X102044285Y-68034285D01*
X102615714Y-68034285D01*
X121991428Y-65102857D02*
X122491428Y-65102857D01*
X122491428Y-65888571D02*
X122491428Y-64388571D01*
X121777142Y-64388571D01*
X120562857Y-65888571D02*
X120562857Y-65102857D01*
X120634285Y-64960000D01*
X120777142Y-64888571D01*
X121062857Y-64888571D01*
X121205714Y-64960000D01*
X120562857Y-65817142D02*
X120705714Y-65888571D01*
X121062857Y-65888571D01*
X121205714Y-65817142D01*
X121277142Y-65674285D01*
X121277142Y-65531428D01*
X121205714Y-65388571D01*
X121062857Y-65317142D01*
X120705714Y-65317142D01*
X120562857Y-65245714D01*
X119205714Y-65817142D02*
X119348571Y-65888571D01*
X119634285Y-65888571D01*
X119777142Y-65817142D01*
X119848571Y-65745714D01*
X119919999Y-65602857D01*
X119919999Y-65174285D01*
X119848571Y-65031428D01*
X119777142Y-64960000D01*
X119634285Y-64888571D01*
X119348571Y-64888571D01*
X119205714Y-64960000D01*
X117991428Y-65817142D02*
X118134285Y-65888571D01*
X118419999Y-65888571D01*
X118562857Y-65817142D01*
X118634285Y-65674285D01*
X118634285Y-65102857D01*
X118562857Y-64960000D01*
X118419999Y-64888571D01*
X118134285Y-64888571D01*
X117991428Y-64960000D01*
X117919999Y-65102857D01*
X117919999Y-65245714D01*
X118634285Y-65388571D01*
X117062857Y-65888571D02*
X117205714Y-65817142D01*
X117277142Y-65674285D01*
X117277142Y-64388571D01*
X115919999Y-65817142D02*
X116062857Y-65888571D01*
X116348571Y-65888571D01*
X116491428Y-65817142D01*
X116562857Y-65674285D01*
X116562857Y-65102857D01*
X116491428Y-64960000D01*
X116348571Y-64888571D01*
X116062857Y-64888571D01*
X115919999Y-64960000D01*
X115848571Y-65102857D01*
X115848571Y-65245714D01*
X116562857Y-65388571D01*
X115277142Y-65817142D02*
X115134285Y-65888571D01*
X114848571Y-65888571D01*
X114705714Y-65817142D01*
X114634285Y-65674285D01*
X114634285Y-65602857D01*
X114705714Y-65460000D01*
X114848571Y-65388571D01*
X115062857Y-65388571D01*
X115205714Y-65317142D01*
X115277142Y-65174285D01*
X115277142Y-65102857D01*
X115205714Y-64960000D01*
X115062857Y-64888571D01*
X114848571Y-64888571D01*
X114705714Y-64960000D01*
X114062857Y-65817142D02*
X113919999Y-65888571D01*
X113634285Y-65888571D01*
X113491428Y-65817142D01*
X113419999Y-65674285D01*
X113419999Y-65602857D01*
X113491428Y-65460000D01*
X113634285Y-65388571D01*
X113848571Y-65388571D01*
X113991428Y-65317142D01*
X114062857Y-65174285D01*
X114062857Y-65102857D01*
X113991428Y-64960000D01*
X113848571Y-64888571D01*
X113634285Y-64888571D01*
X113491428Y-64960000D01*
X112991428Y-64888571D02*
X112419999Y-64888571D01*
X112777142Y-64388571D02*
X112777142Y-65674285D01*
X112705714Y-65817142D01*
X112562857Y-65888571D01*
X112419999Y-65888571D01*
X111348571Y-65817142D02*
X111491428Y-65888571D01*
X111777142Y-65888571D01*
X111919999Y-65817142D01*
X111991428Y-65674285D01*
X111991428Y-65102857D01*
X111919999Y-64960000D01*
X111777142Y-64888571D01*
X111491428Y-64888571D01*
X111348571Y-64960000D01*
X111277142Y-65102857D01*
X111277142Y-65245714D01*
X111991428Y-65388571D01*
X109991428Y-65817142D02*
X110134285Y-65888571D01*
X110419999Y-65888571D01*
X110562857Y-65817142D01*
X110634285Y-65745714D01*
X110705714Y-65602857D01*
X110705714Y-65174285D01*
X110634285Y-65031428D01*
X110562857Y-64960000D01*
X110419999Y-64888571D01*
X110134285Y-64888571D01*
X109991428Y-64960000D01*
X109348571Y-65888571D02*
X109348571Y-64388571D01*
X108705714Y-65888571D02*
X108705714Y-65102857D01*
X108777142Y-64960000D01*
X108919999Y-64888571D01*
X109134285Y-64888571D01*
X109277142Y-64960000D01*
X109348571Y-65031428D01*
X106919999Y-64531428D02*
X106848571Y-64460000D01*
X106705714Y-64388571D01*
X106348571Y-64388571D01*
X106205714Y-64460000D01*
X106134285Y-64531428D01*
X106062857Y-64674285D01*
X106062857Y-64817142D01*
X106134285Y-65031428D01*
X106991428Y-65888571D01*
X106062857Y-65888571D01*
X105134285Y-64388571D02*
X104991428Y-64388571D01*
X104848571Y-64460000D01*
X104777142Y-64531428D01*
X104705714Y-64674285D01*
X104634285Y-64960000D01*
X104634285Y-65317142D01*
X104705714Y-65602857D01*
X104777142Y-65745714D01*
X104848571Y-65817142D01*
X104991428Y-65888571D01*
X105134285Y-65888571D01*
X105277142Y-65817142D01*
X105348571Y-65745714D01*
X105419999Y-65602857D01*
X105491428Y-65317142D01*
X105491428Y-64960000D01*
X105419999Y-64674285D01*
X105348571Y-64531428D01*
X105277142Y-64460000D01*
X105134285Y-64388571D01*
X104062857Y-64531428D02*
X103991428Y-64460000D01*
X103848571Y-64388571D01*
X103491428Y-64388571D01*
X103348571Y-64460000D01*
X103277142Y-64531428D01*
X103205714Y-64674285D01*
X103205714Y-64817142D01*
X103277142Y-65031428D01*
X104134285Y-65888571D01*
X103205714Y-65888571D01*
X102277142Y-64388571D02*
X102134285Y-64388571D01*
X101991428Y-64460000D01*
X101919999Y-64531428D01*
X101848571Y-64674285D01*
X101777142Y-64960000D01*
X101777142Y-65317142D01*
X101848571Y-65602857D01*
X101919999Y-65745714D01*
X101991428Y-65817142D01*
X102134285Y-65888571D01*
X102277142Y-65888571D01*
X102419999Y-65817142D01*
X102491428Y-65745714D01*
X102562857Y-65602857D01*
X102634285Y-65317142D01*
X102634285Y-64960000D01*
X102562857Y-64674285D01*
X102491428Y-64531428D01*
X102419999Y-64460000D01*
X102277142Y-64388571D01*
D12*
G04 #@! TO.C,U13*
X90610000Y-47959200D02*
X80450000Y-47959200D01*
G04 #@! TO.C,U2*
X121010000Y-108132700D02*
X121010000Y-123372700D01*
X121010000Y-123372700D02*
X106608200Y-123372700D01*
X106608200Y-123372700D02*
X106608200Y-108132700D01*
X106608200Y-108132700D02*
X121010000Y-108132700D01*
G04 #@! TO.C,U4*
X107930000Y-98885080D02*
X118933280Y-98885080D01*
X107930000Y-98880000D02*
X107930000Y-91260000D01*
X107924920Y-91254920D02*
X118928200Y-91254920D01*
X118933280Y-98890160D02*
X118933280Y-91270160D01*
D13*
G04 #@! TO.C,R1*
X108814564Y-102060000D02*
X107610436Y-102060000D01*
X108814564Y-103880000D02*
X107610436Y-103880000D01*
G04 #@! TO.C,R2*
X107700436Y-104920000D02*
X108904564Y-104920000D01*
X107700436Y-106740000D02*
X108904564Y-106740000D01*
D12*
G04 #@! TO.C,U7*
X104327900Y-121016900D02*
X87132100Y-121016900D01*
X87132100Y-121016900D02*
X87132100Y-93013400D01*
X104327900Y-121016900D02*
X104327900Y-93013400D01*
X104327900Y-93013400D02*
X87132100Y-93013400D01*
X100238500Y-121016900D02*
X100238500Y-113511200D01*
X100238500Y-113511200D02*
X91221500Y-113511200D01*
X91221500Y-113511200D02*
X91221500Y-121016900D01*
G04 #@! TO.C,SW9*
X127112160Y-108290880D02*
X123500280Y-108290880D01*
X123500280Y-108290880D02*
X123510440Y-108290880D01*
X127122320Y-99289120D02*
X123510440Y-99289120D01*
X123510440Y-99289120D02*
X123510440Y-108295960D01*
X127122320Y-99289120D02*
X127122320Y-108295960D01*
X127112160Y-105786440D02*
X130114440Y-105791520D01*
X127132480Y-101793560D02*
X130134760Y-101798640D01*
X130129680Y-101798640D02*
X130129680Y-105786440D01*
X127127400Y-103784920D02*
X130129680Y-103790000D01*
D13*
G04 #@! TO.C,U1*
X114420000Y-103140000D02*
X114420000Y-104070000D01*
X114420000Y-106300000D02*
X114420000Y-105370000D01*
X114420000Y-106300000D02*
X112260000Y-106300000D01*
X114420000Y-103140000D02*
X112960000Y-103140000D01*
G04 #@! TO.C,R3*
X88120000Y-60567936D02*
X88120000Y-61772064D01*
X86300000Y-60567936D02*
X86300000Y-61772064D01*
G04 #@! TO.C,R4*
X82470000Y-60567936D02*
X82470000Y-61772064D01*
X84290000Y-60567936D02*
X84290000Y-61772064D01*
D12*
G04 #@! TO.C,SW8*
X58770000Y-75294100D02*
X58770000Y-68486900D01*
X58770000Y-68486900D02*
X56014100Y-68486900D01*
X58770000Y-75294100D02*
X56014100Y-75294100D01*
X56014100Y-75294100D02*
X56014100Y-68486900D01*
X56001400Y-71750800D02*
X54286900Y-71750800D01*
X54274200Y-71750800D02*
X54274200Y-70442700D01*
X54274200Y-70442700D02*
X56001400Y-70442700D01*
X56014100Y-71992100D02*
X54274200Y-71992100D01*
X54274200Y-71992100D02*
X54274200Y-73300200D01*
X54274200Y-73300200D02*
X56014100Y-73300200D01*
G04 #@! TO.C,U2*
X117122280Y-114914595D02*
X117931804Y-114914595D01*
X118027042Y-114962214D01*
X118074661Y-115009833D01*
X118122280Y-115105071D01*
X118122280Y-115295547D01*
X118074661Y-115390785D01*
X118027042Y-115438404D01*
X117931804Y-115486023D01*
X117122280Y-115486023D01*
X117217519Y-115914595D02*
X117169900Y-115962214D01*
X117122280Y-116057452D01*
X117122280Y-116295547D01*
X117169900Y-116390785D01*
X117217519Y-116438404D01*
X117312757Y-116486023D01*
X117407995Y-116486023D01*
X117550852Y-116438404D01*
X118122280Y-115866976D01*
X118122280Y-116486023D01*
G04 #@! TO.C,U4*
X121184740Y-94308095D02*
X121994264Y-94308095D01*
X122089502Y-94355714D01*
X122137121Y-94403333D01*
X122184740Y-94498571D01*
X122184740Y-94689047D01*
X122137121Y-94784285D01*
X122089502Y-94831904D01*
X121994264Y-94879523D01*
X121184740Y-94879523D01*
X121518074Y-95784285D02*
X122184740Y-95784285D01*
X121137121Y-95546190D02*
X121851407Y-95308095D01*
X121851407Y-95927142D01*
X110374500Y-92009371D02*
X111374500Y-92342704D01*
X110374500Y-92676038D01*
X111374500Y-93009371D02*
X110374500Y-93009371D01*
X110374500Y-96752857D02*
X111374500Y-97086190D01*
X110374500Y-97419523D01*
X110374500Y-97943333D02*
X110374500Y-98133809D01*
X110422120Y-98229047D01*
X110517358Y-98324285D01*
X110707834Y-98371904D01*
X111041167Y-98371904D01*
X111231643Y-98324285D01*
X111326881Y-98229047D01*
X111374500Y-98133809D01*
X111374500Y-97943333D01*
X111326881Y-97848095D01*
X111231643Y-97752857D01*
X111041167Y-97705238D01*
X110707834Y-97705238D01*
X110517358Y-97752857D01*
X110422120Y-97848095D01*
X110374500Y-97943333D01*
X110422120Y-95306504D02*
X110374500Y-95211266D01*
X110374500Y-95068409D01*
X110422120Y-94925552D01*
X110517358Y-94830314D01*
X110612596Y-94782695D01*
X110803072Y-94735076D01*
X110945929Y-94735076D01*
X111136405Y-94782695D01*
X111231643Y-94830314D01*
X111326881Y-94925552D01*
X111374500Y-95068409D01*
X111374500Y-95163647D01*
X111326881Y-95306504D01*
X111279262Y-95354123D01*
X110945929Y-95354123D01*
X110945929Y-95163647D01*
G04 #@! TO.C,R1*
X108379166Y-101602380D02*
X108712500Y-101126190D01*
X108950595Y-101602380D02*
X108950595Y-100602380D01*
X108569642Y-100602380D01*
X108474404Y-100650000D01*
X108426785Y-100697619D01*
X108379166Y-100792857D01*
X108379166Y-100935714D01*
X108426785Y-101030952D01*
X108474404Y-101078571D01*
X108569642Y-101126190D01*
X108950595Y-101126190D01*
X107426785Y-101602380D02*
X107998214Y-101602380D01*
X107712500Y-101602380D02*
X107712500Y-100602380D01*
X107807738Y-100745238D01*
X107902976Y-100840476D01*
X107998214Y-100888095D01*
G04 #@! TO.C,R2*
X108469166Y-108102380D02*
X108802500Y-107626190D01*
X109040595Y-108102380D02*
X109040595Y-107102380D01*
X108659642Y-107102380D01*
X108564404Y-107150000D01*
X108516785Y-107197619D01*
X108469166Y-107292857D01*
X108469166Y-107435714D01*
X108516785Y-107530952D01*
X108564404Y-107578571D01*
X108659642Y-107626190D01*
X109040595Y-107626190D01*
X108088214Y-107197619D02*
X108040595Y-107150000D01*
X107945357Y-107102380D01*
X107707261Y-107102380D01*
X107612023Y-107150000D01*
X107564404Y-107197619D01*
X107516785Y-107292857D01*
X107516785Y-107388095D01*
X107564404Y-107530952D01*
X108135833Y-108102380D01*
X107516785Y-108102380D01*
G04 #@! TO.C,U7*
X81517180Y-107351795D02*
X82326704Y-107351795D01*
X82421942Y-107399414D01*
X82469561Y-107447033D01*
X82517180Y-107542271D01*
X82517180Y-107732747D01*
X82469561Y-107827985D01*
X82421942Y-107875604D01*
X82326704Y-107923223D01*
X81517180Y-107923223D01*
X81517180Y-108304176D02*
X81517180Y-108970842D01*
X82517180Y-108542271D01*
G04 #@! TO.C,SW9*
X105601801Y-101516866D02*
X105649420Y-101659723D01*
X105649420Y-101897819D01*
X105601801Y-101993057D01*
X105554182Y-102040676D01*
X105458944Y-102088295D01*
X105363706Y-102088295D01*
X105268468Y-102040676D01*
X105220849Y-101993057D01*
X105173230Y-101897819D01*
X105125611Y-101707342D01*
X105077992Y-101612104D01*
X105030373Y-101564485D01*
X104935135Y-101516866D01*
X104839897Y-101516866D01*
X104744659Y-101564485D01*
X104697040Y-101612104D01*
X104649420Y-101707342D01*
X104649420Y-101945438D01*
X104697040Y-102088295D01*
X104649420Y-102421628D02*
X105649420Y-102659723D01*
X104935135Y-102850200D01*
X105649420Y-103040676D01*
X104649420Y-103278771D01*
X105649420Y-103707342D02*
X105649420Y-103897819D01*
X105601801Y-103993057D01*
X105554182Y-104040676D01*
X105411325Y-104135914D01*
X105220849Y-104183533D01*
X104839897Y-104183533D01*
X104744659Y-104135914D01*
X104697040Y-104088295D01*
X104649420Y-103993057D01*
X104649420Y-103802580D01*
X104697040Y-103707342D01*
X104744659Y-103659723D01*
X104839897Y-103612104D01*
X105077992Y-103612104D01*
X105173230Y-103659723D01*
X105220849Y-103707342D01*
X105268468Y-103802580D01*
X105268468Y-103993057D01*
X105220849Y-104088295D01*
X105173230Y-104135914D01*
X105077992Y-104183533D01*
G04 #@! TO.C,U1*
X114421904Y-106672380D02*
X114421904Y-107481904D01*
X114374285Y-107577142D01*
X114326666Y-107624761D01*
X114231428Y-107672380D01*
X114040952Y-107672380D01*
X113945714Y-107624761D01*
X113898095Y-107577142D01*
X113850476Y-107481904D01*
X113850476Y-106672380D01*
X112850476Y-107672380D02*
X113421904Y-107672380D01*
X113136190Y-107672380D02*
X113136190Y-106672380D01*
X113231428Y-106815238D01*
X113326666Y-106910476D01*
X113421904Y-106958095D01*
G04 #@! TO.C,SW8*
X64254761Y-70506366D02*
X64302380Y-70649223D01*
X64302380Y-70887319D01*
X64254761Y-70982557D01*
X64207142Y-71030176D01*
X64111904Y-71077795D01*
X64016666Y-71077795D01*
X63921428Y-71030176D01*
X63873809Y-70982557D01*
X63826190Y-70887319D01*
X63778571Y-70696842D01*
X63730952Y-70601604D01*
X63683333Y-70553985D01*
X63588095Y-70506366D01*
X63492857Y-70506366D01*
X63397619Y-70553985D01*
X63350000Y-70601604D01*
X63302380Y-70696842D01*
X63302380Y-70934938D01*
X63350000Y-71077795D01*
X63302380Y-71411128D02*
X64302380Y-71649223D01*
X63588095Y-71839700D01*
X64302380Y-72030176D01*
X63302380Y-72268271D01*
X63730952Y-72792080D02*
X63683333Y-72696842D01*
X63635714Y-72649223D01*
X63540476Y-72601604D01*
X63492857Y-72601604D01*
X63397619Y-72649223D01*
X63350000Y-72696842D01*
X63302380Y-72792080D01*
X63302380Y-72982557D01*
X63350000Y-73077795D01*
X63397619Y-73125414D01*
X63492857Y-73173033D01*
X63540476Y-73173033D01*
X63635714Y-73125414D01*
X63683333Y-73077795D01*
X63730952Y-72982557D01*
X63730952Y-72792080D01*
X63778571Y-72696842D01*
X63826190Y-72649223D01*
X63921428Y-72601604D01*
X64111904Y-72601604D01*
X64207142Y-72649223D01*
X64254761Y-72696842D01*
X64302380Y-72792080D01*
X64302380Y-72982557D01*
X64254761Y-73077795D01*
X64207142Y-73125414D01*
X64111904Y-73173033D01*
X63921428Y-73173033D01*
X63826190Y-73125414D01*
X63778571Y-73077795D01*
X63730952Y-72982557D01*
G04 #@! TD*
M02*
