G04 #@! TF.GenerationSoftware,KiCad,Pcbnew,5.0.2+dfsg1-1~bpo9+1*
G04 #@! TF.CreationDate,2021-01-26T10:03:55+00:00*
G04 #@! TF.ProjectId,ardubigboy,61726475-6269-4676-926f-792e6b696361,rev?*
G04 #@! TF.SameCoordinates,Original*
G04 #@! TF.FileFunction,Copper,L2,Bot*
G04 #@! TF.FilePolarity,Positive*
%FSLAX46Y46*%
G04 Gerber Fmt 4.6, Leading zero omitted, Abs format (unit mm)*
G04 Created by KiCad (PCBNEW 5.0.2+dfsg1-1~bpo9+1) date Tue 26 Jan 2021 10:03:55 GMT*
%MOMM*%
%LPD*%
G01*
G04 APERTURE LIST*
G04 #@! TA.AperFunction,SMDPad,CuDef*
%ADD10R,0.520000X1.000000*%
G04 #@! TD*
G04 #@! TA.AperFunction,SMDPad,CuDef*
%ADD11R,0.600000X1.000000*%
G04 #@! TD*
G04 #@! TA.AperFunction,ComponentPad*
%ADD12C,1.500000*%
G04 #@! TD*
G04 #@! TA.AperFunction,ComponentPad*
%ADD13C,1.600000*%
G04 #@! TD*
G04 #@! TA.AperFunction,Conductor*
%ADD14C,0.100000*%
G04 #@! TD*
G04 #@! TA.AperFunction,SMDPad,CuDef*
%ADD15C,1.600000*%
G04 #@! TD*
G04 #@! TA.AperFunction,SMDPad,CuDef*
%ADD16C,1.425000*%
G04 #@! TD*
G04 #@! TA.AperFunction,ConnectorPad*
%ADD17C,1.600000*%
G04 #@! TD*
G04 #@! TA.AperFunction,SMDPad,CuDef*
%ADD18R,4.500000X1.000000*%
G04 #@! TD*
G04 #@! TA.AperFunction,SMDPad,CuDef*
%ADD19R,0.900000X0.800000*%
G04 #@! TD*
G04 #@! TA.AperFunction,SMDPad,CuDef*
%ADD20R,3.000000X1.000000*%
G04 #@! TD*
G04 #@! TA.AperFunction,SMDPad,CuDef*
%ADD21R,3.000000X2.000000*%
G04 #@! TD*
G04 #@! TA.AperFunction,ComponentPad*
%ADD22C,5.000000*%
G04 #@! TD*
G04 #@! TA.AperFunction,ViaPad*
%ADD23C,0.800000*%
G04 #@! TD*
G04 #@! TA.AperFunction,Conductor*
%ADD24C,0.250000*%
G04 #@! TD*
G04 APERTURE END LIST*
D10*
G04 #@! TO.P,U13,3*
G04 #@! TO.N,Net-(R3-Pad1)*
X86038000Y-54360000D03*
G04 #@! TO.P,U13,4*
G04 #@! TO.N,Net-(R4-Pad1)*
X85022000Y-54360000D03*
G04 #@! TO.P,U13,2*
G04 #@! TO.N,Net-(U13-Pad2)*
X84006000Y-54360000D03*
X87054000Y-54360000D03*
D11*
G04 #@! TO.P,U13,1*
G04 #@! TO.N,Net-(R3-Pad2)*
X82774100Y-54360000D03*
X88285900Y-54360000D03*
D12*
X81212000Y-54360000D03*
X89848000Y-54360000D03*
X89848000Y-50562700D03*
X81212000Y-50562700D03*
G04 #@! TD*
D13*
G04 #@! TO.P,U5,1*
G04 #@! TO.N,Net-(SW1-Pad2)*
X114020000Y-55590000D03*
G04 #@! TO.P,U5,2*
G04 #@! TO.N,Net-(R2-Pad1)*
X111480000Y-55590000D03*
G04 #@! TO.P,U5,3*
G04 #@! TO.N,Net-(U2-Pad5)*
X108940000Y-55590000D03*
G04 #@! TO.P,U5,4*
G04 #@! TO.N,Net-(U2-Pad6)*
X106400000Y-55590000D03*
G04 #@! TO.P,U5,5*
G04 #@! TO.N,Net-(U3-Pad9)*
X103860000Y-55590000D03*
G04 #@! TO.P,U5,6*
G04 #@! TO.N,Net-(U3-Pad7)*
X101320000Y-55590000D03*
G04 #@! TO.P,U5,7*
G04 #@! TO.N,Net-(R2-Pad2)*
X98780000Y-55590000D03*
G04 #@! TD*
D14*
G04 #@! TO.N,Net-(U2-Pad3)*
G04 #@! TO.C,U2*
G36*
X120179207Y-113671926D02*
X120218036Y-113677686D01*
X120256114Y-113687224D01*
X120293073Y-113700448D01*
X120328559Y-113717231D01*
X120362228Y-113737412D01*
X120393757Y-113760796D01*
X120422843Y-113787157D01*
X120449204Y-113816243D01*
X120472588Y-113847772D01*
X120492769Y-113881441D01*
X120509552Y-113916927D01*
X120522776Y-113953886D01*
X120532314Y-113991964D01*
X120538074Y-114030793D01*
X120540000Y-114070000D01*
X120540000Y-114870000D01*
X120538074Y-114909207D01*
X120532314Y-114948036D01*
X120522776Y-114986114D01*
X120509552Y-115023073D01*
X120492769Y-115058559D01*
X120472588Y-115092228D01*
X120449204Y-115123757D01*
X120422843Y-115152843D01*
X120393757Y-115179204D01*
X120362228Y-115202588D01*
X120328559Y-115222769D01*
X120293073Y-115239552D01*
X120256114Y-115252776D01*
X120218036Y-115262314D01*
X120179207Y-115268074D01*
X120140000Y-115270000D01*
X119340000Y-115270000D01*
X119300793Y-115268074D01*
X119261964Y-115262314D01*
X119223886Y-115252776D01*
X119186927Y-115239552D01*
X119151441Y-115222769D01*
X119117772Y-115202588D01*
X119086243Y-115179204D01*
X119057157Y-115152843D01*
X119030796Y-115123757D01*
X119007412Y-115092228D01*
X118987231Y-115058559D01*
X118970448Y-115023073D01*
X118957224Y-114986114D01*
X118947686Y-114948036D01*
X118941926Y-114909207D01*
X118940000Y-114870000D01*
X118940000Y-114070000D01*
X118941926Y-114030793D01*
X118947686Y-113991964D01*
X118957224Y-113953886D01*
X118970448Y-113916927D01*
X118987231Y-113881441D01*
X119007412Y-113847772D01*
X119030796Y-113816243D01*
X119057157Y-113787157D01*
X119086243Y-113760796D01*
X119117772Y-113737412D01*
X119151441Y-113717231D01*
X119186927Y-113700448D01*
X119223886Y-113687224D01*
X119261964Y-113677686D01*
X119300793Y-113671926D01*
X119340000Y-113670000D01*
X120140000Y-113670000D01*
X120179207Y-113671926D01*
X120179207Y-113671926D01*
G37*
D15*
G04 #@! TD*
G04 #@! TO.P,U2,3*
G04 #@! TO.N,Net-(U2-Pad3)*
X119740000Y-114470000D03*
D14*
G04 #@! TO.N,Net-(SW1-Pad2)*
G04 #@! TO.C,U2*
G36*
X120179207Y-116211926D02*
X120218036Y-116217686D01*
X120256114Y-116227224D01*
X120293073Y-116240448D01*
X120328559Y-116257231D01*
X120362228Y-116277412D01*
X120393757Y-116300796D01*
X120422843Y-116327157D01*
X120449204Y-116356243D01*
X120472588Y-116387772D01*
X120492769Y-116421441D01*
X120509552Y-116456927D01*
X120522776Y-116493886D01*
X120532314Y-116531964D01*
X120538074Y-116570793D01*
X120540000Y-116610000D01*
X120540000Y-117410000D01*
X120538074Y-117449207D01*
X120532314Y-117488036D01*
X120522776Y-117526114D01*
X120509552Y-117563073D01*
X120492769Y-117598559D01*
X120472588Y-117632228D01*
X120449204Y-117663757D01*
X120422843Y-117692843D01*
X120393757Y-117719204D01*
X120362228Y-117742588D01*
X120328559Y-117762769D01*
X120293073Y-117779552D01*
X120256114Y-117792776D01*
X120218036Y-117802314D01*
X120179207Y-117808074D01*
X120140000Y-117810000D01*
X119340000Y-117810000D01*
X119300793Y-117808074D01*
X119261964Y-117802314D01*
X119223886Y-117792776D01*
X119186927Y-117779552D01*
X119151441Y-117762769D01*
X119117772Y-117742588D01*
X119086243Y-117719204D01*
X119057157Y-117692843D01*
X119030796Y-117663757D01*
X119007412Y-117632228D01*
X118987231Y-117598559D01*
X118970448Y-117563073D01*
X118957224Y-117526114D01*
X118947686Y-117488036D01*
X118941926Y-117449207D01*
X118940000Y-117410000D01*
X118940000Y-116610000D01*
X118941926Y-116570793D01*
X118947686Y-116531964D01*
X118957224Y-116493886D01*
X118970448Y-116456927D01*
X118987231Y-116421441D01*
X119007412Y-116387772D01*
X119030796Y-116356243D01*
X119057157Y-116327157D01*
X119086243Y-116300796D01*
X119117772Y-116277412D01*
X119151441Y-116257231D01*
X119186927Y-116240448D01*
X119223886Y-116227224D01*
X119261964Y-116217686D01*
X119300793Y-116211926D01*
X119340000Y-116210000D01*
X120140000Y-116210000D01*
X120179207Y-116211926D01*
X120179207Y-116211926D01*
G37*
D15*
G04 #@! TD*
G04 #@! TO.P,U2,4*
G04 #@! TO.N,Net-(SW1-Pad2)*
X119740000Y-117010000D03*
D14*
G04 #@! TO.N,Net-(U2-Pad5)*
G04 #@! TO.C,U2*
G36*
X120179207Y-118751926D02*
X120218036Y-118757686D01*
X120256114Y-118767224D01*
X120293073Y-118780448D01*
X120328559Y-118797231D01*
X120362228Y-118817412D01*
X120393757Y-118840796D01*
X120422843Y-118867157D01*
X120449204Y-118896243D01*
X120472588Y-118927772D01*
X120492769Y-118961441D01*
X120509552Y-118996927D01*
X120522776Y-119033886D01*
X120532314Y-119071964D01*
X120538074Y-119110793D01*
X120540000Y-119150000D01*
X120540000Y-119950000D01*
X120538074Y-119989207D01*
X120532314Y-120028036D01*
X120522776Y-120066114D01*
X120509552Y-120103073D01*
X120492769Y-120138559D01*
X120472588Y-120172228D01*
X120449204Y-120203757D01*
X120422843Y-120232843D01*
X120393757Y-120259204D01*
X120362228Y-120282588D01*
X120328559Y-120302769D01*
X120293073Y-120319552D01*
X120256114Y-120332776D01*
X120218036Y-120342314D01*
X120179207Y-120348074D01*
X120140000Y-120350000D01*
X119340000Y-120350000D01*
X119300793Y-120348074D01*
X119261964Y-120342314D01*
X119223886Y-120332776D01*
X119186927Y-120319552D01*
X119151441Y-120302769D01*
X119117772Y-120282588D01*
X119086243Y-120259204D01*
X119057157Y-120232843D01*
X119030796Y-120203757D01*
X119007412Y-120172228D01*
X118987231Y-120138559D01*
X118970448Y-120103073D01*
X118957224Y-120066114D01*
X118947686Y-120028036D01*
X118941926Y-119989207D01*
X118940000Y-119950000D01*
X118940000Y-119150000D01*
X118941926Y-119110793D01*
X118947686Y-119071964D01*
X118957224Y-119033886D01*
X118970448Y-118996927D01*
X118987231Y-118961441D01*
X119007412Y-118927772D01*
X119030796Y-118896243D01*
X119057157Y-118867157D01*
X119086243Y-118840796D01*
X119117772Y-118817412D01*
X119151441Y-118797231D01*
X119186927Y-118780448D01*
X119223886Y-118767224D01*
X119261964Y-118757686D01*
X119300793Y-118751926D01*
X119340000Y-118750000D01*
X120140000Y-118750000D01*
X120179207Y-118751926D01*
X120179207Y-118751926D01*
G37*
D15*
G04 #@! TD*
G04 #@! TO.P,U2,5*
G04 #@! TO.N,Net-(U2-Pad5)*
X119740000Y-119550000D03*
D14*
G04 #@! TO.N,Net-(U2-Pad6)*
G04 #@! TO.C,U2*
G36*
X120179207Y-121291926D02*
X120218036Y-121297686D01*
X120256114Y-121307224D01*
X120293073Y-121320448D01*
X120328559Y-121337231D01*
X120362228Y-121357412D01*
X120393757Y-121380796D01*
X120422843Y-121407157D01*
X120449204Y-121436243D01*
X120472588Y-121467772D01*
X120492769Y-121501441D01*
X120509552Y-121536927D01*
X120522776Y-121573886D01*
X120532314Y-121611964D01*
X120538074Y-121650793D01*
X120540000Y-121690000D01*
X120540000Y-122490000D01*
X120538074Y-122529207D01*
X120532314Y-122568036D01*
X120522776Y-122606114D01*
X120509552Y-122643073D01*
X120492769Y-122678559D01*
X120472588Y-122712228D01*
X120449204Y-122743757D01*
X120422843Y-122772843D01*
X120393757Y-122799204D01*
X120362228Y-122822588D01*
X120328559Y-122842769D01*
X120293073Y-122859552D01*
X120256114Y-122872776D01*
X120218036Y-122882314D01*
X120179207Y-122888074D01*
X120140000Y-122890000D01*
X119340000Y-122890000D01*
X119300793Y-122888074D01*
X119261964Y-122882314D01*
X119223886Y-122872776D01*
X119186927Y-122859552D01*
X119151441Y-122842769D01*
X119117772Y-122822588D01*
X119086243Y-122799204D01*
X119057157Y-122772843D01*
X119030796Y-122743757D01*
X119007412Y-122712228D01*
X118987231Y-122678559D01*
X118970448Y-122643073D01*
X118957224Y-122606114D01*
X118947686Y-122568036D01*
X118941926Y-122529207D01*
X118940000Y-122490000D01*
X118940000Y-121690000D01*
X118941926Y-121650793D01*
X118947686Y-121611964D01*
X118957224Y-121573886D01*
X118970448Y-121536927D01*
X118987231Y-121501441D01*
X119007412Y-121467772D01*
X119030796Y-121436243D01*
X119057157Y-121407157D01*
X119086243Y-121380796D01*
X119117772Y-121357412D01*
X119151441Y-121337231D01*
X119186927Y-121320448D01*
X119223886Y-121307224D01*
X119261964Y-121297686D01*
X119300793Y-121291926D01*
X119340000Y-121290000D01*
X120140000Y-121290000D01*
X120179207Y-121291926D01*
X120179207Y-121291926D01*
G37*
D15*
G04 #@! TD*
G04 #@! TO.P,U2,6*
G04 #@! TO.N,Net-(U2-Pad6)*
X119740000Y-122090000D03*
D14*
G04 #@! TO.N,Net-(R1-Pad2)*
G04 #@! TO.C,U2*
G36*
X120179207Y-111131926D02*
X120218036Y-111137686D01*
X120256114Y-111147224D01*
X120293073Y-111160448D01*
X120328559Y-111177231D01*
X120362228Y-111197412D01*
X120393757Y-111220796D01*
X120422843Y-111247157D01*
X120449204Y-111276243D01*
X120472588Y-111307772D01*
X120492769Y-111341441D01*
X120509552Y-111376927D01*
X120522776Y-111413886D01*
X120532314Y-111451964D01*
X120538074Y-111490793D01*
X120540000Y-111530000D01*
X120540000Y-112330000D01*
X120538074Y-112369207D01*
X120532314Y-112408036D01*
X120522776Y-112446114D01*
X120509552Y-112483073D01*
X120492769Y-112518559D01*
X120472588Y-112552228D01*
X120449204Y-112583757D01*
X120422843Y-112612843D01*
X120393757Y-112639204D01*
X120362228Y-112662588D01*
X120328559Y-112682769D01*
X120293073Y-112699552D01*
X120256114Y-112712776D01*
X120218036Y-112722314D01*
X120179207Y-112728074D01*
X120140000Y-112730000D01*
X119340000Y-112730000D01*
X119300793Y-112728074D01*
X119261964Y-112722314D01*
X119223886Y-112712776D01*
X119186927Y-112699552D01*
X119151441Y-112682769D01*
X119117772Y-112662588D01*
X119086243Y-112639204D01*
X119057157Y-112612843D01*
X119030796Y-112583757D01*
X119007412Y-112552228D01*
X118987231Y-112518559D01*
X118970448Y-112483073D01*
X118957224Y-112446114D01*
X118947686Y-112408036D01*
X118941926Y-112369207D01*
X118940000Y-112330000D01*
X118940000Y-111530000D01*
X118941926Y-111490793D01*
X118947686Y-111451964D01*
X118957224Y-111413886D01*
X118970448Y-111376927D01*
X118987231Y-111341441D01*
X119007412Y-111307772D01*
X119030796Y-111276243D01*
X119057157Y-111247157D01*
X119086243Y-111220796D01*
X119117772Y-111197412D01*
X119151441Y-111177231D01*
X119186927Y-111160448D01*
X119223886Y-111147224D01*
X119261964Y-111137686D01*
X119300793Y-111131926D01*
X119340000Y-111130000D01*
X120140000Y-111130000D01*
X120179207Y-111131926D01*
X120179207Y-111131926D01*
G37*
D15*
G04 #@! TD*
G04 #@! TO.P,U2,2*
G04 #@! TO.N,Net-(R1-Pad2)*
X119740000Y-111930000D03*
D14*
G04 #@! TO.N,Net-(R2-Pad1)*
G04 #@! TO.C,U2*
G36*
X120179207Y-108591926D02*
X120218036Y-108597686D01*
X120256114Y-108607224D01*
X120293073Y-108620448D01*
X120328559Y-108637231D01*
X120362228Y-108657412D01*
X120393757Y-108680796D01*
X120422843Y-108707157D01*
X120449204Y-108736243D01*
X120472588Y-108767772D01*
X120492769Y-108801441D01*
X120509552Y-108836927D01*
X120522776Y-108873886D01*
X120532314Y-108911964D01*
X120538074Y-108950793D01*
X120540000Y-108990000D01*
X120540000Y-109790000D01*
X120538074Y-109829207D01*
X120532314Y-109868036D01*
X120522776Y-109906114D01*
X120509552Y-109943073D01*
X120492769Y-109978559D01*
X120472588Y-110012228D01*
X120449204Y-110043757D01*
X120422843Y-110072843D01*
X120393757Y-110099204D01*
X120362228Y-110122588D01*
X120328559Y-110142769D01*
X120293073Y-110159552D01*
X120256114Y-110172776D01*
X120218036Y-110182314D01*
X120179207Y-110188074D01*
X120140000Y-110190000D01*
X119340000Y-110190000D01*
X119300793Y-110188074D01*
X119261964Y-110182314D01*
X119223886Y-110172776D01*
X119186927Y-110159552D01*
X119151441Y-110142769D01*
X119117772Y-110122588D01*
X119086243Y-110099204D01*
X119057157Y-110072843D01*
X119030796Y-110043757D01*
X119007412Y-110012228D01*
X118987231Y-109978559D01*
X118970448Y-109943073D01*
X118957224Y-109906114D01*
X118947686Y-109868036D01*
X118941926Y-109829207D01*
X118940000Y-109790000D01*
X118940000Y-108990000D01*
X118941926Y-108950793D01*
X118947686Y-108911964D01*
X118957224Y-108873886D01*
X118970448Y-108836927D01*
X118987231Y-108801441D01*
X119007412Y-108767772D01*
X119030796Y-108736243D01*
X119057157Y-108707157D01*
X119086243Y-108680796D01*
X119117772Y-108657412D01*
X119151441Y-108637231D01*
X119186927Y-108620448D01*
X119223886Y-108607224D01*
X119261964Y-108597686D01*
X119300793Y-108591926D01*
X119340000Y-108590000D01*
X120140000Y-108590000D01*
X120179207Y-108591926D01*
X120179207Y-108591926D01*
G37*
D15*
G04 #@! TD*
G04 #@! TO.P,U2,1*
G04 #@! TO.N,Net-(R2-Pad1)*
X119740000Y-109390000D03*
D14*
G04 #@! TO.N,Net-(SW9-Pad2)*
G04 #@! TO.C,U4*
G36*
X109639207Y-91731926D02*
X109678036Y-91737686D01*
X109716114Y-91747224D01*
X109753073Y-91760448D01*
X109788559Y-91777231D01*
X109822228Y-91797412D01*
X109853757Y-91820796D01*
X109882843Y-91847157D01*
X109909204Y-91876243D01*
X109932588Y-91907772D01*
X109952769Y-91941441D01*
X109969552Y-91976927D01*
X109982776Y-92013886D01*
X109992314Y-92051964D01*
X109998074Y-92090793D01*
X110000000Y-92130000D01*
X110000000Y-92930000D01*
X109998074Y-92969207D01*
X109992314Y-93008036D01*
X109982776Y-93046114D01*
X109969552Y-93083073D01*
X109952769Y-93118559D01*
X109932588Y-93152228D01*
X109909204Y-93183757D01*
X109882843Y-93212843D01*
X109853757Y-93239204D01*
X109822228Y-93262588D01*
X109788559Y-93282769D01*
X109753073Y-93299552D01*
X109716114Y-93312776D01*
X109678036Y-93322314D01*
X109639207Y-93328074D01*
X109600000Y-93330000D01*
X108800000Y-93330000D01*
X108760793Y-93328074D01*
X108721964Y-93322314D01*
X108683886Y-93312776D01*
X108646927Y-93299552D01*
X108611441Y-93282769D01*
X108577772Y-93262588D01*
X108546243Y-93239204D01*
X108517157Y-93212843D01*
X108490796Y-93183757D01*
X108467412Y-93152228D01*
X108447231Y-93118559D01*
X108430448Y-93083073D01*
X108417224Y-93046114D01*
X108407686Y-93008036D01*
X108401926Y-92969207D01*
X108400000Y-92930000D01*
X108400000Y-92130000D01*
X108401926Y-92090793D01*
X108407686Y-92051964D01*
X108417224Y-92013886D01*
X108430448Y-91976927D01*
X108447231Y-91941441D01*
X108467412Y-91907772D01*
X108490796Y-91876243D01*
X108517157Y-91847157D01*
X108546243Y-91820796D01*
X108577772Y-91797412D01*
X108611441Y-91777231D01*
X108646927Y-91760448D01*
X108683886Y-91747224D01*
X108721964Y-91737686D01*
X108760793Y-91731926D01*
X108800000Y-91730000D01*
X109600000Y-91730000D01*
X109639207Y-91731926D01*
X109639207Y-91731926D01*
G37*
D15*
G04 #@! TD*
G04 #@! TO.P,U4,1*
G04 #@! TO.N,Net-(SW9-Pad2)*
X109200000Y-92530000D03*
D14*
G04 #@! TO.N,Net-(SW1-Pad2)*
G04 #@! TO.C,U4*
G36*
X109639207Y-94271926D02*
X109678036Y-94277686D01*
X109716114Y-94287224D01*
X109753073Y-94300448D01*
X109788559Y-94317231D01*
X109822228Y-94337412D01*
X109853757Y-94360796D01*
X109882843Y-94387157D01*
X109909204Y-94416243D01*
X109932588Y-94447772D01*
X109952769Y-94481441D01*
X109969552Y-94516927D01*
X109982776Y-94553886D01*
X109992314Y-94591964D01*
X109998074Y-94630793D01*
X110000000Y-94670000D01*
X110000000Y-95470000D01*
X109998074Y-95509207D01*
X109992314Y-95548036D01*
X109982776Y-95586114D01*
X109969552Y-95623073D01*
X109952769Y-95658559D01*
X109932588Y-95692228D01*
X109909204Y-95723757D01*
X109882843Y-95752843D01*
X109853757Y-95779204D01*
X109822228Y-95802588D01*
X109788559Y-95822769D01*
X109753073Y-95839552D01*
X109716114Y-95852776D01*
X109678036Y-95862314D01*
X109639207Y-95868074D01*
X109600000Y-95870000D01*
X108800000Y-95870000D01*
X108760793Y-95868074D01*
X108721964Y-95862314D01*
X108683886Y-95852776D01*
X108646927Y-95839552D01*
X108611441Y-95822769D01*
X108577772Y-95802588D01*
X108546243Y-95779204D01*
X108517157Y-95752843D01*
X108490796Y-95723757D01*
X108467412Y-95692228D01*
X108447231Y-95658559D01*
X108430448Y-95623073D01*
X108417224Y-95586114D01*
X108407686Y-95548036D01*
X108401926Y-95509207D01*
X108400000Y-95470000D01*
X108400000Y-94670000D01*
X108401926Y-94630793D01*
X108407686Y-94591964D01*
X108417224Y-94553886D01*
X108430448Y-94516927D01*
X108447231Y-94481441D01*
X108467412Y-94447772D01*
X108490796Y-94416243D01*
X108517157Y-94387157D01*
X108546243Y-94360796D01*
X108577772Y-94337412D01*
X108611441Y-94317231D01*
X108646927Y-94300448D01*
X108683886Y-94287224D01*
X108721964Y-94277686D01*
X108760793Y-94271926D01*
X108800000Y-94270000D01*
X109600000Y-94270000D01*
X109639207Y-94271926D01*
X109639207Y-94271926D01*
G37*
D15*
G04 #@! TD*
G04 #@! TO.P,U4,2*
G04 #@! TO.N,Net-(SW1-Pad2)*
X109200000Y-95070000D03*
D14*
G04 #@! TO.N,Net-(R2-Pad1)*
G04 #@! TO.C,U4*
G36*
X109639207Y-96811926D02*
X109678036Y-96817686D01*
X109716114Y-96827224D01*
X109753073Y-96840448D01*
X109788559Y-96857231D01*
X109822228Y-96877412D01*
X109853757Y-96900796D01*
X109882843Y-96927157D01*
X109909204Y-96956243D01*
X109932588Y-96987772D01*
X109952769Y-97021441D01*
X109969552Y-97056927D01*
X109982776Y-97093886D01*
X109992314Y-97131964D01*
X109998074Y-97170793D01*
X110000000Y-97210000D01*
X110000000Y-98010000D01*
X109998074Y-98049207D01*
X109992314Y-98088036D01*
X109982776Y-98126114D01*
X109969552Y-98163073D01*
X109952769Y-98198559D01*
X109932588Y-98232228D01*
X109909204Y-98263757D01*
X109882843Y-98292843D01*
X109853757Y-98319204D01*
X109822228Y-98342588D01*
X109788559Y-98362769D01*
X109753073Y-98379552D01*
X109716114Y-98392776D01*
X109678036Y-98402314D01*
X109639207Y-98408074D01*
X109600000Y-98410000D01*
X108800000Y-98410000D01*
X108760793Y-98408074D01*
X108721964Y-98402314D01*
X108683886Y-98392776D01*
X108646927Y-98379552D01*
X108611441Y-98362769D01*
X108577772Y-98342588D01*
X108546243Y-98319204D01*
X108517157Y-98292843D01*
X108490796Y-98263757D01*
X108467412Y-98232228D01*
X108447231Y-98198559D01*
X108430448Y-98163073D01*
X108417224Y-98126114D01*
X108407686Y-98088036D01*
X108401926Y-98049207D01*
X108400000Y-98010000D01*
X108400000Y-97210000D01*
X108401926Y-97170793D01*
X108407686Y-97131964D01*
X108417224Y-97093886D01*
X108430448Y-97056927D01*
X108447231Y-97021441D01*
X108467412Y-96987772D01*
X108490796Y-96956243D01*
X108517157Y-96927157D01*
X108546243Y-96900796D01*
X108577772Y-96877412D01*
X108611441Y-96857231D01*
X108646927Y-96840448D01*
X108683886Y-96827224D01*
X108721964Y-96817686D01*
X108760793Y-96811926D01*
X108800000Y-96810000D01*
X109600000Y-96810000D01*
X109639207Y-96811926D01*
X109639207Y-96811926D01*
G37*
D15*
G04 #@! TD*
G04 #@! TO.P,U4,3*
G04 #@! TO.N,Net-(R2-Pad1)*
X109200000Y-97610000D03*
D14*
G04 #@! TO.N,Net-(R1-Pad1)*
G04 #@! TO.C,R1*
G36*
X110187004Y-102096204D02*
X110211273Y-102099804D01*
X110235071Y-102105765D01*
X110258171Y-102114030D01*
X110280349Y-102124520D01*
X110301393Y-102137133D01*
X110321098Y-102151747D01*
X110339277Y-102168223D01*
X110355753Y-102186402D01*
X110370367Y-102206107D01*
X110382980Y-102227151D01*
X110393470Y-102249329D01*
X110401735Y-102272429D01*
X110407696Y-102296227D01*
X110411296Y-102320496D01*
X110412500Y-102345000D01*
X110412500Y-103595000D01*
X110411296Y-103619504D01*
X110407696Y-103643773D01*
X110401735Y-103667571D01*
X110393470Y-103690671D01*
X110382980Y-103712849D01*
X110370367Y-103733893D01*
X110355753Y-103753598D01*
X110339277Y-103771777D01*
X110321098Y-103788253D01*
X110301393Y-103802867D01*
X110280349Y-103815480D01*
X110258171Y-103825970D01*
X110235071Y-103834235D01*
X110211273Y-103840196D01*
X110187004Y-103843796D01*
X110162500Y-103845000D01*
X109237500Y-103845000D01*
X109212996Y-103843796D01*
X109188727Y-103840196D01*
X109164929Y-103834235D01*
X109141829Y-103825970D01*
X109119651Y-103815480D01*
X109098607Y-103802867D01*
X109078902Y-103788253D01*
X109060723Y-103771777D01*
X109044247Y-103753598D01*
X109029633Y-103733893D01*
X109017020Y-103712849D01*
X109006530Y-103690671D01*
X108998265Y-103667571D01*
X108992304Y-103643773D01*
X108988704Y-103619504D01*
X108987500Y-103595000D01*
X108987500Y-102345000D01*
X108988704Y-102320496D01*
X108992304Y-102296227D01*
X108998265Y-102272429D01*
X109006530Y-102249329D01*
X109017020Y-102227151D01*
X109029633Y-102206107D01*
X109044247Y-102186402D01*
X109060723Y-102168223D01*
X109078902Y-102151747D01*
X109098607Y-102137133D01*
X109119651Y-102124520D01*
X109141829Y-102114030D01*
X109164929Y-102105765D01*
X109188727Y-102099804D01*
X109212996Y-102096204D01*
X109237500Y-102095000D01*
X110162500Y-102095000D01*
X110187004Y-102096204D01*
X110187004Y-102096204D01*
G37*
D16*
G04 #@! TD*
G04 #@! TO.P,R1,1*
G04 #@! TO.N,Net-(R1-Pad1)*
X109700000Y-102970000D03*
D14*
G04 #@! TO.N,Net-(R1-Pad2)*
G04 #@! TO.C,R1*
G36*
X107212004Y-102096204D02*
X107236273Y-102099804D01*
X107260071Y-102105765D01*
X107283171Y-102114030D01*
X107305349Y-102124520D01*
X107326393Y-102137133D01*
X107346098Y-102151747D01*
X107364277Y-102168223D01*
X107380753Y-102186402D01*
X107395367Y-102206107D01*
X107407980Y-102227151D01*
X107418470Y-102249329D01*
X107426735Y-102272429D01*
X107432696Y-102296227D01*
X107436296Y-102320496D01*
X107437500Y-102345000D01*
X107437500Y-103595000D01*
X107436296Y-103619504D01*
X107432696Y-103643773D01*
X107426735Y-103667571D01*
X107418470Y-103690671D01*
X107407980Y-103712849D01*
X107395367Y-103733893D01*
X107380753Y-103753598D01*
X107364277Y-103771777D01*
X107346098Y-103788253D01*
X107326393Y-103802867D01*
X107305349Y-103815480D01*
X107283171Y-103825970D01*
X107260071Y-103834235D01*
X107236273Y-103840196D01*
X107212004Y-103843796D01*
X107187500Y-103845000D01*
X106262500Y-103845000D01*
X106237996Y-103843796D01*
X106213727Y-103840196D01*
X106189929Y-103834235D01*
X106166829Y-103825970D01*
X106144651Y-103815480D01*
X106123607Y-103802867D01*
X106103902Y-103788253D01*
X106085723Y-103771777D01*
X106069247Y-103753598D01*
X106054633Y-103733893D01*
X106042020Y-103712849D01*
X106031530Y-103690671D01*
X106023265Y-103667571D01*
X106017304Y-103643773D01*
X106013704Y-103619504D01*
X106012500Y-103595000D01*
X106012500Y-102345000D01*
X106013704Y-102320496D01*
X106017304Y-102296227D01*
X106023265Y-102272429D01*
X106031530Y-102249329D01*
X106042020Y-102227151D01*
X106054633Y-102206107D01*
X106069247Y-102186402D01*
X106085723Y-102168223D01*
X106103902Y-102151747D01*
X106123607Y-102137133D01*
X106144651Y-102124520D01*
X106166829Y-102114030D01*
X106189929Y-102105765D01*
X106213727Y-102099804D01*
X106237996Y-102096204D01*
X106262500Y-102095000D01*
X107187500Y-102095000D01*
X107212004Y-102096204D01*
X107212004Y-102096204D01*
G37*
D16*
G04 #@! TD*
G04 #@! TO.P,R1,2*
G04 #@! TO.N,Net-(R1-Pad2)*
X106725000Y-102970000D03*
D14*
G04 #@! TO.N,Net-(R2-Pad2)*
G04 #@! TO.C,R2*
G36*
X110277004Y-104956204D02*
X110301273Y-104959804D01*
X110325071Y-104965765D01*
X110348171Y-104974030D01*
X110370349Y-104984520D01*
X110391393Y-104997133D01*
X110411098Y-105011747D01*
X110429277Y-105028223D01*
X110445753Y-105046402D01*
X110460367Y-105066107D01*
X110472980Y-105087151D01*
X110483470Y-105109329D01*
X110491735Y-105132429D01*
X110497696Y-105156227D01*
X110501296Y-105180496D01*
X110502500Y-105205000D01*
X110502500Y-106455000D01*
X110501296Y-106479504D01*
X110497696Y-106503773D01*
X110491735Y-106527571D01*
X110483470Y-106550671D01*
X110472980Y-106572849D01*
X110460367Y-106593893D01*
X110445753Y-106613598D01*
X110429277Y-106631777D01*
X110411098Y-106648253D01*
X110391393Y-106662867D01*
X110370349Y-106675480D01*
X110348171Y-106685970D01*
X110325071Y-106694235D01*
X110301273Y-106700196D01*
X110277004Y-106703796D01*
X110252500Y-106705000D01*
X109327500Y-106705000D01*
X109302996Y-106703796D01*
X109278727Y-106700196D01*
X109254929Y-106694235D01*
X109231829Y-106685970D01*
X109209651Y-106675480D01*
X109188607Y-106662867D01*
X109168902Y-106648253D01*
X109150723Y-106631777D01*
X109134247Y-106613598D01*
X109119633Y-106593893D01*
X109107020Y-106572849D01*
X109096530Y-106550671D01*
X109088265Y-106527571D01*
X109082304Y-106503773D01*
X109078704Y-106479504D01*
X109077500Y-106455000D01*
X109077500Y-105205000D01*
X109078704Y-105180496D01*
X109082304Y-105156227D01*
X109088265Y-105132429D01*
X109096530Y-105109329D01*
X109107020Y-105087151D01*
X109119633Y-105066107D01*
X109134247Y-105046402D01*
X109150723Y-105028223D01*
X109168902Y-105011747D01*
X109188607Y-104997133D01*
X109209651Y-104984520D01*
X109231829Y-104974030D01*
X109254929Y-104965765D01*
X109278727Y-104959804D01*
X109302996Y-104956204D01*
X109327500Y-104955000D01*
X110252500Y-104955000D01*
X110277004Y-104956204D01*
X110277004Y-104956204D01*
G37*
D16*
G04 #@! TD*
G04 #@! TO.P,R2,2*
G04 #@! TO.N,Net-(R2-Pad2)*
X109790000Y-105830000D03*
D14*
G04 #@! TO.N,Net-(R2-Pad1)*
G04 #@! TO.C,R2*
G36*
X107302004Y-104956204D02*
X107326273Y-104959804D01*
X107350071Y-104965765D01*
X107373171Y-104974030D01*
X107395349Y-104984520D01*
X107416393Y-104997133D01*
X107436098Y-105011747D01*
X107454277Y-105028223D01*
X107470753Y-105046402D01*
X107485367Y-105066107D01*
X107497980Y-105087151D01*
X107508470Y-105109329D01*
X107516735Y-105132429D01*
X107522696Y-105156227D01*
X107526296Y-105180496D01*
X107527500Y-105205000D01*
X107527500Y-106455000D01*
X107526296Y-106479504D01*
X107522696Y-106503773D01*
X107516735Y-106527571D01*
X107508470Y-106550671D01*
X107497980Y-106572849D01*
X107485367Y-106593893D01*
X107470753Y-106613598D01*
X107454277Y-106631777D01*
X107436098Y-106648253D01*
X107416393Y-106662867D01*
X107395349Y-106675480D01*
X107373171Y-106685970D01*
X107350071Y-106694235D01*
X107326273Y-106700196D01*
X107302004Y-106703796D01*
X107277500Y-106705000D01*
X106352500Y-106705000D01*
X106327996Y-106703796D01*
X106303727Y-106700196D01*
X106279929Y-106694235D01*
X106256829Y-106685970D01*
X106234651Y-106675480D01*
X106213607Y-106662867D01*
X106193902Y-106648253D01*
X106175723Y-106631777D01*
X106159247Y-106613598D01*
X106144633Y-106593893D01*
X106132020Y-106572849D01*
X106121530Y-106550671D01*
X106113265Y-106527571D01*
X106107304Y-106503773D01*
X106103704Y-106479504D01*
X106102500Y-106455000D01*
X106102500Y-105205000D01*
X106103704Y-105180496D01*
X106107304Y-105156227D01*
X106113265Y-105132429D01*
X106121530Y-105109329D01*
X106132020Y-105087151D01*
X106144633Y-105066107D01*
X106159247Y-105046402D01*
X106175723Y-105028223D01*
X106193902Y-105011747D01*
X106213607Y-104997133D01*
X106234651Y-104984520D01*
X106256829Y-104974030D01*
X106279929Y-104965765D01*
X106303727Y-104959804D01*
X106327996Y-104956204D01*
X106352500Y-104955000D01*
X107277500Y-104955000D01*
X107302004Y-104956204D01*
X107302004Y-104956204D01*
G37*
D16*
G04 #@! TD*
G04 #@! TO.P,R2,1*
G04 #@! TO.N,Net-(R2-Pad1)*
X106815000Y-105830000D03*
D14*
G04 #@! TO.N,Net-(U3-Pad1)*
G04 #@! TO.C,U3*
G36*
X69039207Y-119091926D02*
X69078036Y-119097686D01*
X69116114Y-119107224D01*
X69153073Y-119120448D01*
X69188559Y-119137231D01*
X69222228Y-119157412D01*
X69253757Y-119180796D01*
X69282843Y-119207157D01*
X69309204Y-119236243D01*
X69332588Y-119267772D01*
X69352769Y-119301441D01*
X69369552Y-119336927D01*
X69382776Y-119373886D01*
X69392314Y-119411964D01*
X69398074Y-119450793D01*
X69400000Y-119490000D01*
X69400000Y-120290000D01*
X69398074Y-120329207D01*
X69392314Y-120368036D01*
X69382776Y-120406114D01*
X69369552Y-120443073D01*
X69352769Y-120478559D01*
X69332588Y-120512228D01*
X69309204Y-120543757D01*
X69282843Y-120572843D01*
X69253757Y-120599204D01*
X69222228Y-120622588D01*
X69188559Y-120642769D01*
X69153073Y-120659552D01*
X69116114Y-120672776D01*
X69078036Y-120682314D01*
X69039207Y-120688074D01*
X69000000Y-120690000D01*
X68200000Y-120690000D01*
X68160793Y-120688074D01*
X68121964Y-120682314D01*
X68083886Y-120672776D01*
X68046927Y-120659552D01*
X68011441Y-120642769D01*
X67977772Y-120622588D01*
X67946243Y-120599204D01*
X67917157Y-120572843D01*
X67890796Y-120543757D01*
X67867412Y-120512228D01*
X67847231Y-120478559D01*
X67830448Y-120443073D01*
X67817224Y-120406114D01*
X67807686Y-120368036D01*
X67801926Y-120329207D01*
X67800000Y-120290000D01*
X67800000Y-119490000D01*
X67801926Y-119450793D01*
X67807686Y-119411964D01*
X67817224Y-119373886D01*
X67830448Y-119336927D01*
X67847231Y-119301441D01*
X67867412Y-119267772D01*
X67890796Y-119236243D01*
X67917157Y-119207157D01*
X67946243Y-119180796D01*
X67977772Y-119157412D01*
X68011441Y-119137231D01*
X68046927Y-119120448D01*
X68083886Y-119107224D01*
X68121964Y-119097686D01*
X68160793Y-119091926D01*
X68200000Y-119090000D01*
X69000000Y-119090000D01*
X69039207Y-119091926D01*
X69039207Y-119091926D01*
G37*
D15*
G04 #@! TD*
G04 #@! TO.P,U3,1*
G04 #@! TO.N,Net-(U3-Pad1)*
X68600000Y-119890000D03*
D14*
G04 #@! TO.N,Net-(U3-Pad2)*
G04 #@! TO.C,U3*
G36*
X69039207Y-116551926D02*
X69078036Y-116557686D01*
X69116114Y-116567224D01*
X69153073Y-116580448D01*
X69188559Y-116597231D01*
X69222228Y-116617412D01*
X69253757Y-116640796D01*
X69282843Y-116667157D01*
X69309204Y-116696243D01*
X69332588Y-116727772D01*
X69352769Y-116761441D01*
X69369552Y-116796927D01*
X69382776Y-116833886D01*
X69392314Y-116871964D01*
X69398074Y-116910793D01*
X69400000Y-116950000D01*
X69400000Y-117750000D01*
X69398074Y-117789207D01*
X69392314Y-117828036D01*
X69382776Y-117866114D01*
X69369552Y-117903073D01*
X69352769Y-117938559D01*
X69332588Y-117972228D01*
X69309204Y-118003757D01*
X69282843Y-118032843D01*
X69253757Y-118059204D01*
X69222228Y-118082588D01*
X69188559Y-118102769D01*
X69153073Y-118119552D01*
X69116114Y-118132776D01*
X69078036Y-118142314D01*
X69039207Y-118148074D01*
X69000000Y-118150000D01*
X68200000Y-118150000D01*
X68160793Y-118148074D01*
X68121964Y-118142314D01*
X68083886Y-118132776D01*
X68046927Y-118119552D01*
X68011441Y-118102769D01*
X67977772Y-118082588D01*
X67946243Y-118059204D01*
X67917157Y-118032843D01*
X67890796Y-118003757D01*
X67867412Y-117972228D01*
X67847231Y-117938559D01*
X67830448Y-117903073D01*
X67817224Y-117866114D01*
X67807686Y-117828036D01*
X67801926Y-117789207D01*
X67800000Y-117750000D01*
X67800000Y-116950000D01*
X67801926Y-116910793D01*
X67807686Y-116871964D01*
X67817224Y-116833886D01*
X67830448Y-116796927D01*
X67847231Y-116761441D01*
X67867412Y-116727772D01*
X67890796Y-116696243D01*
X67917157Y-116667157D01*
X67946243Y-116640796D01*
X67977772Y-116617412D01*
X68011441Y-116597231D01*
X68046927Y-116580448D01*
X68083886Y-116567224D01*
X68121964Y-116557686D01*
X68160793Y-116551926D01*
X68200000Y-116550000D01*
X69000000Y-116550000D01*
X69039207Y-116551926D01*
X69039207Y-116551926D01*
G37*
D15*
G04 #@! TD*
G04 #@! TO.P,U3,2*
G04 #@! TO.N,Net-(U3-Pad2)*
X68600000Y-117350000D03*
D14*
G04 #@! TO.N,Net-(U3-Pad3)*
G04 #@! TO.C,U3*
G36*
X69039207Y-114011926D02*
X69078036Y-114017686D01*
X69116114Y-114027224D01*
X69153073Y-114040448D01*
X69188559Y-114057231D01*
X69222228Y-114077412D01*
X69253757Y-114100796D01*
X69282843Y-114127157D01*
X69309204Y-114156243D01*
X69332588Y-114187772D01*
X69352769Y-114221441D01*
X69369552Y-114256927D01*
X69382776Y-114293886D01*
X69392314Y-114331964D01*
X69398074Y-114370793D01*
X69400000Y-114410000D01*
X69400000Y-115210000D01*
X69398074Y-115249207D01*
X69392314Y-115288036D01*
X69382776Y-115326114D01*
X69369552Y-115363073D01*
X69352769Y-115398559D01*
X69332588Y-115432228D01*
X69309204Y-115463757D01*
X69282843Y-115492843D01*
X69253757Y-115519204D01*
X69222228Y-115542588D01*
X69188559Y-115562769D01*
X69153073Y-115579552D01*
X69116114Y-115592776D01*
X69078036Y-115602314D01*
X69039207Y-115608074D01*
X69000000Y-115610000D01*
X68200000Y-115610000D01*
X68160793Y-115608074D01*
X68121964Y-115602314D01*
X68083886Y-115592776D01*
X68046927Y-115579552D01*
X68011441Y-115562769D01*
X67977772Y-115542588D01*
X67946243Y-115519204D01*
X67917157Y-115492843D01*
X67890796Y-115463757D01*
X67867412Y-115432228D01*
X67847231Y-115398559D01*
X67830448Y-115363073D01*
X67817224Y-115326114D01*
X67807686Y-115288036D01*
X67801926Y-115249207D01*
X67800000Y-115210000D01*
X67800000Y-114410000D01*
X67801926Y-114370793D01*
X67807686Y-114331964D01*
X67817224Y-114293886D01*
X67830448Y-114256927D01*
X67847231Y-114221441D01*
X67867412Y-114187772D01*
X67890796Y-114156243D01*
X67917157Y-114127157D01*
X67946243Y-114100796D01*
X67977772Y-114077412D01*
X68011441Y-114057231D01*
X68046927Y-114040448D01*
X68083886Y-114027224D01*
X68121964Y-114017686D01*
X68160793Y-114011926D01*
X68200000Y-114010000D01*
X69000000Y-114010000D01*
X69039207Y-114011926D01*
X69039207Y-114011926D01*
G37*
D15*
G04 #@! TD*
G04 #@! TO.P,U3,3*
G04 #@! TO.N,Net-(U3-Pad3)*
X68600000Y-114810000D03*
D14*
G04 #@! TO.N,Net-(U3-Pad4)*
G04 #@! TO.C,U3*
G36*
X69039207Y-111471926D02*
X69078036Y-111477686D01*
X69116114Y-111487224D01*
X69153073Y-111500448D01*
X69188559Y-111517231D01*
X69222228Y-111537412D01*
X69253757Y-111560796D01*
X69282843Y-111587157D01*
X69309204Y-111616243D01*
X69332588Y-111647772D01*
X69352769Y-111681441D01*
X69369552Y-111716927D01*
X69382776Y-111753886D01*
X69392314Y-111791964D01*
X69398074Y-111830793D01*
X69400000Y-111870000D01*
X69400000Y-112670000D01*
X69398074Y-112709207D01*
X69392314Y-112748036D01*
X69382776Y-112786114D01*
X69369552Y-112823073D01*
X69352769Y-112858559D01*
X69332588Y-112892228D01*
X69309204Y-112923757D01*
X69282843Y-112952843D01*
X69253757Y-112979204D01*
X69222228Y-113002588D01*
X69188559Y-113022769D01*
X69153073Y-113039552D01*
X69116114Y-113052776D01*
X69078036Y-113062314D01*
X69039207Y-113068074D01*
X69000000Y-113070000D01*
X68200000Y-113070000D01*
X68160793Y-113068074D01*
X68121964Y-113062314D01*
X68083886Y-113052776D01*
X68046927Y-113039552D01*
X68011441Y-113022769D01*
X67977772Y-113002588D01*
X67946243Y-112979204D01*
X67917157Y-112952843D01*
X67890796Y-112923757D01*
X67867412Y-112892228D01*
X67847231Y-112858559D01*
X67830448Y-112823073D01*
X67817224Y-112786114D01*
X67807686Y-112748036D01*
X67801926Y-112709207D01*
X67800000Y-112670000D01*
X67800000Y-111870000D01*
X67801926Y-111830793D01*
X67807686Y-111791964D01*
X67817224Y-111753886D01*
X67830448Y-111716927D01*
X67847231Y-111681441D01*
X67867412Y-111647772D01*
X67890796Y-111616243D01*
X67917157Y-111587157D01*
X67946243Y-111560796D01*
X67977772Y-111537412D01*
X68011441Y-111517231D01*
X68046927Y-111500448D01*
X68083886Y-111487224D01*
X68121964Y-111477686D01*
X68160793Y-111471926D01*
X68200000Y-111470000D01*
X69000000Y-111470000D01*
X69039207Y-111471926D01*
X69039207Y-111471926D01*
G37*
D15*
G04 #@! TD*
G04 #@! TO.P,U3,4*
G04 #@! TO.N,Net-(U3-Pad4)*
X68600000Y-112270000D03*
D14*
G04 #@! TO.N,Net-(R1-Pad2)*
G04 #@! TO.C,U3*
G36*
X69039207Y-108931926D02*
X69078036Y-108937686D01*
X69116114Y-108947224D01*
X69153073Y-108960448D01*
X69188559Y-108977231D01*
X69222228Y-108997412D01*
X69253757Y-109020796D01*
X69282843Y-109047157D01*
X69309204Y-109076243D01*
X69332588Y-109107772D01*
X69352769Y-109141441D01*
X69369552Y-109176927D01*
X69382776Y-109213886D01*
X69392314Y-109251964D01*
X69398074Y-109290793D01*
X69400000Y-109330000D01*
X69400000Y-110130000D01*
X69398074Y-110169207D01*
X69392314Y-110208036D01*
X69382776Y-110246114D01*
X69369552Y-110283073D01*
X69352769Y-110318559D01*
X69332588Y-110352228D01*
X69309204Y-110383757D01*
X69282843Y-110412843D01*
X69253757Y-110439204D01*
X69222228Y-110462588D01*
X69188559Y-110482769D01*
X69153073Y-110499552D01*
X69116114Y-110512776D01*
X69078036Y-110522314D01*
X69039207Y-110528074D01*
X69000000Y-110530000D01*
X68200000Y-110530000D01*
X68160793Y-110528074D01*
X68121964Y-110522314D01*
X68083886Y-110512776D01*
X68046927Y-110499552D01*
X68011441Y-110482769D01*
X67977772Y-110462588D01*
X67946243Y-110439204D01*
X67917157Y-110412843D01*
X67890796Y-110383757D01*
X67867412Y-110352228D01*
X67847231Y-110318559D01*
X67830448Y-110283073D01*
X67817224Y-110246114D01*
X67807686Y-110208036D01*
X67801926Y-110169207D01*
X67800000Y-110130000D01*
X67800000Y-109330000D01*
X67801926Y-109290793D01*
X67807686Y-109251964D01*
X67817224Y-109213886D01*
X67830448Y-109176927D01*
X67847231Y-109141441D01*
X67867412Y-109107772D01*
X67890796Y-109076243D01*
X67917157Y-109047157D01*
X67946243Y-109020796D01*
X67977772Y-108997412D01*
X68011441Y-108977231D01*
X68046927Y-108960448D01*
X68083886Y-108947224D01*
X68121964Y-108937686D01*
X68160793Y-108931926D01*
X68200000Y-108930000D01*
X69000000Y-108930000D01*
X69039207Y-108931926D01*
X69039207Y-108931926D01*
G37*
D15*
G04 #@! TD*
G04 #@! TO.P,U3,5*
G04 #@! TO.N,Net-(R1-Pad2)*
X68600000Y-109730000D03*
D14*
G04 #@! TO.N,Net-(U3-Pad6)*
G04 #@! TO.C,U3*
G36*
X69039207Y-106391926D02*
X69078036Y-106397686D01*
X69116114Y-106407224D01*
X69153073Y-106420448D01*
X69188559Y-106437231D01*
X69222228Y-106457412D01*
X69253757Y-106480796D01*
X69282843Y-106507157D01*
X69309204Y-106536243D01*
X69332588Y-106567772D01*
X69352769Y-106601441D01*
X69369552Y-106636927D01*
X69382776Y-106673886D01*
X69392314Y-106711964D01*
X69398074Y-106750793D01*
X69400000Y-106790000D01*
X69400000Y-107590000D01*
X69398074Y-107629207D01*
X69392314Y-107668036D01*
X69382776Y-107706114D01*
X69369552Y-107743073D01*
X69352769Y-107778559D01*
X69332588Y-107812228D01*
X69309204Y-107843757D01*
X69282843Y-107872843D01*
X69253757Y-107899204D01*
X69222228Y-107922588D01*
X69188559Y-107942769D01*
X69153073Y-107959552D01*
X69116114Y-107972776D01*
X69078036Y-107982314D01*
X69039207Y-107988074D01*
X69000000Y-107990000D01*
X68200000Y-107990000D01*
X68160793Y-107988074D01*
X68121964Y-107982314D01*
X68083886Y-107972776D01*
X68046927Y-107959552D01*
X68011441Y-107942769D01*
X67977772Y-107922588D01*
X67946243Y-107899204D01*
X67917157Y-107872843D01*
X67890796Y-107843757D01*
X67867412Y-107812228D01*
X67847231Y-107778559D01*
X67830448Y-107743073D01*
X67817224Y-107706114D01*
X67807686Y-107668036D01*
X67801926Y-107629207D01*
X67800000Y-107590000D01*
X67800000Y-106790000D01*
X67801926Y-106750793D01*
X67807686Y-106711964D01*
X67817224Y-106673886D01*
X67830448Y-106636927D01*
X67847231Y-106601441D01*
X67867412Y-106567772D01*
X67890796Y-106536243D01*
X67917157Y-106507157D01*
X67946243Y-106480796D01*
X67977772Y-106457412D01*
X68011441Y-106437231D01*
X68046927Y-106420448D01*
X68083886Y-106407224D01*
X68121964Y-106397686D01*
X68160793Y-106391926D01*
X68200000Y-106390000D01*
X69000000Y-106390000D01*
X69039207Y-106391926D01*
X69039207Y-106391926D01*
G37*
D15*
G04 #@! TD*
G04 #@! TO.P,U3,6*
G04 #@! TO.N,Net-(U3-Pad6)*
X68600000Y-107190000D03*
D14*
G04 #@! TO.N,Net-(U3-Pad7)*
G04 #@! TO.C,U3*
G36*
X69039207Y-103851926D02*
X69078036Y-103857686D01*
X69116114Y-103867224D01*
X69153073Y-103880448D01*
X69188559Y-103897231D01*
X69222228Y-103917412D01*
X69253757Y-103940796D01*
X69282843Y-103967157D01*
X69309204Y-103996243D01*
X69332588Y-104027772D01*
X69352769Y-104061441D01*
X69369552Y-104096927D01*
X69382776Y-104133886D01*
X69392314Y-104171964D01*
X69398074Y-104210793D01*
X69400000Y-104250000D01*
X69400000Y-105050000D01*
X69398074Y-105089207D01*
X69392314Y-105128036D01*
X69382776Y-105166114D01*
X69369552Y-105203073D01*
X69352769Y-105238559D01*
X69332588Y-105272228D01*
X69309204Y-105303757D01*
X69282843Y-105332843D01*
X69253757Y-105359204D01*
X69222228Y-105382588D01*
X69188559Y-105402769D01*
X69153073Y-105419552D01*
X69116114Y-105432776D01*
X69078036Y-105442314D01*
X69039207Y-105448074D01*
X69000000Y-105450000D01*
X68200000Y-105450000D01*
X68160793Y-105448074D01*
X68121964Y-105442314D01*
X68083886Y-105432776D01*
X68046927Y-105419552D01*
X68011441Y-105402769D01*
X67977772Y-105382588D01*
X67946243Y-105359204D01*
X67917157Y-105332843D01*
X67890796Y-105303757D01*
X67867412Y-105272228D01*
X67847231Y-105238559D01*
X67830448Y-105203073D01*
X67817224Y-105166114D01*
X67807686Y-105128036D01*
X67801926Y-105089207D01*
X67800000Y-105050000D01*
X67800000Y-104250000D01*
X67801926Y-104210793D01*
X67807686Y-104171964D01*
X67817224Y-104133886D01*
X67830448Y-104096927D01*
X67847231Y-104061441D01*
X67867412Y-104027772D01*
X67890796Y-103996243D01*
X67917157Y-103967157D01*
X67946243Y-103940796D01*
X67977772Y-103917412D01*
X68011441Y-103897231D01*
X68046927Y-103880448D01*
X68083886Y-103867224D01*
X68121964Y-103857686D01*
X68160793Y-103851926D01*
X68200000Y-103850000D01*
X69000000Y-103850000D01*
X69039207Y-103851926D01*
X69039207Y-103851926D01*
G37*
D15*
G04 #@! TD*
G04 #@! TO.P,U3,7*
G04 #@! TO.N,Net-(U3-Pad7)*
X68600000Y-104650000D03*
D14*
G04 #@! TO.N,Net-(LS1-Pad1)*
G04 #@! TO.C,U3*
G36*
X69039207Y-101311926D02*
X69078036Y-101317686D01*
X69116114Y-101327224D01*
X69153073Y-101340448D01*
X69188559Y-101357231D01*
X69222228Y-101377412D01*
X69253757Y-101400796D01*
X69282843Y-101427157D01*
X69309204Y-101456243D01*
X69332588Y-101487772D01*
X69352769Y-101521441D01*
X69369552Y-101556927D01*
X69382776Y-101593886D01*
X69392314Y-101631964D01*
X69398074Y-101670793D01*
X69400000Y-101710000D01*
X69400000Y-102510000D01*
X69398074Y-102549207D01*
X69392314Y-102588036D01*
X69382776Y-102626114D01*
X69369552Y-102663073D01*
X69352769Y-102698559D01*
X69332588Y-102732228D01*
X69309204Y-102763757D01*
X69282843Y-102792843D01*
X69253757Y-102819204D01*
X69222228Y-102842588D01*
X69188559Y-102862769D01*
X69153073Y-102879552D01*
X69116114Y-102892776D01*
X69078036Y-102902314D01*
X69039207Y-102908074D01*
X69000000Y-102910000D01*
X68200000Y-102910000D01*
X68160793Y-102908074D01*
X68121964Y-102902314D01*
X68083886Y-102892776D01*
X68046927Y-102879552D01*
X68011441Y-102862769D01*
X67977772Y-102842588D01*
X67946243Y-102819204D01*
X67917157Y-102792843D01*
X67890796Y-102763757D01*
X67867412Y-102732228D01*
X67847231Y-102698559D01*
X67830448Y-102663073D01*
X67817224Y-102626114D01*
X67807686Y-102588036D01*
X67801926Y-102549207D01*
X67800000Y-102510000D01*
X67800000Y-101710000D01*
X67801926Y-101670793D01*
X67807686Y-101631964D01*
X67817224Y-101593886D01*
X67830448Y-101556927D01*
X67847231Y-101521441D01*
X67867412Y-101487772D01*
X67890796Y-101456243D01*
X67917157Y-101427157D01*
X67946243Y-101400796D01*
X67977772Y-101377412D01*
X68011441Y-101357231D01*
X68046927Y-101340448D01*
X68083886Y-101327224D01*
X68121964Y-101317686D01*
X68160793Y-101311926D01*
X68200000Y-101310000D01*
X69000000Y-101310000D01*
X69039207Y-101311926D01*
X69039207Y-101311926D01*
G37*
D15*
G04 #@! TD*
G04 #@! TO.P,U3,8*
G04 #@! TO.N,Net-(LS1-Pad1)*
X68600000Y-102110000D03*
D14*
G04 #@! TO.N,Net-(U3-Pad9)*
G04 #@! TO.C,U3*
G36*
X69039207Y-98771926D02*
X69078036Y-98777686D01*
X69116114Y-98787224D01*
X69153073Y-98800448D01*
X69188559Y-98817231D01*
X69222228Y-98837412D01*
X69253757Y-98860796D01*
X69282843Y-98887157D01*
X69309204Y-98916243D01*
X69332588Y-98947772D01*
X69352769Y-98981441D01*
X69369552Y-99016927D01*
X69382776Y-99053886D01*
X69392314Y-99091964D01*
X69398074Y-99130793D01*
X69400000Y-99170000D01*
X69400000Y-99970000D01*
X69398074Y-100009207D01*
X69392314Y-100048036D01*
X69382776Y-100086114D01*
X69369552Y-100123073D01*
X69352769Y-100158559D01*
X69332588Y-100192228D01*
X69309204Y-100223757D01*
X69282843Y-100252843D01*
X69253757Y-100279204D01*
X69222228Y-100302588D01*
X69188559Y-100322769D01*
X69153073Y-100339552D01*
X69116114Y-100352776D01*
X69078036Y-100362314D01*
X69039207Y-100368074D01*
X69000000Y-100370000D01*
X68200000Y-100370000D01*
X68160793Y-100368074D01*
X68121964Y-100362314D01*
X68083886Y-100352776D01*
X68046927Y-100339552D01*
X68011441Y-100322769D01*
X67977772Y-100302588D01*
X67946243Y-100279204D01*
X67917157Y-100252843D01*
X67890796Y-100223757D01*
X67867412Y-100192228D01*
X67847231Y-100158559D01*
X67830448Y-100123073D01*
X67817224Y-100086114D01*
X67807686Y-100048036D01*
X67801926Y-100009207D01*
X67800000Y-99970000D01*
X67800000Y-99170000D01*
X67801926Y-99130793D01*
X67807686Y-99091964D01*
X67817224Y-99053886D01*
X67830448Y-99016927D01*
X67847231Y-98981441D01*
X67867412Y-98947772D01*
X67890796Y-98916243D01*
X67917157Y-98887157D01*
X67946243Y-98860796D01*
X67977772Y-98837412D01*
X68011441Y-98817231D01*
X68046927Y-98800448D01*
X68083886Y-98787224D01*
X68121964Y-98777686D01*
X68160793Y-98771926D01*
X68200000Y-98770000D01*
X69000000Y-98770000D01*
X69039207Y-98771926D01*
X69039207Y-98771926D01*
G37*
D15*
G04 #@! TD*
G04 #@! TO.P,U3,9*
G04 #@! TO.N,Net-(U3-Pad9)*
X68600000Y-99570000D03*
D14*
G04 #@! TO.N,Net-(SW7-Pad1)*
G04 #@! TO.C,U3*
G36*
X69039207Y-96231926D02*
X69078036Y-96237686D01*
X69116114Y-96247224D01*
X69153073Y-96260448D01*
X69188559Y-96277231D01*
X69222228Y-96297412D01*
X69253757Y-96320796D01*
X69282843Y-96347157D01*
X69309204Y-96376243D01*
X69332588Y-96407772D01*
X69352769Y-96441441D01*
X69369552Y-96476927D01*
X69382776Y-96513886D01*
X69392314Y-96551964D01*
X69398074Y-96590793D01*
X69400000Y-96630000D01*
X69400000Y-97430000D01*
X69398074Y-97469207D01*
X69392314Y-97508036D01*
X69382776Y-97546114D01*
X69369552Y-97583073D01*
X69352769Y-97618559D01*
X69332588Y-97652228D01*
X69309204Y-97683757D01*
X69282843Y-97712843D01*
X69253757Y-97739204D01*
X69222228Y-97762588D01*
X69188559Y-97782769D01*
X69153073Y-97799552D01*
X69116114Y-97812776D01*
X69078036Y-97822314D01*
X69039207Y-97828074D01*
X69000000Y-97830000D01*
X68200000Y-97830000D01*
X68160793Y-97828074D01*
X68121964Y-97822314D01*
X68083886Y-97812776D01*
X68046927Y-97799552D01*
X68011441Y-97782769D01*
X67977772Y-97762588D01*
X67946243Y-97739204D01*
X67917157Y-97712843D01*
X67890796Y-97683757D01*
X67867412Y-97652228D01*
X67847231Y-97618559D01*
X67830448Y-97583073D01*
X67817224Y-97546114D01*
X67807686Y-97508036D01*
X67801926Y-97469207D01*
X67800000Y-97430000D01*
X67800000Y-96630000D01*
X67801926Y-96590793D01*
X67807686Y-96551964D01*
X67817224Y-96513886D01*
X67830448Y-96476927D01*
X67847231Y-96441441D01*
X67867412Y-96407772D01*
X67890796Y-96376243D01*
X67917157Y-96347157D01*
X67946243Y-96320796D01*
X67977772Y-96297412D01*
X68011441Y-96277231D01*
X68046927Y-96260448D01*
X68083886Y-96247224D01*
X68121964Y-96237686D01*
X68160793Y-96231926D01*
X68200000Y-96230000D01*
X69000000Y-96230000D01*
X69039207Y-96231926D01*
X69039207Y-96231926D01*
G37*
D15*
G04 #@! TD*
G04 #@! TO.P,U3,10*
G04 #@! TO.N,Net-(SW7-Pad1)*
X68600000Y-97030000D03*
D14*
G04 #@! TO.N,Net-(SW6-Pad1)*
G04 #@! TO.C,U3*
G36*
X69039207Y-93691926D02*
X69078036Y-93697686D01*
X69116114Y-93707224D01*
X69153073Y-93720448D01*
X69188559Y-93737231D01*
X69222228Y-93757412D01*
X69253757Y-93780796D01*
X69282843Y-93807157D01*
X69309204Y-93836243D01*
X69332588Y-93867772D01*
X69352769Y-93901441D01*
X69369552Y-93936927D01*
X69382776Y-93973886D01*
X69392314Y-94011964D01*
X69398074Y-94050793D01*
X69400000Y-94090000D01*
X69400000Y-94890000D01*
X69398074Y-94929207D01*
X69392314Y-94968036D01*
X69382776Y-95006114D01*
X69369552Y-95043073D01*
X69352769Y-95078559D01*
X69332588Y-95112228D01*
X69309204Y-95143757D01*
X69282843Y-95172843D01*
X69253757Y-95199204D01*
X69222228Y-95222588D01*
X69188559Y-95242769D01*
X69153073Y-95259552D01*
X69116114Y-95272776D01*
X69078036Y-95282314D01*
X69039207Y-95288074D01*
X69000000Y-95290000D01*
X68200000Y-95290000D01*
X68160793Y-95288074D01*
X68121964Y-95282314D01*
X68083886Y-95272776D01*
X68046927Y-95259552D01*
X68011441Y-95242769D01*
X67977772Y-95222588D01*
X67946243Y-95199204D01*
X67917157Y-95172843D01*
X67890796Y-95143757D01*
X67867412Y-95112228D01*
X67847231Y-95078559D01*
X67830448Y-95043073D01*
X67817224Y-95006114D01*
X67807686Y-94968036D01*
X67801926Y-94929207D01*
X67800000Y-94890000D01*
X67800000Y-94090000D01*
X67801926Y-94050793D01*
X67807686Y-94011964D01*
X67817224Y-93973886D01*
X67830448Y-93936927D01*
X67847231Y-93901441D01*
X67867412Y-93867772D01*
X67890796Y-93836243D01*
X67917157Y-93807157D01*
X67946243Y-93780796D01*
X67977772Y-93757412D01*
X68011441Y-93737231D01*
X68046927Y-93720448D01*
X68083886Y-93707224D01*
X68121964Y-93697686D01*
X68160793Y-93691926D01*
X68200000Y-93690000D01*
X69000000Y-93690000D01*
X69039207Y-93691926D01*
X69039207Y-93691926D01*
G37*
D15*
G04 #@! TD*
G04 #@! TO.P,U3,11*
G04 #@! TO.N,Net-(SW6-Pad1)*
X68600000Y-94490000D03*
D14*
G04 #@! TO.N,Net-(U3-Pad12)*
G04 #@! TO.C,U3*
G36*
X69039207Y-91151926D02*
X69078036Y-91157686D01*
X69116114Y-91167224D01*
X69153073Y-91180448D01*
X69188559Y-91197231D01*
X69222228Y-91217412D01*
X69253757Y-91240796D01*
X69282843Y-91267157D01*
X69309204Y-91296243D01*
X69332588Y-91327772D01*
X69352769Y-91361441D01*
X69369552Y-91396927D01*
X69382776Y-91433886D01*
X69392314Y-91471964D01*
X69398074Y-91510793D01*
X69400000Y-91550000D01*
X69400000Y-92350000D01*
X69398074Y-92389207D01*
X69392314Y-92428036D01*
X69382776Y-92466114D01*
X69369552Y-92503073D01*
X69352769Y-92538559D01*
X69332588Y-92572228D01*
X69309204Y-92603757D01*
X69282843Y-92632843D01*
X69253757Y-92659204D01*
X69222228Y-92682588D01*
X69188559Y-92702769D01*
X69153073Y-92719552D01*
X69116114Y-92732776D01*
X69078036Y-92742314D01*
X69039207Y-92748074D01*
X69000000Y-92750000D01*
X68200000Y-92750000D01*
X68160793Y-92748074D01*
X68121964Y-92742314D01*
X68083886Y-92732776D01*
X68046927Y-92719552D01*
X68011441Y-92702769D01*
X67977772Y-92682588D01*
X67946243Y-92659204D01*
X67917157Y-92632843D01*
X67890796Y-92603757D01*
X67867412Y-92572228D01*
X67847231Y-92538559D01*
X67830448Y-92503073D01*
X67817224Y-92466114D01*
X67807686Y-92428036D01*
X67801926Y-92389207D01*
X67800000Y-92350000D01*
X67800000Y-91550000D01*
X67801926Y-91510793D01*
X67807686Y-91471964D01*
X67817224Y-91433886D01*
X67830448Y-91396927D01*
X67847231Y-91361441D01*
X67867412Y-91327772D01*
X67890796Y-91296243D01*
X67917157Y-91267157D01*
X67946243Y-91240796D01*
X67977772Y-91217412D01*
X68011441Y-91197231D01*
X68046927Y-91180448D01*
X68083886Y-91167224D01*
X68121964Y-91157686D01*
X68160793Y-91151926D01*
X68200000Y-91150000D01*
X69000000Y-91150000D01*
X69039207Y-91151926D01*
X69039207Y-91151926D01*
G37*
D15*
G04 #@! TD*
G04 #@! TO.P,U3,12*
G04 #@! TO.N,Net-(U3-Pad12)*
X68600000Y-91950000D03*
D14*
G04 #@! TO.N,Net-(U3-Pad13)*
G04 #@! TO.C,U3*
G36*
X84279207Y-91151926D02*
X84318036Y-91157686D01*
X84356114Y-91167224D01*
X84393073Y-91180448D01*
X84428559Y-91197231D01*
X84462228Y-91217412D01*
X84493757Y-91240796D01*
X84522843Y-91267157D01*
X84549204Y-91296243D01*
X84572588Y-91327772D01*
X84592769Y-91361441D01*
X84609552Y-91396927D01*
X84622776Y-91433886D01*
X84632314Y-91471964D01*
X84638074Y-91510793D01*
X84640000Y-91550000D01*
X84640000Y-92350000D01*
X84638074Y-92389207D01*
X84632314Y-92428036D01*
X84622776Y-92466114D01*
X84609552Y-92503073D01*
X84592769Y-92538559D01*
X84572588Y-92572228D01*
X84549204Y-92603757D01*
X84522843Y-92632843D01*
X84493757Y-92659204D01*
X84462228Y-92682588D01*
X84428559Y-92702769D01*
X84393073Y-92719552D01*
X84356114Y-92732776D01*
X84318036Y-92742314D01*
X84279207Y-92748074D01*
X84240000Y-92750000D01*
X83440000Y-92750000D01*
X83400793Y-92748074D01*
X83361964Y-92742314D01*
X83323886Y-92732776D01*
X83286927Y-92719552D01*
X83251441Y-92702769D01*
X83217772Y-92682588D01*
X83186243Y-92659204D01*
X83157157Y-92632843D01*
X83130796Y-92603757D01*
X83107412Y-92572228D01*
X83087231Y-92538559D01*
X83070448Y-92503073D01*
X83057224Y-92466114D01*
X83047686Y-92428036D01*
X83041926Y-92389207D01*
X83040000Y-92350000D01*
X83040000Y-91550000D01*
X83041926Y-91510793D01*
X83047686Y-91471964D01*
X83057224Y-91433886D01*
X83070448Y-91396927D01*
X83087231Y-91361441D01*
X83107412Y-91327772D01*
X83130796Y-91296243D01*
X83157157Y-91267157D01*
X83186243Y-91240796D01*
X83217772Y-91217412D01*
X83251441Y-91197231D01*
X83286927Y-91180448D01*
X83323886Y-91167224D01*
X83361964Y-91157686D01*
X83400793Y-91151926D01*
X83440000Y-91150000D01*
X84240000Y-91150000D01*
X84279207Y-91151926D01*
X84279207Y-91151926D01*
G37*
D15*
G04 #@! TD*
G04 #@! TO.P,U3,13*
G04 #@! TO.N,Net-(U3-Pad13)*
X83840000Y-91950000D03*
D14*
G04 #@! TO.N,Net-(U2-Pad6)*
G04 #@! TO.C,U3*
G36*
X84279207Y-93691926D02*
X84318036Y-93697686D01*
X84356114Y-93707224D01*
X84393073Y-93720448D01*
X84428559Y-93737231D01*
X84462228Y-93757412D01*
X84493757Y-93780796D01*
X84522843Y-93807157D01*
X84549204Y-93836243D01*
X84572588Y-93867772D01*
X84592769Y-93901441D01*
X84609552Y-93936927D01*
X84622776Y-93973886D01*
X84632314Y-94011964D01*
X84638074Y-94050793D01*
X84640000Y-94090000D01*
X84640000Y-94890000D01*
X84638074Y-94929207D01*
X84632314Y-94968036D01*
X84622776Y-95006114D01*
X84609552Y-95043073D01*
X84592769Y-95078559D01*
X84572588Y-95112228D01*
X84549204Y-95143757D01*
X84522843Y-95172843D01*
X84493757Y-95199204D01*
X84462228Y-95222588D01*
X84428559Y-95242769D01*
X84393073Y-95259552D01*
X84356114Y-95272776D01*
X84318036Y-95282314D01*
X84279207Y-95288074D01*
X84240000Y-95290000D01*
X83440000Y-95290000D01*
X83400793Y-95288074D01*
X83361964Y-95282314D01*
X83323886Y-95272776D01*
X83286927Y-95259552D01*
X83251441Y-95242769D01*
X83217772Y-95222588D01*
X83186243Y-95199204D01*
X83157157Y-95172843D01*
X83130796Y-95143757D01*
X83107412Y-95112228D01*
X83087231Y-95078559D01*
X83070448Y-95043073D01*
X83057224Y-95006114D01*
X83047686Y-94968036D01*
X83041926Y-94929207D01*
X83040000Y-94890000D01*
X83040000Y-94090000D01*
X83041926Y-94050793D01*
X83047686Y-94011964D01*
X83057224Y-93973886D01*
X83070448Y-93936927D01*
X83087231Y-93901441D01*
X83107412Y-93867772D01*
X83130796Y-93836243D01*
X83157157Y-93807157D01*
X83186243Y-93780796D01*
X83217772Y-93757412D01*
X83251441Y-93737231D01*
X83286927Y-93720448D01*
X83323886Y-93707224D01*
X83361964Y-93697686D01*
X83400793Y-93691926D01*
X83440000Y-93690000D01*
X84240000Y-93690000D01*
X84279207Y-93691926D01*
X84279207Y-93691926D01*
G37*
D15*
G04 #@! TD*
G04 #@! TO.P,U3,14*
G04 #@! TO.N,Net-(U2-Pad6)*
X83840000Y-94490000D03*
D14*
G04 #@! TO.N,Net-(U2-Pad3)*
G04 #@! TO.C,U3*
G36*
X84279207Y-96231926D02*
X84318036Y-96237686D01*
X84356114Y-96247224D01*
X84393073Y-96260448D01*
X84428559Y-96277231D01*
X84462228Y-96297412D01*
X84493757Y-96320796D01*
X84522843Y-96347157D01*
X84549204Y-96376243D01*
X84572588Y-96407772D01*
X84592769Y-96441441D01*
X84609552Y-96476927D01*
X84622776Y-96513886D01*
X84632314Y-96551964D01*
X84638074Y-96590793D01*
X84640000Y-96630000D01*
X84640000Y-97430000D01*
X84638074Y-97469207D01*
X84632314Y-97508036D01*
X84622776Y-97546114D01*
X84609552Y-97583073D01*
X84592769Y-97618559D01*
X84572588Y-97652228D01*
X84549204Y-97683757D01*
X84522843Y-97712843D01*
X84493757Y-97739204D01*
X84462228Y-97762588D01*
X84428559Y-97782769D01*
X84393073Y-97799552D01*
X84356114Y-97812776D01*
X84318036Y-97822314D01*
X84279207Y-97828074D01*
X84240000Y-97830000D01*
X83440000Y-97830000D01*
X83400793Y-97828074D01*
X83361964Y-97822314D01*
X83323886Y-97812776D01*
X83286927Y-97799552D01*
X83251441Y-97782769D01*
X83217772Y-97762588D01*
X83186243Y-97739204D01*
X83157157Y-97712843D01*
X83130796Y-97683757D01*
X83107412Y-97652228D01*
X83087231Y-97618559D01*
X83070448Y-97583073D01*
X83057224Y-97546114D01*
X83047686Y-97508036D01*
X83041926Y-97469207D01*
X83040000Y-97430000D01*
X83040000Y-96630000D01*
X83041926Y-96590793D01*
X83047686Y-96551964D01*
X83057224Y-96513886D01*
X83070448Y-96476927D01*
X83087231Y-96441441D01*
X83107412Y-96407772D01*
X83130796Y-96376243D01*
X83157157Y-96347157D01*
X83186243Y-96320796D01*
X83217772Y-96297412D01*
X83251441Y-96277231D01*
X83286927Y-96260448D01*
X83323886Y-96247224D01*
X83361964Y-96237686D01*
X83400793Y-96231926D01*
X83440000Y-96230000D01*
X84240000Y-96230000D01*
X84279207Y-96231926D01*
X84279207Y-96231926D01*
G37*
D17*
G04 #@! TD*
G04 #@! TO.P,U3,15*
G04 #@! TO.N,Net-(U2-Pad3)*
X83840000Y-97030000D03*
D14*
G04 #@! TO.N,Net-(U2-Pad5)*
G04 #@! TO.C,U3*
G36*
X84279207Y-98771926D02*
X84318036Y-98777686D01*
X84356114Y-98787224D01*
X84393073Y-98800448D01*
X84428559Y-98817231D01*
X84462228Y-98837412D01*
X84493757Y-98860796D01*
X84522843Y-98887157D01*
X84549204Y-98916243D01*
X84572588Y-98947772D01*
X84592769Y-98981441D01*
X84609552Y-99016927D01*
X84622776Y-99053886D01*
X84632314Y-99091964D01*
X84638074Y-99130793D01*
X84640000Y-99170000D01*
X84640000Y-99970000D01*
X84638074Y-100009207D01*
X84632314Y-100048036D01*
X84622776Y-100086114D01*
X84609552Y-100123073D01*
X84592769Y-100158559D01*
X84572588Y-100192228D01*
X84549204Y-100223757D01*
X84522843Y-100252843D01*
X84493757Y-100279204D01*
X84462228Y-100302588D01*
X84428559Y-100322769D01*
X84393073Y-100339552D01*
X84356114Y-100352776D01*
X84318036Y-100362314D01*
X84279207Y-100368074D01*
X84240000Y-100370000D01*
X83440000Y-100370000D01*
X83400793Y-100368074D01*
X83361964Y-100362314D01*
X83323886Y-100352776D01*
X83286927Y-100339552D01*
X83251441Y-100322769D01*
X83217772Y-100302588D01*
X83186243Y-100279204D01*
X83157157Y-100252843D01*
X83130796Y-100223757D01*
X83107412Y-100192228D01*
X83087231Y-100158559D01*
X83070448Y-100123073D01*
X83057224Y-100086114D01*
X83047686Y-100048036D01*
X83041926Y-100009207D01*
X83040000Y-99970000D01*
X83040000Y-99170000D01*
X83041926Y-99130793D01*
X83047686Y-99091964D01*
X83057224Y-99053886D01*
X83070448Y-99016927D01*
X83087231Y-98981441D01*
X83107412Y-98947772D01*
X83130796Y-98916243D01*
X83157157Y-98887157D01*
X83186243Y-98860796D01*
X83217772Y-98837412D01*
X83251441Y-98817231D01*
X83286927Y-98800448D01*
X83323886Y-98787224D01*
X83361964Y-98777686D01*
X83400793Y-98771926D01*
X83440000Y-98770000D01*
X84240000Y-98770000D01*
X84279207Y-98771926D01*
X84279207Y-98771926D01*
G37*
D15*
G04 #@! TD*
G04 #@! TO.P,U3,16*
G04 #@! TO.N,Net-(U2-Pad5)*
X83840000Y-99570000D03*
D14*
G04 #@! TO.N,Net-(SW3-Pad1)*
G04 #@! TO.C,U3*
G36*
X84279207Y-101311926D02*
X84318036Y-101317686D01*
X84356114Y-101327224D01*
X84393073Y-101340448D01*
X84428559Y-101357231D01*
X84462228Y-101377412D01*
X84493757Y-101400796D01*
X84522843Y-101427157D01*
X84549204Y-101456243D01*
X84572588Y-101487772D01*
X84592769Y-101521441D01*
X84609552Y-101556927D01*
X84622776Y-101593886D01*
X84632314Y-101631964D01*
X84638074Y-101670793D01*
X84640000Y-101710000D01*
X84640000Y-102510000D01*
X84638074Y-102549207D01*
X84632314Y-102588036D01*
X84622776Y-102626114D01*
X84609552Y-102663073D01*
X84592769Y-102698559D01*
X84572588Y-102732228D01*
X84549204Y-102763757D01*
X84522843Y-102792843D01*
X84493757Y-102819204D01*
X84462228Y-102842588D01*
X84428559Y-102862769D01*
X84393073Y-102879552D01*
X84356114Y-102892776D01*
X84318036Y-102902314D01*
X84279207Y-102908074D01*
X84240000Y-102910000D01*
X83440000Y-102910000D01*
X83400793Y-102908074D01*
X83361964Y-102902314D01*
X83323886Y-102892776D01*
X83286927Y-102879552D01*
X83251441Y-102862769D01*
X83217772Y-102842588D01*
X83186243Y-102819204D01*
X83157157Y-102792843D01*
X83130796Y-102763757D01*
X83107412Y-102732228D01*
X83087231Y-102698559D01*
X83070448Y-102663073D01*
X83057224Y-102626114D01*
X83047686Y-102588036D01*
X83041926Y-102549207D01*
X83040000Y-102510000D01*
X83040000Y-101710000D01*
X83041926Y-101670793D01*
X83047686Y-101631964D01*
X83057224Y-101593886D01*
X83070448Y-101556927D01*
X83087231Y-101521441D01*
X83107412Y-101487772D01*
X83130796Y-101456243D01*
X83157157Y-101427157D01*
X83186243Y-101400796D01*
X83217772Y-101377412D01*
X83251441Y-101357231D01*
X83286927Y-101340448D01*
X83323886Y-101327224D01*
X83361964Y-101317686D01*
X83400793Y-101311926D01*
X83440000Y-101310000D01*
X84240000Y-101310000D01*
X84279207Y-101311926D01*
X84279207Y-101311926D01*
G37*
D15*
G04 #@! TD*
G04 #@! TO.P,U3,17*
G04 #@! TO.N,Net-(SW3-Pad1)*
X83840000Y-102110000D03*
D14*
G04 #@! TO.N,Net-(SW5-Pad1)*
G04 #@! TO.C,U3*
G36*
X84279207Y-103851926D02*
X84318036Y-103857686D01*
X84356114Y-103867224D01*
X84393073Y-103880448D01*
X84428559Y-103897231D01*
X84462228Y-103917412D01*
X84493757Y-103940796D01*
X84522843Y-103967157D01*
X84549204Y-103996243D01*
X84572588Y-104027772D01*
X84592769Y-104061441D01*
X84609552Y-104096927D01*
X84622776Y-104133886D01*
X84632314Y-104171964D01*
X84638074Y-104210793D01*
X84640000Y-104250000D01*
X84640000Y-105050000D01*
X84638074Y-105089207D01*
X84632314Y-105128036D01*
X84622776Y-105166114D01*
X84609552Y-105203073D01*
X84592769Y-105238559D01*
X84572588Y-105272228D01*
X84549204Y-105303757D01*
X84522843Y-105332843D01*
X84493757Y-105359204D01*
X84462228Y-105382588D01*
X84428559Y-105402769D01*
X84393073Y-105419552D01*
X84356114Y-105432776D01*
X84318036Y-105442314D01*
X84279207Y-105448074D01*
X84240000Y-105450000D01*
X83440000Y-105450000D01*
X83400793Y-105448074D01*
X83361964Y-105442314D01*
X83323886Y-105432776D01*
X83286927Y-105419552D01*
X83251441Y-105402769D01*
X83217772Y-105382588D01*
X83186243Y-105359204D01*
X83157157Y-105332843D01*
X83130796Y-105303757D01*
X83107412Y-105272228D01*
X83087231Y-105238559D01*
X83070448Y-105203073D01*
X83057224Y-105166114D01*
X83047686Y-105128036D01*
X83041926Y-105089207D01*
X83040000Y-105050000D01*
X83040000Y-104250000D01*
X83041926Y-104210793D01*
X83047686Y-104171964D01*
X83057224Y-104133886D01*
X83070448Y-104096927D01*
X83087231Y-104061441D01*
X83107412Y-104027772D01*
X83130796Y-103996243D01*
X83157157Y-103967157D01*
X83186243Y-103940796D01*
X83217772Y-103917412D01*
X83251441Y-103897231D01*
X83286927Y-103880448D01*
X83323886Y-103867224D01*
X83361964Y-103857686D01*
X83400793Y-103851926D01*
X83440000Y-103850000D01*
X84240000Y-103850000D01*
X84279207Y-103851926D01*
X84279207Y-103851926D01*
G37*
D15*
G04 #@! TD*
G04 #@! TO.P,U3,18*
G04 #@! TO.N,Net-(SW5-Pad1)*
X83840000Y-104650000D03*
D14*
G04 #@! TO.N,Net-(SW2-Pad1)*
G04 #@! TO.C,U3*
G36*
X84279207Y-106391926D02*
X84318036Y-106397686D01*
X84356114Y-106407224D01*
X84393073Y-106420448D01*
X84428559Y-106437231D01*
X84462228Y-106457412D01*
X84493757Y-106480796D01*
X84522843Y-106507157D01*
X84549204Y-106536243D01*
X84572588Y-106567772D01*
X84592769Y-106601441D01*
X84609552Y-106636927D01*
X84622776Y-106673886D01*
X84632314Y-106711964D01*
X84638074Y-106750793D01*
X84640000Y-106790000D01*
X84640000Y-107590000D01*
X84638074Y-107629207D01*
X84632314Y-107668036D01*
X84622776Y-107706114D01*
X84609552Y-107743073D01*
X84592769Y-107778559D01*
X84572588Y-107812228D01*
X84549204Y-107843757D01*
X84522843Y-107872843D01*
X84493757Y-107899204D01*
X84462228Y-107922588D01*
X84428559Y-107942769D01*
X84393073Y-107959552D01*
X84356114Y-107972776D01*
X84318036Y-107982314D01*
X84279207Y-107988074D01*
X84240000Y-107990000D01*
X83440000Y-107990000D01*
X83400793Y-107988074D01*
X83361964Y-107982314D01*
X83323886Y-107972776D01*
X83286927Y-107959552D01*
X83251441Y-107942769D01*
X83217772Y-107922588D01*
X83186243Y-107899204D01*
X83157157Y-107872843D01*
X83130796Y-107843757D01*
X83107412Y-107812228D01*
X83087231Y-107778559D01*
X83070448Y-107743073D01*
X83057224Y-107706114D01*
X83047686Y-107668036D01*
X83041926Y-107629207D01*
X83040000Y-107590000D01*
X83040000Y-106790000D01*
X83041926Y-106750793D01*
X83047686Y-106711964D01*
X83057224Y-106673886D01*
X83070448Y-106636927D01*
X83087231Y-106601441D01*
X83107412Y-106567772D01*
X83130796Y-106536243D01*
X83157157Y-106507157D01*
X83186243Y-106480796D01*
X83217772Y-106457412D01*
X83251441Y-106437231D01*
X83286927Y-106420448D01*
X83323886Y-106407224D01*
X83361964Y-106397686D01*
X83400793Y-106391926D01*
X83440000Y-106390000D01*
X84240000Y-106390000D01*
X84279207Y-106391926D01*
X84279207Y-106391926D01*
G37*
D15*
G04 #@! TD*
G04 #@! TO.P,U3,19*
G04 #@! TO.N,Net-(SW2-Pad1)*
X83840000Y-107190000D03*
D14*
G04 #@! TO.N,Net-(SW4-Pad1)*
G04 #@! TO.C,U3*
G36*
X84279207Y-108931926D02*
X84318036Y-108937686D01*
X84356114Y-108947224D01*
X84393073Y-108960448D01*
X84428559Y-108977231D01*
X84462228Y-108997412D01*
X84493757Y-109020796D01*
X84522843Y-109047157D01*
X84549204Y-109076243D01*
X84572588Y-109107772D01*
X84592769Y-109141441D01*
X84609552Y-109176927D01*
X84622776Y-109213886D01*
X84632314Y-109251964D01*
X84638074Y-109290793D01*
X84640000Y-109330000D01*
X84640000Y-110130000D01*
X84638074Y-110169207D01*
X84632314Y-110208036D01*
X84622776Y-110246114D01*
X84609552Y-110283073D01*
X84592769Y-110318559D01*
X84572588Y-110352228D01*
X84549204Y-110383757D01*
X84522843Y-110412843D01*
X84493757Y-110439204D01*
X84462228Y-110462588D01*
X84428559Y-110482769D01*
X84393073Y-110499552D01*
X84356114Y-110512776D01*
X84318036Y-110522314D01*
X84279207Y-110528074D01*
X84240000Y-110530000D01*
X83440000Y-110530000D01*
X83400793Y-110528074D01*
X83361964Y-110522314D01*
X83323886Y-110512776D01*
X83286927Y-110499552D01*
X83251441Y-110482769D01*
X83217772Y-110462588D01*
X83186243Y-110439204D01*
X83157157Y-110412843D01*
X83130796Y-110383757D01*
X83107412Y-110352228D01*
X83087231Y-110318559D01*
X83070448Y-110283073D01*
X83057224Y-110246114D01*
X83047686Y-110208036D01*
X83041926Y-110169207D01*
X83040000Y-110130000D01*
X83040000Y-109330000D01*
X83041926Y-109290793D01*
X83047686Y-109251964D01*
X83057224Y-109213886D01*
X83070448Y-109176927D01*
X83087231Y-109141441D01*
X83107412Y-109107772D01*
X83130796Y-109076243D01*
X83157157Y-109047157D01*
X83186243Y-109020796D01*
X83217772Y-108997412D01*
X83251441Y-108977231D01*
X83286927Y-108960448D01*
X83323886Y-108947224D01*
X83361964Y-108937686D01*
X83400793Y-108931926D01*
X83440000Y-108930000D01*
X84240000Y-108930000D01*
X84279207Y-108931926D01*
X84279207Y-108931926D01*
G37*
D15*
G04 #@! TD*
G04 #@! TO.P,U3,20*
G04 #@! TO.N,Net-(SW4-Pad1)*
X83840000Y-109730000D03*
D14*
G04 #@! TO.N,Net-(R2-Pad1)*
G04 #@! TO.C,U3*
G36*
X84279207Y-111471926D02*
X84318036Y-111477686D01*
X84356114Y-111487224D01*
X84393073Y-111500448D01*
X84428559Y-111517231D01*
X84462228Y-111537412D01*
X84493757Y-111560796D01*
X84522843Y-111587157D01*
X84549204Y-111616243D01*
X84572588Y-111647772D01*
X84592769Y-111681441D01*
X84609552Y-111716927D01*
X84622776Y-111753886D01*
X84632314Y-111791964D01*
X84638074Y-111830793D01*
X84640000Y-111870000D01*
X84640000Y-112670000D01*
X84638074Y-112709207D01*
X84632314Y-112748036D01*
X84622776Y-112786114D01*
X84609552Y-112823073D01*
X84592769Y-112858559D01*
X84572588Y-112892228D01*
X84549204Y-112923757D01*
X84522843Y-112952843D01*
X84493757Y-112979204D01*
X84462228Y-113002588D01*
X84428559Y-113022769D01*
X84393073Y-113039552D01*
X84356114Y-113052776D01*
X84318036Y-113062314D01*
X84279207Y-113068074D01*
X84240000Y-113070000D01*
X83440000Y-113070000D01*
X83400793Y-113068074D01*
X83361964Y-113062314D01*
X83323886Y-113052776D01*
X83286927Y-113039552D01*
X83251441Y-113022769D01*
X83217772Y-113002588D01*
X83186243Y-112979204D01*
X83157157Y-112952843D01*
X83130796Y-112923757D01*
X83107412Y-112892228D01*
X83087231Y-112858559D01*
X83070448Y-112823073D01*
X83057224Y-112786114D01*
X83047686Y-112748036D01*
X83041926Y-112709207D01*
X83040000Y-112670000D01*
X83040000Y-111870000D01*
X83041926Y-111830793D01*
X83047686Y-111791964D01*
X83057224Y-111753886D01*
X83070448Y-111716927D01*
X83087231Y-111681441D01*
X83107412Y-111647772D01*
X83130796Y-111616243D01*
X83157157Y-111587157D01*
X83186243Y-111560796D01*
X83217772Y-111537412D01*
X83251441Y-111517231D01*
X83286927Y-111500448D01*
X83323886Y-111487224D01*
X83361964Y-111477686D01*
X83400793Y-111471926D01*
X83440000Y-111470000D01*
X84240000Y-111470000D01*
X84279207Y-111471926D01*
X84279207Y-111471926D01*
G37*
D15*
G04 #@! TD*
G04 #@! TO.P,U3,21*
G04 #@! TO.N,Net-(R2-Pad1)*
X83840000Y-112270000D03*
D14*
G04 #@! TO.N,Net-(SW1-Pad1)*
G04 #@! TO.C,U3*
G36*
X84279207Y-114011926D02*
X84318036Y-114017686D01*
X84356114Y-114027224D01*
X84393073Y-114040448D01*
X84428559Y-114057231D01*
X84462228Y-114077412D01*
X84493757Y-114100796D01*
X84522843Y-114127157D01*
X84549204Y-114156243D01*
X84572588Y-114187772D01*
X84592769Y-114221441D01*
X84609552Y-114256927D01*
X84622776Y-114293886D01*
X84632314Y-114331964D01*
X84638074Y-114370793D01*
X84640000Y-114410000D01*
X84640000Y-115210000D01*
X84638074Y-115249207D01*
X84632314Y-115288036D01*
X84622776Y-115326114D01*
X84609552Y-115363073D01*
X84592769Y-115398559D01*
X84572588Y-115432228D01*
X84549204Y-115463757D01*
X84522843Y-115492843D01*
X84493757Y-115519204D01*
X84462228Y-115542588D01*
X84428559Y-115562769D01*
X84393073Y-115579552D01*
X84356114Y-115592776D01*
X84318036Y-115602314D01*
X84279207Y-115608074D01*
X84240000Y-115610000D01*
X83440000Y-115610000D01*
X83400793Y-115608074D01*
X83361964Y-115602314D01*
X83323886Y-115592776D01*
X83286927Y-115579552D01*
X83251441Y-115562769D01*
X83217772Y-115542588D01*
X83186243Y-115519204D01*
X83157157Y-115492843D01*
X83130796Y-115463757D01*
X83107412Y-115432228D01*
X83087231Y-115398559D01*
X83070448Y-115363073D01*
X83057224Y-115326114D01*
X83047686Y-115288036D01*
X83041926Y-115249207D01*
X83040000Y-115210000D01*
X83040000Y-114410000D01*
X83041926Y-114370793D01*
X83047686Y-114331964D01*
X83057224Y-114293886D01*
X83070448Y-114256927D01*
X83087231Y-114221441D01*
X83107412Y-114187772D01*
X83130796Y-114156243D01*
X83157157Y-114127157D01*
X83186243Y-114100796D01*
X83217772Y-114077412D01*
X83251441Y-114057231D01*
X83286927Y-114040448D01*
X83323886Y-114027224D01*
X83361964Y-114017686D01*
X83400793Y-114011926D01*
X83440000Y-114010000D01*
X84240000Y-114010000D01*
X84279207Y-114011926D01*
X84279207Y-114011926D01*
G37*
D15*
G04 #@! TD*
G04 #@! TO.P,U3,22*
G04 #@! TO.N,Net-(SW1-Pad1)*
X83840000Y-114810000D03*
D14*
G04 #@! TO.N,Net-(SW1-Pad2)*
G04 #@! TO.C,U3*
G36*
X84279207Y-116551926D02*
X84318036Y-116557686D01*
X84356114Y-116567224D01*
X84393073Y-116580448D01*
X84428559Y-116597231D01*
X84462228Y-116617412D01*
X84493757Y-116640796D01*
X84522843Y-116667157D01*
X84549204Y-116696243D01*
X84572588Y-116727772D01*
X84592769Y-116761441D01*
X84609552Y-116796927D01*
X84622776Y-116833886D01*
X84632314Y-116871964D01*
X84638074Y-116910793D01*
X84640000Y-116950000D01*
X84640000Y-117750000D01*
X84638074Y-117789207D01*
X84632314Y-117828036D01*
X84622776Y-117866114D01*
X84609552Y-117903073D01*
X84592769Y-117938559D01*
X84572588Y-117972228D01*
X84549204Y-118003757D01*
X84522843Y-118032843D01*
X84493757Y-118059204D01*
X84462228Y-118082588D01*
X84428559Y-118102769D01*
X84393073Y-118119552D01*
X84356114Y-118132776D01*
X84318036Y-118142314D01*
X84279207Y-118148074D01*
X84240000Y-118150000D01*
X83440000Y-118150000D01*
X83400793Y-118148074D01*
X83361964Y-118142314D01*
X83323886Y-118132776D01*
X83286927Y-118119552D01*
X83251441Y-118102769D01*
X83217772Y-118082588D01*
X83186243Y-118059204D01*
X83157157Y-118032843D01*
X83130796Y-118003757D01*
X83107412Y-117972228D01*
X83087231Y-117938559D01*
X83070448Y-117903073D01*
X83057224Y-117866114D01*
X83047686Y-117828036D01*
X83041926Y-117789207D01*
X83040000Y-117750000D01*
X83040000Y-116950000D01*
X83041926Y-116910793D01*
X83047686Y-116871964D01*
X83057224Y-116833886D01*
X83070448Y-116796927D01*
X83087231Y-116761441D01*
X83107412Y-116727772D01*
X83130796Y-116696243D01*
X83157157Y-116667157D01*
X83186243Y-116640796D01*
X83217772Y-116617412D01*
X83251441Y-116597231D01*
X83286927Y-116580448D01*
X83323886Y-116567224D01*
X83361964Y-116557686D01*
X83400793Y-116551926D01*
X83440000Y-116550000D01*
X84240000Y-116550000D01*
X84279207Y-116551926D01*
X84279207Y-116551926D01*
G37*
D15*
G04 #@! TD*
G04 #@! TO.P,U3,23*
G04 #@! TO.N,Net-(SW1-Pad2)*
X83840000Y-117350000D03*
D14*
G04 #@! TO.N,Net-(U3-Pad24)*
G04 #@! TO.C,U3*
G36*
X84279207Y-119091926D02*
X84318036Y-119097686D01*
X84356114Y-119107224D01*
X84393073Y-119120448D01*
X84428559Y-119137231D01*
X84462228Y-119157412D01*
X84493757Y-119180796D01*
X84522843Y-119207157D01*
X84549204Y-119236243D01*
X84572588Y-119267772D01*
X84592769Y-119301441D01*
X84609552Y-119336927D01*
X84622776Y-119373886D01*
X84632314Y-119411964D01*
X84638074Y-119450793D01*
X84640000Y-119490000D01*
X84640000Y-120290000D01*
X84638074Y-120329207D01*
X84632314Y-120368036D01*
X84622776Y-120406114D01*
X84609552Y-120443073D01*
X84592769Y-120478559D01*
X84572588Y-120512228D01*
X84549204Y-120543757D01*
X84522843Y-120572843D01*
X84493757Y-120599204D01*
X84462228Y-120622588D01*
X84428559Y-120642769D01*
X84393073Y-120659552D01*
X84356114Y-120672776D01*
X84318036Y-120682314D01*
X84279207Y-120688074D01*
X84240000Y-120690000D01*
X83440000Y-120690000D01*
X83400793Y-120688074D01*
X83361964Y-120682314D01*
X83323886Y-120672776D01*
X83286927Y-120659552D01*
X83251441Y-120642769D01*
X83217772Y-120622588D01*
X83186243Y-120599204D01*
X83157157Y-120572843D01*
X83130796Y-120543757D01*
X83107412Y-120512228D01*
X83087231Y-120478559D01*
X83070448Y-120443073D01*
X83057224Y-120406114D01*
X83047686Y-120368036D01*
X83041926Y-120329207D01*
X83040000Y-120290000D01*
X83040000Y-119490000D01*
X83041926Y-119450793D01*
X83047686Y-119411964D01*
X83057224Y-119373886D01*
X83070448Y-119336927D01*
X83087231Y-119301441D01*
X83107412Y-119267772D01*
X83130796Y-119236243D01*
X83157157Y-119207157D01*
X83186243Y-119180796D01*
X83217772Y-119157412D01*
X83251441Y-119137231D01*
X83286927Y-119120448D01*
X83323886Y-119107224D01*
X83361964Y-119097686D01*
X83400793Y-119091926D01*
X83440000Y-119090000D01*
X84240000Y-119090000D01*
X84279207Y-119091926D01*
X84279207Y-119091926D01*
G37*
D15*
G04 #@! TD*
G04 #@! TO.P,U3,24*
G04 #@! TO.N,Net-(U3-Pad24)*
X83840000Y-119890000D03*
D14*
G04 #@! TO.N,Net-(U13-Pad2)*
G04 #@! TO.C,U7*
G36*
X103014507Y-118351926D02*
X103053336Y-118357686D01*
X103091414Y-118367224D01*
X103128373Y-118380448D01*
X103163859Y-118397231D01*
X103197528Y-118417412D01*
X103229057Y-118440796D01*
X103258143Y-118467157D01*
X103284504Y-118496243D01*
X103307888Y-118527772D01*
X103328069Y-118561441D01*
X103344852Y-118596927D01*
X103358076Y-118633886D01*
X103367614Y-118671964D01*
X103373374Y-118710793D01*
X103375300Y-118750000D01*
X103375300Y-119550000D01*
X103373374Y-119589207D01*
X103367614Y-119628036D01*
X103358076Y-119666114D01*
X103344852Y-119703073D01*
X103328069Y-119738559D01*
X103307888Y-119772228D01*
X103284504Y-119803757D01*
X103258143Y-119832843D01*
X103229057Y-119859204D01*
X103197528Y-119882588D01*
X103163859Y-119902769D01*
X103128373Y-119919552D01*
X103091414Y-119932776D01*
X103053336Y-119942314D01*
X103014507Y-119948074D01*
X102975300Y-119950000D01*
X102175300Y-119950000D01*
X102136093Y-119948074D01*
X102097264Y-119942314D01*
X102059186Y-119932776D01*
X102022227Y-119919552D01*
X101986741Y-119902769D01*
X101953072Y-119882588D01*
X101921543Y-119859204D01*
X101892457Y-119832843D01*
X101866096Y-119803757D01*
X101842712Y-119772228D01*
X101822531Y-119738559D01*
X101805748Y-119703073D01*
X101792524Y-119666114D01*
X101782986Y-119628036D01*
X101777226Y-119589207D01*
X101775300Y-119550000D01*
X101775300Y-118750000D01*
X101777226Y-118710793D01*
X101782986Y-118671964D01*
X101792524Y-118633886D01*
X101805748Y-118596927D01*
X101822531Y-118561441D01*
X101842712Y-118527772D01*
X101866096Y-118496243D01*
X101892457Y-118467157D01*
X101921543Y-118440796D01*
X101953072Y-118417412D01*
X101986741Y-118397231D01*
X102022227Y-118380448D01*
X102059186Y-118367224D01*
X102097264Y-118357686D01*
X102136093Y-118351926D01*
X102175300Y-118350000D01*
X102975300Y-118350000D01*
X103014507Y-118351926D01*
X103014507Y-118351926D01*
G37*
D15*
G04 #@! TD*
G04 #@! TO.P,U7,1*
G04 #@! TO.N,Net-(U13-Pad2)*
X102575300Y-119150000D03*
D14*
G04 #@! TO.N,Net-(R3-Pad2)*
G04 #@! TO.C,U7*
G36*
X89298507Y-118364626D02*
X89337336Y-118370386D01*
X89375414Y-118379924D01*
X89412373Y-118393148D01*
X89447859Y-118409931D01*
X89481528Y-118430112D01*
X89513057Y-118453496D01*
X89542143Y-118479857D01*
X89568504Y-118508943D01*
X89591888Y-118540472D01*
X89612069Y-118574141D01*
X89628852Y-118609627D01*
X89642076Y-118646586D01*
X89651614Y-118684664D01*
X89657374Y-118723493D01*
X89659300Y-118762700D01*
X89659300Y-119562700D01*
X89657374Y-119601907D01*
X89651614Y-119640736D01*
X89642076Y-119678814D01*
X89628852Y-119715773D01*
X89612069Y-119751259D01*
X89591888Y-119784928D01*
X89568504Y-119816457D01*
X89542143Y-119845543D01*
X89513057Y-119871904D01*
X89481528Y-119895288D01*
X89447859Y-119915469D01*
X89412373Y-119932252D01*
X89375414Y-119945476D01*
X89337336Y-119955014D01*
X89298507Y-119960774D01*
X89259300Y-119962700D01*
X88459300Y-119962700D01*
X88420093Y-119960774D01*
X88381264Y-119955014D01*
X88343186Y-119945476D01*
X88306227Y-119932252D01*
X88270741Y-119915469D01*
X88237072Y-119895288D01*
X88205543Y-119871904D01*
X88176457Y-119845543D01*
X88150096Y-119816457D01*
X88126712Y-119784928D01*
X88106531Y-119751259D01*
X88089748Y-119715773D01*
X88076524Y-119678814D01*
X88066986Y-119640736D01*
X88061226Y-119601907D01*
X88059300Y-119562700D01*
X88059300Y-118762700D01*
X88061226Y-118723493D01*
X88066986Y-118684664D01*
X88076524Y-118646586D01*
X88089748Y-118609627D01*
X88106531Y-118574141D01*
X88126712Y-118540472D01*
X88150096Y-118508943D01*
X88176457Y-118479857D01*
X88205543Y-118453496D01*
X88237072Y-118430112D01*
X88270741Y-118409931D01*
X88306227Y-118393148D01*
X88343186Y-118379924D01*
X88381264Y-118370386D01*
X88420093Y-118364626D01*
X88459300Y-118362700D01*
X89259300Y-118362700D01*
X89298507Y-118364626D01*
X89298507Y-118364626D01*
G37*
D15*
G04 #@! TD*
G04 #@! TO.P,U7,2*
G04 #@! TO.N,Net-(R3-Pad2)*
X88859300Y-119162700D03*
D14*
G04 #@! TO.N,Net-(SW9-Pad3)*
G04 #@! TO.C,U7*
G36*
X103090707Y-95568126D02*
X103129536Y-95573886D01*
X103167614Y-95583424D01*
X103204573Y-95596648D01*
X103240059Y-95613431D01*
X103273728Y-95633612D01*
X103305257Y-95656996D01*
X103334343Y-95683357D01*
X103360704Y-95712443D01*
X103384088Y-95743972D01*
X103404269Y-95777641D01*
X103421052Y-95813127D01*
X103434276Y-95850086D01*
X103443814Y-95888164D01*
X103449574Y-95926993D01*
X103451500Y-95966200D01*
X103451500Y-96766200D01*
X103449574Y-96805407D01*
X103443814Y-96844236D01*
X103434276Y-96882314D01*
X103421052Y-96919273D01*
X103404269Y-96954759D01*
X103384088Y-96988428D01*
X103360704Y-97019957D01*
X103334343Y-97049043D01*
X103305257Y-97075404D01*
X103273728Y-97098788D01*
X103240059Y-97118969D01*
X103204573Y-97135752D01*
X103167614Y-97148976D01*
X103129536Y-97158514D01*
X103090707Y-97164274D01*
X103051500Y-97166200D01*
X102251500Y-97166200D01*
X102212293Y-97164274D01*
X102173464Y-97158514D01*
X102135386Y-97148976D01*
X102098427Y-97135752D01*
X102062941Y-97118969D01*
X102029272Y-97098788D01*
X101997743Y-97075404D01*
X101968657Y-97049043D01*
X101942296Y-97019957D01*
X101918912Y-96988428D01*
X101898731Y-96954759D01*
X101881948Y-96919273D01*
X101868724Y-96882314D01*
X101859186Y-96844236D01*
X101853426Y-96805407D01*
X101851500Y-96766200D01*
X101851500Y-95966200D01*
X101853426Y-95926993D01*
X101859186Y-95888164D01*
X101868724Y-95850086D01*
X101881948Y-95813127D01*
X101898731Y-95777641D01*
X101918912Y-95743972D01*
X101942296Y-95712443D01*
X101968657Y-95683357D01*
X101997743Y-95656996D01*
X102029272Y-95633612D01*
X102062941Y-95613431D01*
X102098427Y-95596648D01*
X102135386Y-95583424D01*
X102173464Y-95573886D01*
X102212293Y-95568126D01*
X102251500Y-95566200D01*
X103051500Y-95566200D01*
X103090707Y-95568126D01*
X103090707Y-95568126D01*
G37*
D15*
G04 #@! TD*
G04 #@! TO.P,U7,3*
G04 #@! TO.N,Net-(SW9-Pad3)*
X102651500Y-96366200D03*
D14*
G04 #@! TO.N,Net-(U6-Pad2)*
G04 #@! TO.C,U7*
G36*
X99839507Y-95568126D02*
X99878336Y-95573886D01*
X99916414Y-95583424D01*
X99953373Y-95596648D01*
X99988859Y-95613431D01*
X100022528Y-95633612D01*
X100054057Y-95656996D01*
X100083143Y-95683357D01*
X100109504Y-95712443D01*
X100132888Y-95743972D01*
X100153069Y-95777641D01*
X100169852Y-95813127D01*
X100183076Y-95850086D01*
X100192614Y-95888164D01*
X100198374Y-95926993D01*
X100200300Y-95966200D01*
X100200300Y-96766200D01*
X100198374Y-96805407D01*
X100192614Y-96844236D01*
X100183076Y-96882314D01*
X100169852Y-96919273D01*
X100153069Y-96954759D01*
X100132888Y-96988428D01*
X100109504Y-97019957D01*
X100083143Y-97049043D01*
X100054057Y-97075404D01*
X100022528Y-97098788D01*
X99988859Y-97118969D01*
X99953373Y-97135752D01*
X99916414Y-97148976D01*
X99878336Y-97158514D01*
X99839507Y-97164274D01*
X99800300Y-97166200D01*
X99000300Y-97166200D01*
X98961093Y-97164274D01*
X98922264Y-97158514D01*
X98884186Y-97148976D01*
X98847227Y-97135752D01*
X98811741Y-97118969D01*
X98778072Y-97098788D01*
X98746543Y-97075404D01*
X98717457Y-97049043D01*
X98691096Y-97019957D01*
X98667712Y-96988428D01*
X98647531Y-96954759D01*
X98630748Y-96919273D01*
X98617524Y-96882314D01*
X98607986Y-96844236D01*
X98602226Y-96805407D01*
X98600300Y-96766200D01*
X98600300Y-95966200D01*
X98602226Y-95926993D01*
X98607986Y-95888164D01*
X98617524Y-95850086D01*
X98630748Y-95813127D01*
X98647531Y-95777641D01*
X98667712Y-95743972D01*
X98691096Y-95712443D01*
X98717457Y-95683357D01*
X98746543Y-95656996D01*
X98778072Y-95633612D01*
X98811741Y-95613431D01*
X98847227Y-95596648D01*
X98884186Y-95583424D01*
X98922264Y-95573886D01*
X98961093Y-95568126D01*
X99000300Y-95566200D01*
X99800300Y-95566200D01*
X99839507Y-95568126D01*
X99839507Y-95568126D01*
G37*
D15*
G04 #@! TD*
G04 #@! TO.P,U7,4*
G04 #@! TO.N,Net-(U6-Pad2)*
X99400300Y-96366200D03*
D14*
G04 #@! TO.N,Net-(SW1-Pad2)*
G04 #@! TO.C,U7*
G36*
X89235007Y-95504626D02*
X89273836Y-95510386D01*
X89311914Y-95519924D01*
X89348873Y-95533148D01*
X89384359Y-95549931D01*
X89418028Y-95570112D01*
X89449557Y-95593496D01*
X89478643Y-95619857D01*
X89505004Y-95648943D01*
X89528388Y-95680472D01*
X89548569Y-95714141D01*
X89565352Y-95749627D01*
X89578576Y-95786586D01*
X89588114Y-95824664D01*
X89593874Y-95863493D01*
X89595800Y-95902700D01*
X89595800Y-96702700D01*
X89593874Y-96741907D01*
X89588114Y-96780736D01*
X89578576Y-96818814D01*
X89565352Y-96855773D01*
X89548569Y-96891259D01*
X89528388Y-96924928D01*
X89505004Y-96956457D01*
X89478643Y-96985543D01*
X89449557Y-97011904D01*
X89418028Y-97035288D01*
X89384359Y-97055469D01*
X89348873Y-97072252D01*
X89311914Y-97085476D01*
X89273836Y-97095014D01*
X89235007Y-97100774D01*
X89195800Y-97102700D01*
X88395800Y-97102700D01*
X88356593Y-97100774D01*
X88317764Y-97095014D01*
X88279686Y-97085476D01*
X88242727Y-97072252D01*
X88207241Y-97055469D01*
X88173572Y-97035288D01*
X88142043Y-97011904D01*
X88112957Y-96985543D01*
X88086596Y-96956457D01*
X88063212Y-96924928D01*
X88043031Y-96891259D01*
X88026248Y-96855773D01*
X88013024Y-96818814D01*
X88003486Y-96780736D01*
X87997726Y-96741907D01*
X87995800Y-96702700D01*
X87995800Y-95902700D01*
X87997726Y-95863493D01*
X88003486Y-95824664D01*
X88013024Y-95786586D01*
X88026248Y-95749627D01*
X88043031Y-95714141D01*
X88063212Y-95680472D01*
X88086596Y-95648943D01*
X88112957Y-95619857D01*
X88142043Y-95593496D01*
X88173572Y-95570112D01*
X88207241Y-95549931D01*
X88242727Y-95533148D01*
X88279686Y-95519924D01*
X88317764Y-95510386D01*
X88356593Y-95504626D01*
X88395800Y-95502700D01*
X89195800Y-95502700D01*
X89235007Y-95504626D01*
X89235007Y-95504626D01*
G37*
D15*
G04 #@! TD*
G04 #@! TO.P,U7,6*
G04 #@! TO.N,Net-(SW1-Pad2)*
X88795800Y-96302700D03*
D14*
G04 #@! TO.N,Net-(U6-Pad1)*
G04 #@! TO.C,U7*
G36*
X92854507Y-95504626D02*
X92893336Y-95510386D01*
X92931414Y-95519924D01*
X92968373Y-95533148D01*
X93003859Y-95549931D01*
X93037528Y-95570112D01*
X93069057Y-95593496D01*
X93098143Y-95619857D01*
X93124504Y-95648943D01*
X93147888Y-95680472D01*
X93168069Y-95714141D01*
X93184852Y-95749627D01*
X93198076Y-95786586D01*
X93207614Y-95824664D01*
X93213374Y-95863493D01*
X93215300Y-95902700D01*
X93215300Y-96702700D01*
X93213374Y-96741907D01*
X93207614Y-96780736D01*
X93198076Y-96818814D01*
X93184852Y-96855773D01*
X93168069Y-96891259D01*
X93147888Y-96924928D01*
X93124504Y-96956457D01*
X93098143Y-96985543D01*
X93069057Y-97011904D01*
X93037528Y-97035288D01*
X93003859Y-97055469D01*
X92968373Y-97072252D01*
X92931414Y-97085476D01*
X92893336Y-97095014D01*
X92854507Y-97100774D01*
X92815300Y-97102700D01*
X92015300Y-97102700D01*
X91976093Y-97100774D01*
X91937264Y-97095014D01*
X91899186Y-97085476D01*
X91862227Y-97072252D01*
X91826741Y-97055469D01*
X91793072Y-97035288D01*
X91761543Y-97011904D01*
X91732457Y-96985543D01*
X91706096Y-96956457D01*
X91682712Y-96924928D01*
X91662531Y-96891259D01*
X91645748Y-96855773D01*
X91632524Y-96818814D01*
X91622986Y-96780736D01*
X91617226Y-96741907D01*
X91615300Y-96702700D01*
X91615300Y-95902700D01*
X91617226Y-95863493D01*
X91622986Y-95824664D01*
X91632524Y-95786586D01*
X91645748Y-95749627D01*
X91662531Y-95714141D01*
X91682712Y-95680472D01*
X91706096Y-95648943D01*
X91732457Y-95619857D01*
X91761543Y-95593496D01*
X91793072Y-95570112D01*
X91826741Y-95549931D01*
X91862227Y-95533148D01*
X91899186Y-95519924D01*
X91937264Y-95510386D01*
X91976093Y-95504626D01*
X92015300Y-95502700D01*
X92815300Y-95502700D01*
X92854507Y-95504626D01*
X92854507Y-95504626D01*
G37*
D15*
G04 #@! TD*
G04 #@! TO.P,U7,5*
G04 #@! TO.N,Net-(U6-Pad1)*
X92415300Y-96302700D03*
D18*
G04 #@! TO.P,SW9,2*
G04 #@! TO.N,Net-(SW9-Pad2)*
X121260000Y-103790000D03*
G04 #@! TO.P,SW9,3*
G04 #@! TO.N,Net-(SW9-Pad3)*
X121260000Y-101250000D03*
G04 #@! TO.P,SW9,1*
G04 #@! TO.N,Net-(SW9-Pad1)*
X121260000Y-106330000D03*
G04 #@! TD*
D19*
G04 #@! TO.P,U1,2*
G04 #@! TO.N,Net-(R1-Pad1)*
X112660000Y-105670000D03*
G04 #@! TO.P,U1,1*
G04 #@! TO.N,Net-(SW1-Pad2)*
X112660000Y-103770000D03*
G04 #@! TO.P,U1,3*
G04 #@! TO.N,Net-(R2-Pad2)*
X114660000Y-104720000D03*
G04 #@! TD*
D14*
G04 #@! TO.N,Net-(R3-Pad2)*
G04 #@! TO.C,R3*
G36*
X87859504Y-61946204D02*
X87883773Y-61949804D01*
X87907571Y-61955765D01*
X87930671Y-61964030D01*
X87952849Y-61974520D01*
X87973893Y-61987133D01*
X87993598Y-62001747D01*
X88011777Y-62018223D01*
X88028253Y-62036402D01*
X88042867Y-62056107D01*
X88055480Y-62077151D01*
X88065970Y-62099329D01*
X88074235Y-62122429D01*
X88080196Y-62146227D01*
X88083796Y-62170496D01*
X88085000Y-62195000D01*
X88085000Y-63120000D01*
X88083796Y-63144504D01*
X88080196Y-63168773D01*
X88074235Y-63192571D01*
X88065970Y-63215671D01*
X88055480Y-63237849D01*
X88042867Y-63258893D01*
X88028253Y-63278598D01*
X88011777Y-63296777D01*
X87993598Y-63313253D01*
X87973893Y-63327867D01*
X87952849Y-63340480D01*
X87930671Y-63350970D01*
X87907571Y-63359235D01*
X87883773Y-63365196D01*
X87859504Y-63368796D01*
X87835000Y-63370000D01*
X86585000Y-63370000D01*
X86560496Y-63368796D01*
X86536227Y-63365196D01*
X86512429Y-63359235D01*
X86489329Y-63350970D01*
X86467151Y-63340480D01*
X86446107Y-63327867D01*
X86426402Y-63313253D01*
X86408223Y-63296777D01*
X86391747Y-63278598D01*
X86377133Y-63258893D01*
X86364520Y-63237849D01*
X86354030Y-63215671D01*
X86345765Y-63192571D01*
X86339804Y-63168773D01*
X86336204Y-63144504D01*
X86335000Y-63120000D01*
X86335000Y-62195000D01*
X86336204Y-62170496D01*
X86339804Y-62146227D01*
X86345765Y-62122429D01*
X86354030Y-62099329D01*
X86364520Y-62077151D01*
X86377133Y-62056107D01*
X86391747Y-62036402D01*
X86408223Y-62018223D01*
X86426402Y-62001747D01*
X86446107Y-61987133D01*
X86467151Y-61974520D01*
X86489329Y-61964030D01*
X86512429Y-61955765D01*
X86536227Y-61949804D01*
X86560496Y-61946204D01*
X86585000Y-61945000D01*
X87835000Y-61945000D01*
X87859504Y-61946204D01*
X87859504Y-61946204D01*
G37*
D16*
G04 #@! TD*
G04 #@! TO.P,R3,2*
G04 #@! TO.N,Net-(R3-Pad2)*
X87210000Y-62657500D03*
D14*
G04 #@! TO.N,Net-(R3-Pad1)*
G04 #@! TO.C,R3*
G36*
X87859504Y-58971204D02*
X87883773Y-58974804D01*
X87907571Y-58980765D01*
X87930671Y-58989030D01*
X87952849Y-58999520D01*
X87973893Y-59012133D01*
X87993598Y-59026747D01*
X88011777Y-59043223D01*
X88028253Y-59061402D01*
X88042867Y-59081107D01*
X88055480Y-59102151D01*
X88065970Y-59124329D01*
X88074235Y-59147429D01*
X88080196Y-59171227D01*
X88083796Y-59195496D01*
X88085000Y-59220000D01*
X88085000Y-60145000D01*
X88083796Y-60169504D01*
X88080196Y-60193773D01*
X88074235Y-60217571D01*
X88065970Y-60240671D01*
X88055480Y-60262849D01*
X88042867Y-60283893D01*
X88028253Y-60303598D01*
X88011777Y-60321777D01*
X87993598Y-60338253D01*
X87973893Y-60352867D01*
X87952849Y-60365480D01*
X87930671Y-60375970D01*
X87907571Y-60384235D01*
X87883773Y-60390196D01*
X87859504Y-60393796D01*
X87835000Y-60395000D01*
X86585000Y-60395000D01*
X86560496Y-60393796D01*
X86536227Y-60390196D01*
X86512429Y-60384235D01*
X86489329Y-60375970D01*
X86467151Y-60365480D01*
X86446107Y-60352867D01*
X86426402Y-60338253D01*
X86408223Y-60321777D01*
X86391747Y-60303598D01*
X86377133Y-60283893D01*
X86364520Y-60262849D01*
X86354030Y-60240671D01*
X86345765Y-60217571D01*
X86339804Y-60193773D01*
X86336204Y-60169504D01*
X86335000Y-60145000D01*
X86335000Y-59220000D01*
X86336204Y-59195496D01*
X86339804Y-59171227D01*
X86345765Y-59147429D01*
X86354030Y-59124329D01*
X86364520Y-59102151D01*
X86377133Y-59081107D01*
X86391747Y-59061402D01*
X86408223Y-59043223D01*
X86426402Y-59026747D01*
X86446107Y-59012133D01*
X86467151Y-58999520D01*
X86489329Y-58989030D01*
X86512429Y-58980765D01*
X86536227Y-58974804D01*
X86560496Y-58971204D01*
X86585000Y-58970000D01*
X87835000Y-58970000D01*
X87859504Y-58971204D01*
X87859504Y-58971204D01*
G37*
D16*
G04 #@! TD*
G04 #@! TO.P,R3,1*
G04 #@! TO.N,Net-(R3-Pad1)*
X87210000Y-59682500D03*
D14*
G04 #@! TO.N,Net-(R4-Pad1)*
G04 #@! TO.C,R4*
G36*
X84029504Y-58971204D02*
X84053773Y-58974804D01*
X84077571Y-58980765D01*
X84100671Y-58989030D01*
X84122849Y-58999520D01*
X84143893Y-59012133D01*
X84163598Y-59026747D01*
X84181777Y-59043223D01*
X84198253Y-59061402D01*
X84212867Y-59081107D01*
X84225480Y-59102151D01*
X84235970Y-59124329D01*
X84244235Y-59147429D01*
X84250196Y-59171227D01*
X84253796Y-59195496D01*
X84255000Y-59220000D01*
X84255000Y-60145000D01*
X84253796Y-60169504D01*
X84250196Y-60193773D01*
X84244235Y-60217571D01*
X84235970Y-60240671D01*
X84225480Y-60262849D01*
X84212867Y-60283893D01*
X84198253Y-60303598D01*
X84181777Y-60321777D01*
X84163598Y-60338253D01*
X84143893Y-60352867D01*
X84122849Y-60365480D01*
X84100671Y-60375970D01*
X84077571Y-60384235D01*
X84053773Y-60390196D01*
X84029504Y-60393796D01*
X84005000Y-60395000D01*
X82755000Y-60395000D01*
X82730496Y-60393796D01*
X82706227Y-60390196D01*
X82682429Y-60384235D01*
X82659329Y-60375970D01*
X82637151Y-60365480D01*
X82616107Y-60352867D01*
X82596402Y-60338253D01*
X82578223Y-60321777D01*
X82561747Y-60303598D01*
X82547133Y-60283893D01*
X82534520Y-60262849D01*
X82524030Y-60240671D01*
X82515765Y-60217571D01*
X82509804Y-60193773D01*
X82506204Y-60169504D01*
X82505000Y-60145000D01*
X82505000Y-59220000D01*
X82506204Y-59195496D01*
X82509804Y-59171227D01*
X82515765Y-59147429D01*
X82524030Y-59124329D01*
X82534520Y-59102151D01*
X82547133Y-59081107D01*
X82561747Y-59061402D01*
X82578223Y-59043223D01*
X82596402Y-59026747D01*
X82616107Y-59012133D01*
X82637151Y-58999520D01*
X82659329Y-58989030D01*
X82682429Y-58980765D01*
X82706227Y-58974804D01*
X82730496Y-58971204D01*
X82755000Y-58970000D01*
X84005000Y-58970000D01*
X84029504Y-58971204D01*
X84029504Y-58971204D01*
G37*
D16*
G04 #@! TD*
G04 #@! TO.P,R4,1*
G04 #@! TO.N,Net-(R4-Pad1)*
X83380000Y-59682500D03*
D14*
G04 #@! TO.N,Net-(R3-Pad2)*
G04 #@! TO.C,R4*
G36*
X84029504Y-61946204D02*
X84053773Y-61949804D01*
X84077571Y-61955765D01*
X84100671Y-61964030D01*
X84122849Y-61974520D01*
X84143893Y-61987133D01*
X84163598Y-62001747D01*
X84181777Y-62018223D01*
X84198253Y-62036402D01*
X84212867Y-62056107D01*
X84225480Y-62077151D01*
X84235970Y-62099329D01*
X84244235Y-62122429D01*
X84250196Y-62146227D01*
X84253796Y-62170496D01*
X84255000Y-62195000D01*
X84255000Y-63120000D01*
X84253796Y-63144504D01*
X84250196Y-63168773D01*
X84244235Y-63192571D01*
X84235970Y-63215671D01*
X84225480Y-63237849D01*
X84212867Y-63258893D01*
X84198253Y-63278598D01*
X84181777Y-63296777D01*
X84163598Y-63313253D01*
X84143893Y-63327867D01*
X84122849Y-63340480D01*
X84100671Y-63350970D01*
X84077571Y-63359235D01*
X84053773Y-63365196D01*
X84029504Y-63368796D01*
X84005000Y-63370000D01*
X82755000Y-63370000D01*
X82730496Y-63368796D01*
X82706227Y-63365196D01*
X82682429Y-63359235D01*
X82659329Y-63350970D01*
X82637151Y-63340480D01*
X82616107Y-63327867D01*
X82596402Y-63313253D01*
X82578223Y-63296777D01*
X82561747Y-63278598D01*
X82547133Y-63258893D01*
X82534520Y-63237849D01*
X82524030Y-63215671D01*
X82515765Y-63192571D01*
X82509804Y-63168773D01*
X82506204Y-63144504D01*
X82505000Y-63120000D01*
X82505000Y-62195000D01*
X82506204Y-62170496D01*
X82509804Y-62146227D01*
X82515765Y-62122429D01*
X82524030Y-62099329D01*
X82534520Y-62077151D01*
X82547133Y-62056107D01*
X82561747Y-62036402D01*
X82578223Y-62018223D01*
X82596402Y-62001747D01*
X82616107Y-61987133D01*
X82637151Y-61974520D01*
X82659329Y-61964030D01*
X82682429Y-61955765D01*
X82706227Y-61949804D01*
X82730496Y-61946204D01*
X82755000Y-61945000D01*
X84005000Y-61945000D01*
X84029504Y-61946204D01*
X84029504Y-61946204D01*
G37*
D16*
G04 #@! TD*
G04 #@! TO.P,R4,2*
G04 #@! TO.N,Net-(R3-Pad2)*
X83380000Y-62657500D03*
D13*
G04 #@! TO.P,U6,1*
G04 #@! TO.N,Net-(U6-Pad1)*
X92420000Y-90820000D03*
G04 #@! TO.P,U6,2*
G04 #@! TO.N,Net-(U6-Pad2)*
X94960000Y-90820000D03*
G04 #@! TD*
D20*
G04 #@! TO.P,SW8,1*
G04 #@! TO.N,Net-(SW8-Pad1)*
X59773300Y-74240000D03*
G04 #@! TO.P,SW8,3*
G04 #@! TO.N,Net-(LS1-Pad2)*
X59773300Y-69528300D03*
G04 #@! TO.P,SW8,2*
G04 #@! TO.N,Net-(SW1-Pad2)*
X59773300Y-71230100D03*
D21*
G04 #@! TO.P,SW8,4*
G04 #@! TO.N,N/C*
X57393320Y-76373600D03*
X57423800Y-67407400D03*
G04 #@! TD*
D22*
G04 #@! TO.P,U11,1*
G04 #@! TO.N,Net-(U11-Pad1)*
X127850000Y-121500000D03*
G04 #@! TD*
G04 #@! TO.P,U9,1*
G04 #@! TO.N,Net-(U9-Pad1)*
X59350000Y-121500000D03*
G04 #@! TD*
G04 #@! TO.P,U8,1*
G04 #@! TO.N,Net-(U8-Pad1)*
X60800000Y-61450000D03*
G04 #@! TD*
G04 #@! TO.P,U12,1*
G04 #@! TO.N,Net-(U12-Pad1)*
X94050000Y-55700000D03*
G04 #@! TD*
G04 #@! TO.P,U10,1*
G04 #@! TO.N,Net-(U10-Pad1)*
X127200000Y-61500000D03*
G04 #@! TD*
D23*
G04 #@! TO.N,Net-(LS1-Pad1)*
X72370000Y-102260000D03*
G04 #@! TO.N,Net-(LS1-Pad2)*
X87240000Y-98825000D03*
G04 #@! TO.N,Net-(R1-Pad2)*
X79710000Y-106580000D03*
X99240000Y-106090000D03*
G04 #@! TO.N,Net-(R2-Pad2)*
X117400000Y-107270000D03*
G04 #@! TO.N,Net-(R2-Pad1)*
X110450000Y-110810000D03*
X86480000Y-112010000D03*
X120140000Y-98350000D03*
G04 #@! TO.N,Net-(SW1-Pad2)*
X122150000Y-99590000D03*
X86380000Y-117720000D03*
X112800000Y-118840000D03*
X114940000Y-88480000D03*
X96410000Y-75340000D03*
X105220000Y-69390000D03*
X92100000Y-83240000D03*
X76770000Y-90830000D03*
X79639841Y-85155000D03*
X72870000Y-86990000D03*
X111780000Y-102130000D03*
X107670000Y-94300000D03*
G04 #@! TO.N,Net-(U2-Pad3)*
X106840000Y-118380000D03*
X93400000Y-115700000D03*
X91570000Y-98560000D03*
X86220000Y-97730000D03*
G04 #@! TO.N,Net-(U2-Pad5)*
X89210000Y-100880000D03*
X97390000Y-88950000D03*
G04 #@! TO.N,Net-(U2-Pad6)*
X88440000Y-90040000D03*
X93050000Y-84470000D03*
G04 #@! TO.N,Net-(U3-Pad7)*
X66390000Y-104450000D03*
G04 #@! TO.N,Net-(U3-Pad9)*
X87980000Y-75350000D03*
X97630000Y-60770000D03*
G04 #@! TO.N,Net-(SW7-Pad1)*
X101210000Y-68660000D03*
X93550000Y-67720000D03*
X66870000Y-95900000D03*
G04 #@! TO.N,Net-(SW6-Pad1)*
X100060000Y-67370000D03*
X92660000Y-66350000D03*
X65890000Y-94740000D03*
G04 #@! TO.N,Net-(SW3-Pad1)*
X82085000Y-101320000D03*
G04 #@! TO.N,Net-(SW5-Pad1)*
X82200000Y-103120000D03*
G04 #@! TO.N,Net-(SW2-Pad1)*
X87820000Y-104350000D03*
G04 #@! TO.N,Net-(SW4-Pad1)*
X82200000Y-111060000D03*
G04 #@! TO.N,Net-(SW1-Pad1)*
X85730000Y-113830000D03*
G04 #@! TO.N,Net-(SW9-Pad2)*
X115080000Y-102200000D03*
X106620000Y-94520000D03*
G04 #@! TD*
D24*
G04 #@! TO.N,Net-(LS1-Pad1)*
X68750000Y-102260000D02*
X68600000Y-102110000D01*
X72370000Y-102260000D02*
X68750000Y-102260000D01*
G04 #@! TO.N,Net-(LS1-Pad2)*
X89165001Y-72435001D02*
X89165001Y-92764999D01*
X86840000Y-70110000D02*
X89165001Y-72435001D01*
X87240000Y-94690000D02*
X87240000Y-98825000D01*
X89165001Y-92764999D02*
X87240000Y-94690000D01*
X61523300Y-69528300D02*
X62105000Y-70110000D01*
X59773300Y-69528300D02*
X61523300Y-69528300D01*
X62105000Y-70110000D02*
X62910000Y-70110000D01*
X62910000Y-70110000D02*
X86840000Y-70110000D01*
G04 #@! TO.N,Net-(R1-Pad1)*
X110471347Y-103741347D02*
X109700000Y-102970000D01*
X112400000Y-105670000D02*
X110471347Y-103741347D01*
X112660000Y-105670000D02*
X112400000Y-105670000D01*
G04 #@! TO.N,Net-(R1-Pad2)*
X105912500Y-102970000D02*
X104810000Y-104072500D01*
X106725000Y-102970000D02*
X105912500Y-102970000D01*
X104810000Y-104072500D02*
X104810000Y-107440000D01*
X104810000Y-107440000D02*
X109300000Y-111930000D01*
X76560000Y-109730000D02*
X79710000Y-106580000D01*
X68600000Y-109730000D02*
X76560000Y-109730000D01*
X99240000Y-106090000D02*
X99240000Y-118020000D01*
X103275612Y-120275010D02*
X108360000Y-115190622D01*
X101495010Y-120275010D02*
X103275612Y-120275010D01*
X99240000Y-118020000D02*
X101495010Y-120275010D01*
X110029378Y-115190622D02*
X113290000Y-111930000D01*
X108360000Y-115190622D02*
X110029378Y-115190622D01*
X113290000Y-111930000D02*
X119740000Y-111930000D01*
X109300000Y-111930000D02*
X113290000Y-111930000D01*
G04 #@! TO.N,Net-(R2-Pad2)*
X114660000Y-105370000D02*
X112200000Y-107830000D01*
X114660000Y-104720000D02*
X114660000Y-105370000D01*
X111790000Y-107830000D02*
X109790000Y-105830000D01*
X112200000Y-107830000D02*
X111790000Y-107830000D01*
X114850000Y-104720000D02*
X114660000Y-104720000D01*
X117400000Y-107270000D02*
X114850000Y-104720000D01*
G04 #@! TO.N,Net-(R2-Pad1)*
X118840000Y-109390000D02*
X119740000Y-109390000D01*
X109400000Y-109390000D02*
X118840000Y-109390000D01*
X106815000Y-106805000D02*
X109400000Y-109390000D01*
X106815000Y-105830000D02*
X106815000Y-106805000D01*
X109400000Y-109760000D02*
X110450000Y-110810000D01*
X109400000Y-109390000D02*
X109400000Y-109760000D01*
X84100000Y-112010000D02*
X83840000Y-112270000D01*
X86480000Y-112010000D02*
X84100000Y-112010000D01*
X119400000Y-97610000D02*
X120140000Y-98350000D01*
X109200000Y-97610000D02*
X119400000Y-97610000D01*
G04 #@! TO.N,Net-(SW1-Pad2)*
X109200000Y-95070000D02*
X110100000Y-95070000D01*
X110100000Y-95070000D02*
X110460000Y-95430000D01*
X110460000Y-95430000D02*
X121650000Y-95430000D01*
X122150000Y-95930000D02*
X122150000Y-99590000D01*
X121650000Y-95430000D02*
X122150000Y-95930000D01*
X84210000Y-117720000D02*
X83840000Y-117350000D01*
X86380000Y-117720000D02*
X84210000Y-117720000D01*
X114630000Y-117010000D02*
X112800000Y-118840000D01*
X119740000Y-117010000D02*
X114630000Y-117010000D01*
X114940000Y-89330000D02*
X114940000Y-88480000D01*
X109200000Y-95070000D02*
X114940000Y-89330000D01*
X96410000Y-75340000D02*
X102920000Y-75340000D01*
X102920000Y-75340000D02*
X104300000Y-73960000D01*
X104300000Y-70310000D02*
X105220000Y-69390000D01*
X104300000Y-73960000D02*
X104300000Y-70310000D01*
X96410000Y-78930000D02*
X92100000Y-83240000D01*
X96410000Y-75340000D02*
X96410000Y-78930000D01*
X76770000Y-90830000D02*
X77280000Y-90320000D01*
X79165000Y-85155000D02*
X79639841Y-85155000D01*
X77280000Y-87040000D02*
X79165000Y-85155000D01*
X77080000Y-86990000D02*
X77280000Y-87190000D01*
X72870000Y-86990000D02*
X77080000Y-86990000D01*
X77280000Y-87190000D02*
X77280000Y-87040000D01*
X77280000Y-90320000D02*
X77280000Y-87190000D01*
X88042247Y-97056253D02*
X88042247Y-97572247D01*
X88795800Y-96302700D02*
X88042247Y-97056253D01*
X88042247Y-97572247D02*
X90150000Y-99680000D01*
X90150000Y-113950000D02*
X86380000Y-117720000D01*
X90150000Y-99680000D02*
X90150000Y-113950000D01*
X63960000Y-85080000D02*
X70960000Y-85080000D01*
X61523300Y-71230100D02*
X62690000Y-72396800D01*
X62690000Y-83810000D02*
X63960000Y-85080000D01*
X70960000Y-85080000D02*
X72870000Y-86990000D01*
X59773300Y-71230100D02*
X61523300Y-71230100D01*
X62690000Y-72396800D02*
X62690000Y-83810000D01*
X112660000Y-103010000D02*
X111780000Y-102130000D01*
X112660000Y-103770000D02*
X112660000Y-103010000D01*
X108430000Y-94300000D02*
X109200000Y-95070000D01*
X107670000Y-94300000D02*
X108430000Y-94300000D01*
G04 #@! TO.N,Net-(U2-Pad3)*
X119740000Y-114470000D02*
X112760000Y-114470000D01*
X108850000Y-118380000D02*
X106840000Y-118380000D01*
X112760000Y-114470000D02*
X108850000Y-118380000D01*
X93400000Y-115700000D02*
X91820000Y-114120000D01*
X91820000Y-98810000D02*
X91570000Y-98560000D01*
X91820000Y-114120000D02*
X91820000Y-98810000D01*
X85520000Y-97030000D02*
X83840000Y-97030000D01*
X86220000Y-97730000D02*
X85520000Y-97030000D01*
G04 #@! TO.N,Net-(U2-Pad5)*
X81980000Y-99570000D02*
X83840000Y-99570000D01*
X81360000Y-100190000D02*
X81980000Y-99570000D01*
X119740000Y-119550000D02*
X117600000Y-121690000D01*
X117600000Y-121690000D02*
X82890000Y-121690000D01*
X81360000Y-120160000D02*
X81360000Y-100190000D01*
X82890000Y-121690000D02*
X81360000Y-120160000D01*
X87900000Y-99570000D02*
X89210000Y-100880000D01*
X83840000Y-99570000D02*
X87900000Y-99570000D01*
X97789999Y-88550001D02*
X97789999Y-86600001D01*
X97390000Y-88950000D02*
X97789999Y-88550001D01*
X108920000Y-75470000D02*
X108920000Y-55970000D01*
X97789999Y-86600001D02*
X108920000Y-75470000D01*
G04 #@! TO.N,Net-(U2-Pad6)*
X118840000Y-122090000D02*
X118090000Y-122840000D01*
X119740000Y-122090000D02*
X118840000Y-122090000D01*
X118090000Y-122840000D02*
X81750000Y-122840000D01*
X80909990Y-97420010D02*
X83086447Y-95243553D01*
X80909990Y-121999990D02*
X80909990Y-97420010D01*
X83086447Y-95243553D02*
X83840000Y-94490000D01*
X81750000Y-122840000D02*
X80909990Y-121999990D01*
X88290000Y-90040000D02*
X88440000Y-90040000D01*
X83840000Y-94490000D02*
X88290000Y-90040000D01*
X93050000Y-84470000D02*
X97190000Y-84470000D01*
X106380000Y-75280000D02*
X106380000Y-55560000D01*
X97190000Y-84470000D02*
X106380000Y-75280000D01*
G04 #@! TO.N,Net-(U3-Pad7)*
X68400000Y-104450000D02*
X68600000Y-104650000D01*
X66390000Y-104450000D02*
X68400000Y-104450000D01*
G04 #@! TO.N,Net-(U3-Pad9)*
X68600000Y-99570000D02*
X74460000Y-99570000D01*
X74460000Y-99570000D02*
X80760000Y-93270000D01*
X80760000Y-82570000D02*
X87980000Y-75350000D01*
X80760000Y-93270000D02*
X80760000Y-82570000D01*
X99040000Y-60770000D02*
X103840000Y-55970000D01*
X97630000Y-60770000D02*
X99040000Y-60770000D01*
G04 #@! TO.N,Net-(SW7-Pad1)*
X101210000Y-68660000D02*
X98030000Y-68660000D01*
X97090000Y-67720000D02*
X93550000Y-67720000D01*
X98030000Y-68660000D02*
X97090000Y-67720000D01*
X67470000Y-95900000D02*
X68600000Y-97030000D01*
X66870000Y-95900000D02*
X67470000Y-95900000D01*
G04 #@! TO.N,Net-(SW6-Pad1)*
X100060000Y-67370000D02*
X98430000Y-65740000D01*
X93270000Y-65740000D02*
X92660000Y-66350000D01*
X98430000Y-65740000D02*
X93270000Y-65740000D01*
X68350000Y-94740000D02*
X68600000Y-94490000D01*
X65890000Y-94740000D02*
X68350000Y-94740000D01*
G04 #@! TO.N,Net-(SW3-Pad1)*
X83050000Y-101320000D02*
X83840000Y-102110000D01*
X82085000Y-101320000D02*
X83050000Y-101320000D01*
G04 #@! TO.N,Net-(SW5-Pad1)*
X82310000Y-103120000D02*
X83840000Y-104650000D01*
X82200000Y-103120000D02*
X82310000Y-103120000D01*
G04 #@! TO.N,Net-(SW2-Pad1)*
X87820000Y-104350000D02*
X87820000Y-106290000D01*
X87820000Y-106290000D02*
X86820000Y-107290000D01*
X86720000Y-107190000D02*
X83840000Y-107190000D01*
X86820000Y-107290000D02*
X86720000Y-107190000D01*
G04 #@! TO.N,Net-(SW4-Pad1)*
X82510000Y-111060000D02*
X83840000Y-109730000D01*
X82200000Y-111060000D02*
X82510000Y-111060000D01*
G04 #@! TO.N,Net-(SW1-Pad1)*
X84820000Y-113830000D02*
X83840000Y-114810000D01*
X85730000Y-113830000D02*
X84820000Y-113830000D01*
G04 #@! TO.N,Net-(SW9-Pad2)*
X116670000Y-103790000D02*
X115080000Y-102200000D01*
X121260000Y-103790000D02*
X116670000Y-103790000D01*
X106620000Y-94520000D02*
X106620000Y-92900000D01*
X106990000Y-92530000D02*
X109200000Y-92530000D01*
X106620000Y-92900000D02*
X106990000Y-92530000D01*
G04 #@! TO.N,Net-(SW9-Pad3)*
X107535300Y-101250000D02*
X102651500Y-96366200D01*
X121260000Y-101250000D02*
X107535300Y-101250000D01*
G04 #@! TO.N,Net-(U6-Pad2)*
X99400300Y-95260300D02*
X99400300Y-96366200D01*
X94960000Y-90820000D02*
X99400300Y-95260300D01*
G04 #@! TO.N,Net-(U6-Pad1)*
X92420000Y-96298000D02*
X92415300Y-96302700D01*
X92420000Y-90820000D02*
X92420000Y-96298000D01*
G04 #@! TO.N,Net-(R3-Pad2)*
X83380000Y-62657500D02*
X87210000Y-62657500D01*
X90820000Y-117202000D02*
X88859300Y-119162700D01*
X90820000Y-95320000D02*
X90820000Y-117202000D01*
X87210000Y-62657500D02*
X87210000Y-63470000D01*
X87210000Y-63470000D02*
X89620000Y-65880000D01*
X89620000Y-94120000D02*
X90820000Y-95320000D01*
X81212000Y-50562700D02*
X81212000Y-54360000D01*
X88787340Y-50562700D02*
X81212000Y-50562700D01*
X89848000Y-50562700D02*
X88787340Y-50562700D01*
X81212000Y-54360000D02*
X82774100Y-54360000D01*
X89848000Y-54360000D02*
X88285900Y-54360000D01*
X82774100Y-55110000D02*
X80530000Y-57354100D01*
X82774100Y-54360000D02*
X82774100Y-55110000D01*
X80530000Y-57354100D02*
X80530000Y-63750000D01*
X80530000Y-63750000D02*
X83590000Y-66810000D01*
X87880000Y-66810000D02*
X89620000Y-68550000D01*
X83590000Y-66810000D02*
X87880000Y-66810000D01*
X89620000Y-68550000D02*
X89620000Y-94120000D01*
X89620000Y-65880000D02*
X89620000Y-68550000D01*
G04 #@! TO.N,Net-(R3-Pad1)*
X86038000Y-58510500D02*
X87210000Y-59682500D01*
X86038000Y-55710000D02*
X86038000Y-58510500D01*
X86038000Y-55710000D02*
X86038000Y-54360000D01*
G04 #@! TO.N,Net-(R4-Pad1)*
X85022000Y-58040500D02*
X83380000Y-59682500D01*
X85022000Y-55710000D02*
X85022000Y-58040500D01*
X85022000Y-55710000D02*
X85022000Y-54360000D01*
G04 #@! TO.N,Net-(U13-Pad2)*
X87054000Y-54360000D02*
X87054000Y-52560000D01*
X86954000Y-52660000D02*
X87054000Y-52560000D01*
X85580000Y-52660000D02*
X86954000Y-52660000D01*
X84006000Y-54234000D02*
X85580000Y-52660000D01*
X87424000Y-52190000D02*
X87054000Y-52560000D01*
X89593001Y-52190000D02*
X87424000Y-52190000D01*
X90923001Y-53520000D02*
X89593001Y-52190000D01*
X90923001Y-84210000D02*
X90923001Y-53520000D01*
X101010000Y-94010000D02*
X91210000Y-84210000D01*
X91210000Y-84210000D02*
X90923001Y-84210000D01*
X101010000Y-117584700D02*
X101010000Y-94010000D01*
X102575300Y-119150000D02*
X101010000Y-117584700D01*
G04 #@! TD*
M02*
