M48
METRIC,TZ
T1C0.400
T2C1.000
T3C1.200
T4C4.500
%
G90
G05
T1
X65890Y-94740
X66390Y-104450
X66870Y-95900
X72370Y-102260
X72870Y-86990
X76770Y-90830
X79640Y-85155
X79710Y-106580
X82085Y-101320
X82200Y-103120
X82200Y-111060
X85730Y-113830
X86220Y-97730
X86380Y-117720
X86480Y-112010
X87240Y-98825
X87820Y-104350
X87980Y-75350
X88440Y-90040
X89210Y-100880
X91570Y-98560
X92100Y-83240
X92660Y-66350
X93050Y-84470
X93400Y-115700
X93550Y-67720
X96410Y-75340
X97390Y-88950
X97630Y-60770
X99240Y-106090
X100060Y-67370
X101210Y-68660
X105220Y-69390
X106620Y-94520
X106840Y-118380
X107670Y-94300
X110450Y-110810
X111780Y-102130
X112800Y-118840
X114940Y-88480
X115080Y-102200
X117400Y-107270
X120140Y-98350
X122150Y-99590
T2
X98780Y-55590
X101320Y-55590
X103860Y-55590
X106400Y-55590
X108940Y-55590
X111480Y-55590
X114020Y-55590
X92420Y-90820
X94960Y-90820
T3
X81212Y-50563
X81212Y-54360
X89848Y-50563
X89848Y-54360
T4
X59350Y-121500
X60800Y-61450
X127200Y-61500
X127850Y-121500
X94050Y-55700
T0
M30
