G04 #@! TF.GenerationSoftware,KiCad,Pcbnew,5.0.2+dfsg1-1~bpo9+1*
G04 #@! TF.CreationDate,2021-01-26T10:03:55+00:00*
G04 #@! TF.ProjectId,ardubigboy,61726475-6269-4676-926f-792e6b696361,rev?*
G04 #@! TF.SameCoordinates,Original*
G04 #@! TF.FileFunction,Legend,Top*
G04 #@! TF.FilePolarity,Positive*
%FSLAX46Y46*%
G04 Gerber Fmt 4.6, Leading zero omitted, Abs format (unit mm)*
G04 Created by KiCad (PCBNEW 5.0.2+dfsg1-1~bpo9+1) date Tue 26 Jan 2021 10:03:55 GMT*
%MOMM*%
%LPD*%
G01*
G04 APERTURE LIST*
%ADD10C,0.300000*%
%ADD11C,0.200000*%
%ADD12C,0.150000*%
G04 APERTURE END LIST*
D10*
X65178571Y-122060000D02*
X65892857Y-122060000D01*
X65035714Y-122488571D02*
X65535714Y-120988571D01*
X66035714Y-122488571D01*
X66535714Y-122488571D02*
X66535714Y-121488571D01*
X66535714Y-121774285D02*
X66607142Y-121631428D01*
X66678571Y-121560000D01*
X66821428Y-121488571D01*
X66964285Y-121488571D01*
X68107142Y-122488571D02*
X68107142Y-120988571D01*
X68107142Y-122417142D02*
X67964285Y-122488571D01*
X67678571Y-122488571D01*
X67535714Y-122417142D01*
X67464285Y-122345714D01*
X67392857Y-122202857D01*
X67392857Y-121774285D01*
X67464285Y-121631428D01*
X67535714Y-121560000D01*
X67678571Y-121488571D01*
X67964285Y-121488571D01*
X68107142Y-121560000D01*
X69464285Y-121488571D02*
X69464285Y-122488571D01*
X68821428Y-121488571D02*
X68821428Y-122274285D01*
X68892857Y-122417142D01*
X69035714Y-122488571D01*
X69250000Y-122488571D01*
X69392857Y-122417142D01*
X69464285Y-122345714D01*
X70178571Y-122488571D02*
X70178571Y-120988571D01*
X70178571Y-121560000D02*
X70321428Y-121488571D01*
X70607142Y-121488571D01*
X70750000Y-121560000D01*
X70821428Y-121631428D01*
X70892857Y-121774285D01*
X70892857Y-122202857D01*
X70821428Y-122345714D01*
X70750000Y-122417142D01*
X70607142Y-122488571D01*
X70321428Y-122488571D01*
X70178571Y-122417142D01*
X71535714Y-122488571D02*
X71535714Y-121488571D01*
X71535714Y-120988571D02*
X71464285Y-121060000D01*
X71535714Y-121131428D01*
X71607142Y-121060000D01*
X71535714Y-120988571D01*
X71535714Y-121131428D01*
X72892857Y-121488571D02*
X72892857Y-122702857D01*
X72821428Y-122845714D01*
X72750000Y-122917142D01*
X72607142Y-122988571D01*
X72392857Y-122988571D01*
X72250000Y-122917142D01*
X72892857Y-122417142D02*
X72750000Y-122488571D01*
X72464285Y-122488571D01*
X72321428Y-122417142D01*
X72250000Y-122345714D01*
X72178571Y-122202857D01*
X72178571Y-121774285D01*
X72250000Y-121631428D01*
X72321428Y-121560000D01*
X72464285Y-121488571D01*
X72750000Y-121488571D01*
X72892857Y-121560000D01*
X73607142Y-122488571D02*
X73607142Y-120988571D01*
X73607142Y-121560000D02*
X73750000Y-121488571D01*
X74035714Y-121488571D01*
X74178571Y-121560000D01*
X74250000Y-121631428D01*
X74321428Y-121774285D01*
X74321428Y-122202857D01*
X74250000Y-122345714D01*
X74178571Y-122417142D01*
X74035714Y-122488571D01*
X73750000Y-122488571D01*
X73607142Y-122417142D01*
X75178571Y-122488571D02*
X75035714Y-122417142D01*
X74964285Y-122345714D01*
X74892857Y-122202857D01*
X74892857Y-121774285D01*
X74964285Y-121631428D01*
X75035714Y-121560000D01*
X75178571Y-121488571D01*
X75392857Y-121488571D01*
X75535714Y-121560000D01*
X75607142Y-121631428D01*
X75678571Y-121774285D01*
X75678571Y-122202857D01*
X75607142Y-122345714D01*
X75535714Y-122417142D01*
X75392857Y-122488571D01*
X75178571Y-122488571D01*
X76178571Y-121488571D02*
X76535714Y-122488571D01*
X76892857Y-121488571D02*
X76535714Y-122488571D01*
X76392857Y-122845714D01*
X76321428Y-122917142D01*
X76178571Y-122988571D01*
X77107142Y-122631428D02*
X78250000Y-122631428D01*
X79392857Y-121060000D02*
X79250000Y-120988571D01*
X79035714Y-120988571D01*
X78821428Y-121060000D01*
X78678571Y-121202857D01*
X78607142Y-121345714D01*
X78535714Y-121631428D01*
X78535714Y-121845714D01*
X78607142Y-122131428D01*
X78678571Y-122274285D01*
X78821428Y-122417142D01*
X79035714Y-122488571D01*
X79178571Y-122488571D01*
X79392857Y-122417142D01*
X79464285Y-122345714D01*
X79464285Y-121845714D01*
X79178571Y-121845714D01*
X80607142Y-121702857D02*
X80821428Y-121774285D01*
X80892857Y-121845714D01*
X80964285Y-121988571D01*
X80964285Y-122202857D01*
X80892857Y-122345714D01*
X80821428Y-122417142D01*
X80678571Y-122488571D01*
X80107142Y-122488571D01*
X80107142Y-120988571D01*
X80607142Y-120988571D01*
X80750000Y-121060000D01*
X80821428Y-121131428D01*
X80892857Y-121274285D01*
X80892857Y-121417142D01*
X80821428Y-121560000D01*
X80750000Y-121631428D01*
X80607142Y-121702857D01*
X80107142Y-121702857D01*
X81535714Y-122060000D02*
X82250000Y-122060000D01*
X81392857Y-122488571D02*
X81892857Y-120988571D01*
X82392857Y-122488571D01*
X82535714Y-122631428D02*
X83678571Y-122631428D01*
X83964285Y-122417142D02*
X84178571Y-122488571D01*
X84535714Y-122488571D01*
X84678571Y-122417142D01*
X84750000Y-122345714D01*
X84821428Y-122202857D01*
X84821428Y-122060000D01*
X84750000Y-121917142D01*
X84678571Y-121845714D01*
X84535714Y-121774285D01*
X84250000Y-121702857D01*
X84107142Y-121631428D01*
X84035714Y-121560000D01*
X83964285Y-121417142D01*
X83964285Y-121274285D01*
X84035714Y-121131428D01*
X84107142Y-121060000D01*
X84250000Y-120988571D01*
X84607142Y-120988571D01*
X84821428Y-121060000D01*
X85464285Y-122488571D02*
X85464285Y-120988571D01*
X86035714Y-120988571D01*
X86178571Y-121060000D01*
X86250000Y-121131428D01*
X86321428Y-121274285D01*
X86321428Y-121488571D01*
X86250000Y-121631428D01*
X86178571Y-121702857D01*
X86035714Y-121774285D01*
X85464285Y-121774285D01*
X65928571Y-118742857D02*
X65428571Y-118742857D01*
X65428571Y-119528571D02*
X65428571Y-118028571D01*
X66142857Y-118028571D01*
X67357142Y-119528571D02*
X67357142Y-118742857D01*
X67285714Y-118600000D01*
X67142857Y-118528571D01*
X66857142Y-118528571D01*
X66714285Y-118600000D01*
X67357142Y-119457142D02*
X67214285Y-119528571D01*
X66857142Y-119528571D01*
X66714285Y-119457142D01*
X66642857Y-119314285D01*
X66642857Y-119171428D01*
X66714285Y-119028571D01*
X66857142Y-118957142D01*
X67214285Y-118957142D01*
X67357142Y-118885714D01*
X68714285Y-119457142D02*
X68571428Y-119528571D01*
X68285714Y-119528571D01*
X68142857Y-119457142D01*
X68071428Y-119385714D01*
X68000000Y-119242857D01*
X68000000Y-118814285D01*
X68071428Y-118671428D01*
X68142857Y-118600000D01*
X68285714Y-118528571D01*
X68571428Y-118528571D01*
X68714285Y-118600000D01*
X69928571Y-119457142D02*
X69785714Y-119528571D01*
X69500000Y-119528571D01*
X69357142Y-119457142D01*
X69285714Y-119314285D01*
X69285714Y-118742857D01*
X69357142Y-118600000D01*
X69500000Y-118528571D01*
X69785714Y-118528571D01*
X69928571Y-118600000D01*
X70000000Y-118742857D01*
X70000000Y-118885714D01*
X69285714Y-119028571D01*
X70857142Y-119528571D02*
X70714285Y-119457142D01*
X70642857Y-119314285D01*
X70642857Y-118028571D01*
X72000000Y-119457142D02*
X71857142Y-119528571D01*
X71571428Y-119528571D01*
X71428571Y-119457142D01*
X71357142Y-119314285D01*
X71357142Y-118742857D01*
X71428571Y-118600000D01*
X71571428Y-118528571D01*
X71857142Y-118528571D01*
X72000000Y-118600000D01*
X72071428Y-118742857D01*
X72071428Y-118885714D01*
X71357142Y-119028571D01*
X72642857Y-119457142D02*
X72785714Y-119528571D01*
X73071428Y-119528571D01*
X73214285Y-119457142D01*
X73285714Y-119314285D01*
X73285714Y-119242857D01*
X73214285Y-119100000D01*
X73071428Y-119028571D01*
X72857142Y-119028571D01*
X72714285Y-118957142D01*
X72642857Y-118814285D01*
X72642857Y-118742857D01*
X72714285Y-118600000D01*
X72857142Y-118528571D01*
X73071428Y-118528571D01*
X73214285Y-118600000D01*
X73857142Y-119457142D02*
X74000000Y-119528571D01*
X74285714Y-119528571D01*
X74428571Y-119457142D01*
X74500000Y-119314285D01*
X74500000Y-119242857D01*
X74428571Y-119100000D01*
X74285714Y-119028571D01*
X74071428Y-119028571D01*
X73928571Y-118957142D01*
X73857142Y-118814285D01*
X73857142Y-118742857D01*
X73928571Y-118600000D01*
X74071428Y-118528571D01*
X74285714Y-118528571D01*
X74428571Y-118600000D01*
X74928571Y-118528571D02*
X75500000Y-118528571D01*
X75142857Y-118028571D02*
X75142857Y-119314285D01*
X75214285Y-119457142D01*
X75357142Y-119528571D01*
X75500000Y-119528571D01*
X76571428Y-119457142D02*
X76428571Y-119528571D01*
X76142857Y-119528571D01*
X76000000Y-119457142D01*
X75928571Y-119314285D01*
X75928571Y-118742857D01*
X76000000Y-118600000D01*
X76142857Y-118528571D01*
X76428571Y-118528571D01*
X76571428Y-118600000D01*
X76642857Y-118742857D01*
X76642857Y-118885714D01*
X75928571Y-119028571D01*
X77928571Y-119457142D02*
X77785714Y-119528571D01*
X77500000Y-119528571D01*
X77357142Y-119457142D01*
X77285714Y-119385714D01*
X77214285Y-119242857D01*
X77214285Y-118814285D01*
X77285714Y-118671428D01*
X77357142Y-118600000D01*
X77500000Y-118528571D01*
X77785714Y-118528571D01*
X77928571Y-118600000D01*
X78571428Y-119528571D02*
X78571428Y-118028571D01*
X79214285Y-119528571D02*
X79214285Y-118742857D01*
X79142857Y-118600000D01*
X79000000Y-118528571D01*
X78785714Y-118528571D01*
X78642857Y-118600000D01*
X78571428Y-118671428D01*
X81000000Y-118171428D02*
X81071428Y-118100000D01*
X81214285Y-118028571D01*
X81571428Y-118028571D01*
X81714285Y-118100000D01*
X81785714Y-118171428D01*
X81857142Y-118314285D01*
X81857142Y-118457142D01*
X81785714Y-118671428D01*
X80928571Y-119528571D01*
X81857142Y-119528571D01*
X82785714Y-118028571D02*
X82928571Y-118028571D01*
X83071428Y-118100000D01*
X83142857Y-118171428D01*
X83214285Y-118314285D01*
X83285714Y-118600000D01*
X83285714Y-118957142D01*
X83214285Y-119242857D01*
X83142857Y-119385714D01*
X83071428Y-119457142D01*
X82928571Y-119528571D01*
X82785714Y-119528571D01*
X82642857Y-119457142D01*
X82571428Y-119385714D01*
X82500000Y-119242857D01*
X82428571Y-118957142D01*
X82428571Y-118600000D01*
X82500000Y-118314285D01*
X82571428Y-118171428D01*
X82642857Y-118100000D01*
X82785714Y-118028571D01*
X83857142Y-118171428D02*
X83928571Y-118100000D01*
X84071428Y-118028571D01*
X84428571Y-118028571D01*
X84571428Y-118100000D01*
X84642857Y-118171428D01*
X84714285Y-118314285D01*
X84714285Y-118457142D01*
X84642857Y-118671428D01*
X83785714Y-119528571D01*
X84714285Y-119528571D01*
X85642857Y-118028571D02*
X85785714Y-118028571D01*
X85928571Y-118100000D01*
X86000000Y-118171428D01*
X86071428Y-118314285D01*
X86142857Y-118600000D01*
X86142857Y-118957142D01*
X86071428Y-119242857D01*
X86000000Y-119385714D01*
X85928571Y-119457142D01*
X85785714Y-119528571D01*
X85642857Y-119528571D01*
X85500000Y-119457142D01*
X85428571Y-119385714D01*
X85357142Y-119242857D01*
X85285714Y-118957142D01*
X85285714Y-118600000D01*
X85357142Y-118314285D01*
X85428571Y-118171428D01*
X85500000Y-118100000D01*
X85642857Y-118028571D01*
X120128571Y-81657142D02*
X121271428Y-81657142D01*
X120700000Y-82228571D02*
X120700000Y-81085714D01*
D11*
X64640000Y-92260000D02*
X64590000Y-92260000D01*
X85470000Y-49300000D02*
X85470000Y-50830000D01*
X80850000Y-50820000D02*
X90100000Y-50820000D01*
X90100000Y-50780000D02*
X90100000Y-49320000D01*
X80850000Y-49290000D02*
X80850000Y-50830000D01*
D10*
X93478571Y-102367142D02*
X94621428Y-102367142D01*
X94050000Y-102938571D02*
X94050000Y-101795714D01*
X93478571Y-66787142D02*
X94621428Y-66787142D01*
X94050000Y-67358571D02*
X94050000Y-66215714D01*
X54978571Y-74100000D02*
X53478571Y-74100000D01*
X54550000Y-73600000D01*
X53478571Y-73100000D01*
X54978571Y-73100000D01*
X53978571Y-71742857D02*
X54978571Y-71742857D01*
X53978571Y-72385714D02*
X54764285Y-72385714D01*
X54907142Y-72314285D01*
X54978571Y-72171428D01*
X54978571Y-71957142D01*
X54907142Y-71814285D01*
X54835714Y-71742857D01*
X53978571Y-71242857D02*
X53978571Y-70671428D01*
X53478571Y-71028571D02*
X54764285Y-71028571D01*
X54907142Y-70957142D01*
X54978571Y-70814285D01*
X54978571Y-70671428D01*
X54907142Y-69600000D02*
X54978571Y-69742857D01*
X54978571Y-70028571D01*
X54907142Y-70171428D01*
X54764285Y-70242857D01*
X54192857Y-70242857D01*
X54050000Y-70171428D01*
X53978571Y-70028571D01*
X53978571Y-69742857D01*
X54050000Y-69600000D01*
X54192857Y-69528571D01*
X54335714Y-69528571D01*
X54478571Y-70242857D01*
X134853571Y-106964285D02*
X133353571Y-106964285D01*
X133353571Y-106392857D01*
X133425000Y-106250000D01*
X133496428Y-106178571D01*
X133639285Y-106107142D01*
X133853571Y-106107142D01*
X133996428Y-106178571D01*
X134067857Y-106250000D01*
X134139285Y-106392857D01*
X134139285Y-106964285D01*
X134853571Y-105250000D02*
X134782142Y-105392857D01*
X134710714Y-105464285D01*
X134567857Y-105535714D01*
X134139285Y-105535714D01*
X133996428Y-105464285D01*
X133925000Y-105392857D01*
X133853571Y-105250000D01*
X133853571Y-105035714D01*
X133925000Y-104892857D01*
X133996428Y-104821428D01*
X134139285Y-104750000D01*
X134567857Y-104750000D01*
X134710714Y-104821428D01*
X134782142Y-104892857D01*
X134853571Y-105035714D01*
X134853571Y-105250000D01*
X133853571Y-104250000D02*
X134853571Y-103964285D01*
X134139285Y-103678571D01*
X134853571Y-103392857D01*
X133853571Y-103107142D01*
X134782142Y-101964285D02*
X134853571Y-102107142D01*
X134853571Y-102392857D01*
X134782142Y-102535714D01*
X134639285Y-102607142D01*
X134067857Y-102607142D01*
X133925000Y-102535714D01*
X133853571Y-102392857D01*
X133853571Y-102107142D01*
X133925000Y-101964285D01*
X134067857Y-101892857D01*
X134210714Y-101892857D01*
X134353571Y-102607142D01*
X134853571Y-101250000D02*
X133853571Y-101250000D01*
X134139285Y-101250000D02*
X133996428Y-101178571D01*
X133925000Y-101107142D01*
X133853571Y-100964285D01*
X133853571Y-100821428D01*
D11*
X132450000Y-104025000D02*
X130975000Y-104025000D01*
X55650000Y-71850000D02*
X57200000Y-71850000D01*
X130950000Y-97800000D02*
X132450000Y-97800000D01*
X130950000Y-110250000D02*
X130950000Y-97800000D01*
X132450000Y-110250000D02*
X130950000Y-110250000D01*
X57200000Y-66350000D02*
X55600000Y-66350000D01*
X57200000Y-77350000D02*
X57200000Y-66350000D01*
X55600000Y-77350000D02*
X57200000Y-77350000D01*
D10*
X107128571Y-85807142D02*
X108271428Y-85807142D01*
X107700000Y-86378571D02*
X107700000Y-85235714D01*
X73028571Y-92407142D02*
X74171428Y-92407142D01*
X73600000Y-92978571D02*
X73600000Y-91835714D01*
X73028571Y-77407142D02*
X74171428Y-77407142D01*
X73600000Y-77978571D02*
X73600000Y-76835714D01*
X65528571Y-84707142D02*
X66671428Y-84707142D01*
X66100000Y-85278571D02*
X66100000Y-84135714D01*
D12*
G04 #@! TO.C,U5*
X84896360Y-53050000D02*
X84901440Y-53050000D01*
G04 #@! TO.C,LS1*
X94050000Y-94295500D02*
X102114500Y-94295500D01*
X102114500Y-94295500D02*
X102114500Y-110424500D01*
X102114500Y-110424500D02*
X85985500Y-110424500D01*
X85985500Y-110424500D02*
X85985500Y-94295500D01*
X85985500Y-94295500D02*
X94050000Y-94295500D01*
G04 #@! TO.C,*
X199273495Y-113415720D02*
X199178257Y-113368100D01*
X199035400Y-113368100D01*
X198892542Y-113415720D01*
X198797304Y-113510958D01*
X198749685Y-113606196D01*
X198702066Y-113796672D01*
X198702066Y-113939529D01*
X198749685Y-114130005D01*
X198797304Y-114225243D01*
X198892542Y-114320481D01*
X199035400Y-114368100D01*
X199130638Y-114368100D01*
X199273495Y-114320481D01*
X199321114Y-114272862D01*
X199321114Y-113939529D01*
X199130638Y-113939529D01*
X199749685Y-114368100D02*
X199749685Y-113368100D01*
X200321114Y-114368100D01*
X200321114Y-113368100D01*
X200797304Y-114368100D02*
X200797304Y-113368100D01*
X201035400Y-113368100D01*
X201178257Y-113415720D01*
X201273495Y-113510958D01*
X201321114Y-113606196D01*
X201368733Y-113796672D01*
X201368733Y-113939529D01*
X201321114Y-114130005D01*
X201273495Y-114225243D01*
X201178257Y-114320481D01*
X201035400Y-114368100D01*
X200797304Y-114368100D01*
G04 #@! TO.C,U5*
X105638095Y-63363420D02*
X105638095Y-64172944D01*
X105685714Y-64268182D01*
X105733333Y-64315801D01*
X105828571Y-64363420D01*
X106019047Y-64363420D01*
X106114285Y-64315801D01*
X106161904Y-64268182D01*
X106209523Y-64172944D01*
X106209523Y-63363420D01*
X107161904Y-63363420D02*
X106685714Y-63363420D01*
X106638095Y-63839611D01*
X106685714Y-63791992D01*
X106780952Y-63744373D01*
X107019047Y-63744373D01*
X107114285Y-63791992D01*
X107161904Y-63839611D01*
X107209523Y-63934849D01*
X107209523Y-64172944D01*
X107161904Y-64268182D01*
X107114285Y-64315801D01*
X107019047Y-64363420D01*
X106780952Y-64363420D01*
X106685714Y-64315801D01*
X106638095Y-64268182D01*
X113545400Y-58937624D02*
X113497780Y-59032862D01*
X113497780Y-59175720D01*
X113545400Y-59318577D01*
X113640638Y-59413815D01*
X113735876Y-59461434D01*
X113926352Y-59509053D01*
X114069209Y-59509053D01*
X114259685Y-59461434D01*
X114354923Y-59413815D01*
X114450161Y-59318577D01*
X114497780Y-59175720D01*
X114497780Y-59080481D01*
X114450161Y-58937624D01*
X114402542Y-58890005D01*
X114069209Y-58890005D01*
X114069209Y-59080481D01*
X114497780Y-58461434D02*
X113497780Y-58461434D01*
X114497780Y-57890005D01*
X113497780Y-57890005D01*
X114497780Y-57413815D02*
X113497780Y-57413815D01*
X113497780Y-57175720D01*
X113545400Y-57032862D01*
X113640638Y-56937624D01*
X113735876Y-56890005D01*
X113926352Y-56842386D01*
X114069209Y-56842386D01*
X114259685Y-56890005D01*
X114354923Y-56937624D01*
X114450161Y-57032862D01*
X114497780Y-57175720D01*
X114497780Y-57413815D01*
X110891740Y-59448093D02*
X111891740Y-59114760D01*
X110891740Y-58781426D01*
X111796502Y-57876664D02*
X111844121Y-57924283D01*
X111891740Y-58067140D01*
X111891740Y-58162379D01*
X111844121Y-58305236D01*
X111748883Y-58400474D01*
X111653645Y-58448093D01*
X111463169Y-58495712D01*
X111320312Y-58495712D01*
X111129836Y-58448093D01*
X111034598Y-58400474D01*
X110939360Y-58305236D01*
X110891740Y-58162379D01*
X110891740Y-58067140D01*
X110939360Y-57924283D01*
X110986979Y-57876664D01*
X111796502Y-56876664D02*
X111844121Y-56924283D01*
X111891740Y-57067140D01*
X111891740Y-57162379D01*
X111844121Y-57305236D01*
X111748883Y-57400474D01*
X111653645Y-57448093D01*
X111463169Y-57495712D01*
X111320312Y-57495712D01*
X111129836Y-57448093D01*
X111034598Y-57400474D01*
X110939360Y-57305236D01*
X110891740Y-57162379D01*
X110891740Y-57067140D01*
X110939360Y-56924283D01*
X110986979Y-56876664D01*
X109370161Y-59335716D02*
X109417780Y-59192859D01*
X109417780Y-58954763D01*
X109370161Y-58859525D01*
X109322542Y-58811906D01*
X109227304Y-58764287D01*
X109132066Y-58764287D01*
X109036828Y-58811906D01*
X108989209Y-58859525D01*
X108941590Y-58954763D01*
X108893971Y-59145240D01*
X108846352Y-59240478D01*
X108798733Y-59288097D01*
X108703495Y-59335716D01*
X108608257Y-59335716D01*
X108513019Y-59288097D01*
X108465400Y-59240478D01*
X108417780Y-59145240D01*
X108417780Y-58907144D01*
X108465400Y-58764287D01*
X109322542Y-57764287D02*
X109370161Y-57811906D01*
X109417780Y-57954763D01*
X109417780Y-58050001D01*
X109370161Y-58192859D01*
X109274923Y-58288097D01*
X109179685Y-58335716D01*
X108989209Y-58383335D01*
X108846352Y-58383335D01*
X108655876Y-58335716D01*
X108560638Y-58288097D01*
X108465400Y-58192859D01*
X108417780Y-58050001D01*
X108417780Y-57954763D01*
X108465400Y-57811906D01*
X108513019Y-57764287D01*
X109417780Y-56859525D02*
X109417780Y-57335716D01*
X108417780Y-57335716D01*
X106799681Y-59359525D02*
X106847300Y-59216668D01*
X106847300Y-58978573D01*
X106799681Y-58883335D01*
X106752062Y-58835716D01*
X106656824Y-58788097D01*
X106561586Y-58788097D01*
X106466348Y-58835716D01*
X106418729Y-58883335D01*
X106371110Y-58978573D01*
X106323491Y-59169049D01*
X106275872Y-59264287D01*
X106228253Y-59311906D01*
X106133015Y-59359525D01*
X106037777Y-59359525D01*
X105942539Y-59311906D01*
X105894920Y-59264287D01*
X105847300Y-59169049D01*
X105847300Y-58930954D01*
X105894920Y-58788097D01*
X106847300Y-58359525D02*
X105847300Y-58359525D01*
X105847300Y-58121430D01*
X105894920Y-57978573D01*
X105990158Y-57883335D01*
X106085396Y-57835716D01*
X106275872Y-57788097D01*
X106418729Y-57788097D01*
X106609205Y-57835716D01*
X106704443Y-57883335D01*
X106799681Y-57978573D01*
X106847300Y-58121430D01*
X106847300Y-58359525D01*
X106561586Y-57407144D02*
X106561586Y-56930954D01*
X106847300Y-57502382D02*
X105847300Y-57169049D01*
X106847300Y-56835716D01*
X104307300Y-58657607D02*
X103831110Y-58990940D01*
X104307300Y-59229036D02*
X103307300Y-59229036D01*
X103307300Y-58848083D01*
X103354920Y-58752845D01*
X103402539Y-58705226D01*
X103497777Y-58657607D01*
X103640634Y-58657607D01*
X103735872Y-58705226D01*
X103783491Y-58752845D01*
X103831110Y-58848083D01*
X103831110Y-59229036D01*
X103783491Y-58229036D02*
X103783491Y-57895702D01*
X104307300Y-57752845D02*
X104307300Y-58229036D01*
X103307300Y-58229036D01*
X103307300Y-57752845D01*
X104259681Y-57371893D02*
X104307300Y-57229036D01*
X104307300Y-56990940D01*
X104259681Y-56895702D01*
X104212062Y-56848083D01*
X104116824Y-56800464D01*
X104021586Y-56800464D01*
X103926348Y-56848083D01*
X103878729Y-56895702D01*
X103831110Y-56990940D01*
X103783491Y-57181417D01*
X103735872Y-57276655D01*
X103688253Y-57324274D01*
X103593015Y-57371893D01*
X103497777Y-57371893D01*
X103402539Y-57324274D01*
X103354920Y-57276655D01*
X103307300Y-57181417D01*
X103307300Y-56943321D01*
X103354920Y-56800464D01*
X101833340Y-58439784D02*
X100833340Y-58439784D01*
X100833340Y-58201689D01*
X100880960Y-58058832D01*
X100976198Y-57963594D01*
X101071436Y-57915975D01*
X101261912Y-57868356D01*
X101404769Y-57868356D01*
X101595245Y-57915975D01*
X101690483Y-57963594D01*
X101785721Y-58058832D01*
X101833340Y-58201689D01*
X101833340Y-58439784D01*
X101738102Y-56868356D02*
X101785721Y-56915975D01*
X101833340Y-57058832D01*
X101833340Y-57154070D01*
X101785721Y-57296927D01*
X101690483Y-57392165D01*
X101595245Y-57439784D01*
X101404769Y-57487403D01*
X101261912Y-57487403D01*
X101071436Y-57439784D01*
X100976198Y-57392165D01*
X100880960Y-57296927D01*
X100833340Y-57154070D01*
X100833340Y-57058832D01*
X100880960Y-56915975D01*
X100928579Y-56868356D01*
X99193022Y-57905506D02*
X99240641Y-57953125D01*
X99288260Y-58095982D01*
X99288260Y-58191220D01*
X99240641Y-58334078D01*
X99145403Y-58429316D01*
X99050165Y-58476935D01*
X98859689Y-58524554D01*
X98716832Y-58524554D01*
X98526356Y-58476935D01*
X98431118Y-58429316D01*
X98335880Y-58334078D01*
X98288260Y-58191220D01*
X98288260Y-58095982D01*
X98335880Y-57953125D01*
X98383499Y-57905506D01*
X99240641Y-57524554D02*
X99288260Y-57381697D01*
X99288260Y-57143601D01*
X99240641Y-57048363D01*
X99193022Y-57000744D01*
X99097784Y-56953125D01*
X99002546Y-56953125D01*
X98907308Y-57000744D01*
X98859689Y-57048363D01*
X98812070Y-57143601D01*
X98764451Y-57334078D01*
X98716832Y-57429316D01*
X98669213Y-57476935D01*
X98573975Y-57524554D01*
X98478737Y-57524554D01*
X98383499Y-57476935D01*
X98335880Y-57429316D01*
X98288260Y-57334078D01*
X98288260Y-57095982D01*
X98335880Y-56953125D01*
G04 #@! TO.C,LS1*
X93407142Y-104717380D02*
X92930952Y-104717380D01*
X92930952Y-103717380D01*
X93692857Y-104669761D02*
X93835714Y-104717380D01*
X94073809Y-104717380D01*
X94169047Y-104669761D01*
X94216666Y-104622142D01*
X94264285Y-104526904D01*
X94264285Y-104431666D01*
X94216666Y-104336428D01*
X94169047Y-104288809D01*
X94073809Y-104241190D01*
X93883333Y-104193571D01*
X93788095Y-104145952D01*
X93740476Y-104098333D01*
X93692857Y-104003095D01*
X93692857Y-103907857D01*
X93740476Y-103812619D01*
X93788095Y-103765000D01*
X93883333Y-103717380D01*
X94121428Y-103717380D01*
X94264285Y-103765000D01*
X95216666Y-104717380D02*
X94645238Y-104717380D01*
X94930952Y-104717380D02*
X94930952Y-103717380D01*
X94835714Y-103860238D01*
X94740476Y-103955476D01*
X94645238Y-104003095D01*
G04 #@! TO.C,SW2*
X64827306Y-92308041D02*
X64970163Y-92355660D01*
X65208259Y-92355660D01*
X65303497Y-92308041D01*
X65351116Y-92260422D01*
X65398735Y-92165184D01*
X65398735Y-92069946D01*
X65351116Y-91974708D01*
X65303497Y-91927089D01*
X65208259Y-91879470D01*
X65017782Y-91831851D01*
X64922544Y-91784232D01*
X64874925Y-91736613D01*
X64827306Y-91641375D01*
X64827306Y-91546137D01*
X64874925Y-91450899D01*
X64922544Y-91403280D01*
X65017782Y-91355660D01*
X65255878Y-91355660D01*
X65398735Y-91403280D01*
X65732068Y-91355660D02*
X65970163Y-92355660D01*
X66160640Y-91641375D01*
X66351116Y-92355660D01*
X66589211Y-91355660D01*
X66922544Y-91450899D02*
X66970163Y-91403280D01*
X67065401Y-91355660D01*
X67303497Y-91355660D01*
X67398735Y-91403280D01*
X67446354Y-91450899D01*
X67493973Y-91546137D01*
X67493973Y-91641375D01*
X67446354Y-91784232D01*
X66874925Y-92355660D01*
X67493973Y-92355660D01*
G04 #@! TO.C,SW4*
X72317306Y-100008041D02*
X72460163Y-100055660D01*
X72698259Y-100055660D01*
X72793497Y-100008041D01*
X72841116Y-99960422D01*
X72888735Y-99865184D01*
X72888735Y-99769946D01*
X72841116Y-99674708D01*
X72793497Y-99627089D01*
X72698259Y-99579470D01*
X72507782Y-99531851D01*
X72412544Y-99484232D01*
X72364925Y-99436613D01*
X72317306Y-99341375D01*
X72317306Y-99246137D01*
X72364925Y-99150899D01*
X72412544Y-99103280D01*
X72507782Y-99055660D01*
X72745878Y-99055660D01*
X72888735Y-99103280D01*
X73222068Y-99055660D02*
X73460163Y-100055660D01*
X73650640Y-99341375D01*
X73841116Y-100055660D01*
X74079211Y-99055660D01*
X74888735Y-99388994D02*
X74888735Y-100055660D01*
X74650640Y-99008041D02*
X74412544Y-99722327D01*
X75031592Y-99722327D01*
G04 #@! TO.C,SW5*
X79807306Y-92288041D02*
X79950163Y-92335660D01*
X80188259Y-92335660D01*
X80283497Y-92288041D01*
X80331116Y-92240422D01*
X80378735Y-92145184D01*
X80378735Y-92049946D01*
X80331116Y-91954708D01*
X80283497Y-91907089D01*
X80188259Y-91859470D01*
X79997782Y-91811851D01*
X79902544Y-91764232D01*
X79854925Y-91716613D01*
X79807306Y-91621375D01*
X79807306Y-91526137D01*
X79854925Y-91430899D01*
X79902544Y-91383280D01*
X79997782Y-91335660D01*
X80235878Y-91335660D01*
X80378735Y-91383280D01*
X80712068Y-91335660D02*
X80950163Y-92335660D01*
X81140640Y-91621375D01*
X81331116Y-92335660D01*
X81569211Y-91335660D01*
X82426354Y-91335660D02*
X81950163Y-91335660D01*
X81902544Y-91811851D01*
X81950163Y-91764232D01*
X82045401Y-91716613D01*
X82283497Y-91716613D01*
X82378735Y-91764232D01*
X82426354Y-91811851D01*
X82473973Y-91907089D01*
X82473973Y-92145184D01*
X82426354Y-92240422D01*
X82378735Y-92288041D01*
X82283497Y-92335660D01*
X82045401Y-92335660D01*
X81950163Y-92288041D01*
X81902544Y-92240422D01*
G04 #@! TO.C,SW3*
X72307306Y-84988041D02*
X72450163Y-85035660D01*
X72688259Y-85035660D01*
X72783497Y-84988041D01*
X72831116Y-84940422D01*
X72878735Y-84845184D01*
X72878735Y-84749946D01*
X72831116Y-84654708D01*
X72783497Y-84607089D01*
X72688259Y-84559470D01*
X72497782Y-84511851D01*
X72402544Y-84464232D01*
X72354925Y-84416613D01*
X72307306Y-84321375D01*
X72307306Y-84226137D01*
X72354925Y-84130899D01*
X72402544Y-84083280D01*
X72497782Y-84035660D01*
X72735878Y-84035660D01*
X72878735Y-84083280D01*
X73212068Y-84035660D02*
X73450163Y-85035660D01*
X73640640Y-84321375D01*
X73831116Y-85035660D01*
X74069211Y-84035660D01*
X74354925Y-84035660D02*
X74973973Y-84035660D01*
X74640640Y-84416613D01*
X74783497Y-84416613D01*
X74878735Y-84464232D01*
X74926354Y-84511851D01*
X74973973Y-84607089D01*
X74973973Y-84845184D01*
X74926354Y-84940422D01*
X74878735Y-84988041D01*
X74783497Y-85035660D01*
X74497782Y-85035660D01*
X74402544Y-84988041D01*
X74354925Y-84940422D01*
G04 #@! TO.C,SW6*
X106427306Y-93418041D02*
X106570163Y-93465660D01*
X106808259Y-93465660D01*
X106903497Y-93418041D01*
X106951116Y-93370422D01*
X106998735Y-93275184D01*
X106998735Y-93179946D01*
X106951116Y-93084708D01*
X106903497Y-93037089D01*
X106808259Y-92989470D01*
X106617782Y-92941851D01*
X106522544Y-92894232D01*
X106474925Y-92846613D01*
X106427306Y-92751375D01*
X106427306Y-92656137D01*
X106474925Y-92560899D01*
X106522544Y-92513280D01*
X106617782Y-92465660D01*
X106855878Y-92465660D01*
X106998735Y-92513280D01*
X107332068Y-92465660D02*
X107570163Y-93465660D01*
X107760640Y-92751375D01*
X107951116Y-93465660D01*
X108189211Y-92465660D01*
X108998735Y-92465660D02*
X108808259Y-92465660D01*
X108713020Y-92513280D01*
X108665401Y-92560899D01*
X108570163Y-92703756D01*
X108522544Y-92894232D01*
X108522544Y-93275184D01*
X108570163Y-93370422D01*
X108617782Y-93418041D01*
X108713020Y-93465660D01*
X108903497Y-93465660D01*
X108998735Y-93418041D01*
X109046354Y-93370422D01*
X109093973Y-93275184D01*
X109093973Y-93037089D01*
X109046354Y-92941851D01*
X108998735Y-92894232D01*
X108903497Y-92846613D01*
X108713020Y-92846613D01*
X108617782Y-92894232D01*
X108570163Y-92941851D01*
X108522544Y-93037089D01*
G04 #@! TO.C,SW7*
X119417306Y-89248041D02*
X119560163Y-89295660D01*
X119798259Y-89295660D01*
X119893497Y-89248041D01*
X119941116Y-89200422D01*
X119988735Y-89105184D01*
X119988735Y-89009946D01*
X119941116Y-88914708D01*
X119893497Y-88867089D01*
X119798259Y-88819470D01*
X119607782Y-88771851D01*
X119512544Y-88724232D01*
X119464925Y-88676613D01*
X119417306Y-88581375D01*
X119417306Y-88486137D01*
X119464925Y-88390899D01*
X119512544Y-88343280D01*
X119607782Y-88295660D01*
X119845878Y-88295660D01*
X119988735Y-88343280D01*
X120322068Y-88295660D02*
X120560163Y-89295660D01*
X120750640Y-88581375D01*
X120941116Y-89295660D01*
X121179211Y-88295660D01*
X121464925Y-88295660D02*
X122131592Y-88295660D01*
X121703020Y-89295660D01*
G04 #@! TO.C,SW1*
X92757306Y-74368041D02*
X92900163Y-74415660D01*
X93138259Y-74415660D01*
X93233497Y-74368041D01*
X93281116Y-74320422D01*
X93328735Y-74225184D01*
X93328735Y-74129946D01*
X93281116Y-74034708D01*
X93233497Y-73987089D01*
X93138259Y-73939470D01*
X92947782Y-73891851D01*
X92852544Y-73844232D01*
X92804925Y-73796613D01*
X92757306Y-73701375D01*
X92757306Y-73606137D01*
X92804925Y-73510899D01*
X92852544Y-73463280D01*
X92947782Y-73415660D01*
X93185878Y-73415660D01*
X93328735Y-73463280D01*
X93662068Y-73415660D02*
X93900163Y-74415660D01*
X94090640Y-73701375D01*
X94281116Y-74415660D01*
X94519211Y-73415660D01*
X95423973Y-74415660D02*
X94852544Y-74415660D01*
X95138259Y-74415660D02*
X95138259Y-73415660D01*
X95043020Y-73558518D01*
X94947782Y-73653756D01*
X94852544Y-73701375D01*
G04 #@! TO.C,U6*
X92928095Y-92314540D02*
X92928095Y-93124064D01*
X92975714Y-93219302D01*
X93023333Y-93266921D01*
X93118571Y-93314540D01*
X93309047Y-93314540D01*
X93404285Y-93266921D01*
X93451904Y-93219302D01*
X93499523Y-93124064D01*
X93499523Y-92314540D01*
X94404285Y-92314540D02*
X94213809Y-92314540D01*
X94118571Y-92362160D01*
X94070952Y-92409779D01*
X93975714Y-92552636D01*
X93928095Y-92743112D01*
X93928095Y-93124064D01*
X93975714Y-93219302D01*
X94023333Y-93266921D01*
X94118571Y-93314540D01*
X94309047Y-93314540D01*
X94404285Y-93266921D01*
X94451904Y-93219302D01*
X94499523Y-93124064D01*
X94499523Y-92885969D01*
X94451904Y-92790731D01*
X94404285Y-92743112D01*
X94309047Y-92695493D01*
X94118571Y-92695493D01*
X94023333Y-92743112D01*
X93975714Y-92790731D01*
X93928095Y-92885969D01*
X92039047Y-89408068D02*
X92800952Y-89408068D01*
X94573967Y-89408068D02*
X95335872Y-89408068D01*
X94954920Y-89789020D02*
X94954920Y-89027116D01*
G04 #@! TD*
M02*
